<?xml version="1.0" encoding="UTF-8" standalone="no"?>
<!-- Created with Inkscape (http://www.inkscape.org/) -->

<svg
   version="1.1"
   id="svg1"
   width="534"
   height="105.90759"
   viewBox="0 0 534 105.90759"
   xmlns="http://www.w3.org/2000/svg"
   xmlns:svg="http://www.w3.org/2000/svg">
  <defs
     id="defs1" />
  <g
     id="g13"
     transform="translate(-246,-610.00002)">
    <path
       style="fill:#7b818a"
       d="m 477.5,715.48365 c -0.55,-0.16979 -2.2375,-0.58164 -3.75,-0.91523 -1.59082,-0.35086 -2.75,-1.27587 -2.75,-2.19446 0,-1.12588 0.50922,-1.3739 1.75,-0.85235 5.51984,2.32017 11.25,1.59781 11.25,-1.41822 0,-2.29679 -1.60065,-3.61609 -5.5,-4.53323 -7.56342,-1.77894 -9.80373,-6.61289 -4.86514,-10.49758 2.91262,-2.29107 5.84862,-2.59966 9.93873,-1.0446 3.78498,1.43905 2.21901,2.42681 -3.88616,2.45125 -4.86105,0.0195 -5.18743,0.17806 -5.18743,2.52077 0,2.08973 0.75852,2.74616 4.62214,4 5.75419,1.86738 7.87786,3.61084 7.87786,6.46746 0,3.48489 -5.80051,7.15826 -9.5,6.01619 z m 109.88435,-0.94228 C 583.50693,712.88389 582,708.91235 582,700.35078 582,695.37231 582.32413,694 583.5,694 c 1.20586,0 1.5,1.53833 1.5,7.84501 0,8.73023 1.37568,11.15499 6.32874,11.15499 5.0007,0 6.67126,-3.01972 6.67126,-12.05902 0,-5.11803 0.36493,-7.83347 1,-7.44098 0.55,0.33992 1,4.33804 1,8.8847 0,7.30082 -0.26288,8.50538 -2.25,10.30975 -3.07871,2.79557 -6.65554,3.43288 -10.36565,1.84692 z m 48.82756,0.32998 c -2.01495,-0.58111 -4.04628,-2.19177 -5.24626,-4.15981 -5.74012,-9.41419 2.56809,-19.96545 13.2104,-16.77694 10.18053,3.05016 10.2713,18.18118 0.12597,20.99846 -2.09111,0.58068 -4.02702,1.01771 -4.30202,0.97117 -0.275,-0.0465 -1.97964,-0.51133 -3.78809,-1.03288 z m 10.33354,-4.3259 C 651.97004,705.12087 648.14859,695.8 640.5,695.8 c -5.15371,0 -8.5,3.61525 -8.5,9.18318 0,2.99155 0.59896,4.3428 2.63486,5.94424 3.6579,2.8773 8.81677,2.71186 11.91059,-0.38197 z m 14.09403,4.7607 C 660.28777,714.95443 660,710.01667 660,704.33333 660,694 660,694 666.92742,694 c 6.29273,0 7.11731,0.24141 9,2.63486 2.5972,3.3018 2.61488,5.406 0.0726,8.63801 -2.47216,3.14284 -2.47102,3.25691 0.0681,6.82276 1.93145,2.71246 1.94796,2.90182 0.25,2.86585 -0.99995,-0.0212 -2.72404,-1.48369 -3.83132,-3.25 -1.59038,-2.53695 -2.79809,-3.27667 -5.75,-3.52185 -3.6633,-0.30426 -3.73677,-0.24152 -3.73677,3.19099 0,3.41732 -1.07726,5.20879 -2.36052,3.92553 z m 12.78909,-10.87758 c 1.86505,-1.86505 2.05418,-5.54582 0.37143,-7.22857 -0.66,-0.66 -3.36,-1.2 -6,-1.2 -4.8,0 -4.8,0 -4.8,5 0,5 0,5 4.42857,5 2.69264,0 5.04455,-0.61598 6,-1.57143 z M 344.89283,711.75 c -0.63124,-19.14337 -0.88412,-18.22688 5.10717,-18.50881 6.8841,-0.32394 10.38932,1.34441 10.82818,5.1538 0.1805,1.56676 -0.13566,3.31249 -0.70257,3.8794 -0.70766,0.70766 -0.41323,1.81579 0.93934,3.53531 2.15093,2.73446 1.81581,5.83919 -0.85705,7.9403 -0.91837,0.72192 -4.46668,1.25 -8.39903,1.25 C 345,715 345,715 344.89283,711.75 Z m 13.17291,0.21482 C 359.12958,711.39547 360,710.0613 360,709 c 0,-2.60666 -2.93796,-4 -8.43426,-4 C 347,705 347,705 347,709 c 0,4 0,4 4.56574,4 2.51116,0 5.43616,-0.46583 6.5,-1.03518 z m -0.63717,-10.53625 c 2.15747,-2.15746 1.98131,-3.1139 -0.92416,-5.01764 -1.75248,-1.14827 -3.53908,-1.43941 -6,-0.97774 C 347.30166,696.03403 347,696.388 347,699.54531 c 0,3.41953 0.0451,3.45469 4.42857,3.45469 2.69264,0 5.04455,-0.61598 6,-1.57143 z M 369,714.34041 c 0,-0.36277 2.475,-3.25436 5.5,-6.42576 5.99435,-6.28445 7.07323,-10.00232 3.4632,-11.93435 -1.55357,-0.83144 -2.77629,-0.72116 -5.15364,0.46482 -3.79009,1.89074 -3.80956,1.89164 -3.80956,0.1762 0,-2.03476 5.37319,-3.9179 8.94227,-3.134 6.62939,1.45606 6.38953,7.10548 -0.61985,14.59907 C 372.72632,713 372.72632,713 378.36316,713 c 3.10026,0 5.63684,0.45 5.63684,1 0,0.57778 -3.16667,1 -7.5,1 -4.125,0 -7.5,-0.29681 -7.5,-0.65959 z M 392,704 c 0,-11 0,-11 5.56574,-11 6.1818,0 8.85087,1.0414 10.48241,4.08998 0.8342,1.55871 0.74877,2.57102 -0.35976,4.26285 -1.30062,1.98499 -1.25544,2.46362 0.42893,4.54372 2.40214,2.96653 2.37498,4.61115 -0.11732,7.10345 -1.61905,1.61905 -3.33333,2 -9,2 -7,0 -7,0 -7,-11 z m 13.06574,7.96482 C 406.12958,711.39547 407,710.0613 407,709 c 0,-2.60666 -2.93796,-4 -8.43426,-4 C 394,705 394,705 394,709 c 0,4 0,4 4.56574,4 2.51116,0 5.43616,-0.46583 6.5,-1.03518 z m -0.10557,-10.41683 c 1.61221,-1.94259 0.46352,-5.20393 -2.06585,-5.86537 -1.12169,-0.29333 -3.58179,-0.28304 -5.46688,0.0229 -2.92055,0.47394 -3.42744,0.95587 -3.42744,3.25869 0,1.48637 0.3,3.00249 0.66667,3.36915 1.27735,1.27736 9.07538,0.68241 10.2935,-0.78534 z m 25.71216,2.70224 c 0.17233,-10.75023 0.17233,-10.75023 4.19042,-11.05482 10.32347,-0.78256 16.74205,4.23143 15.75152,12.30459 -0.34636,2.8229 -1.39642,4.80926 -3.5683,6.75 -2.7116,2.42302 -3.87823,2.75003 -9.81175,2.75023 -6.73422,2.4e-4 -6.73422,2.4e-4 -6.56189,-10.75 z m 15.4938,5.79294 c 2.53546,-3.13116 2.34627,-8.35096 -0.41613,-11.48145 -1.7609,-1.99553 -3.33688,-2.60544 -7.25,-2.80576 -5,-0.25596 -5,-0.25596 -5.29079,8.62125 -0.29079,8.87722 -0.29079,8.87722 5.41613,8.40395 4.36567,-0.36203 6.13792,-1.00552 7.54079,-2.73799 z M 460,703.91667 c 0,-8.42219 0.30013,-10.98331 1.25,-10.66674 1.28654,0.42878 2.05212,14.89675 1.03186,19.50007 C 461.06658,718.23324 460,714.10439 460,703.91667 Z M 499,705.5 c 0,-9.5 0,-9.5 -3.5,-9.5 -2.44444,0 -3.5,-0.45238 -3.5,-1.5 0,-1.21569 1.61111,-1.5 8.5,-1.5 6.88889,0 8.5,0.28431 8.5,1.5 0,1.04762 -1.05556,1.5 -3.5,1.5 -3.5,0 -3.5,0 -3.5,9.5 0,7.77778 -0.27193,9.5 -1.5,9.5 -1.22807,0 -1.5,-1.72222 -1.5,-9.5 z m 17,-1.6165 c 0,-11.11649 0,-11.11649 6.52095,-10.70127 7.10585,0.45247 9.8291,2.16908 10.98909,6.92704 0.4715,1.93398 0.007,3.3405 -1.79423,5.43473 -2.43037,2.82547 -2.43037,2.82547 -0.47431,6.14074 2.73947,4.64305 0.0189,4.46433 -3.00069,-0.19712 C 526.37134,708.60164 525.37942,708 522.49081,708 519.16798,708 519,708.16842 519,711.5 c 0,2.44444 -0.45238,3.5 -1.5,3.5 -1.24338,0 -1.5,-1.90183 -1.5,-11.1165 z m 13.42857,0.54507 c 1.82683,-1.82683 1.98822,-3.78128 0.53625,-6.49431 C 529.15475,696.42065 527.84993,696 523.96482,696 519,696 519,696 519,701 c 0,5 0,5 4.42857,5 2.69264,0 5.04455,-0.61598 6,-1.57143 z m 13.7876,-0.17857 c 0.16662,-6.31078 0.69678,-10.75 1.28383,-10.75 0.58705,0 1.11721,4.43922 1.28383,10.75 0.24333,9.21581 0.0601,10.75 -1.28383,10.75 -1.34393,0 -1.52716,-1.53419 -1.28383,-10.75 z M 556,704 c 0,-11 0,-11 4.9349,-11 6.40685,0 9.81536,1.35777 11.23605,4.47586 0.92779,2.03626 0.8454,2.85048 -0.43208,4.27008 -1.44357,1.60417 -1.4144,1.95579 0.34134,4.11484 2.4395,2.99987 2.42109,4.63792 -0.0802,7.13922 -1.61905,1.61905 -3.33333,2 -9,2 -7,0 -7,0 -7,-11 z m 13.8,7.8 c 3.5358,-3.5358 -0.28782,-7.0991 -7.08821,-6.60563 -4.08157,0.29618 -4.22139,0.42157 -4.52216,4.05563 -0.31036,3.75 -0.31036,3.75 5.05,3.75 2.94821,0 5.90037,-0.54 6.56037,-1.2 z m -0.73043,-10.38382 c 2.2938,-2.76386 -0.10419,-4.87675 -5.92256,-5.21844 C 558,695.89548 558,695.89548 558,699.44774 558,703 558,703 562.87756,703 c 3.23038,0 5.32145,-0.53486 6.19201,-1.58382 z M 614,705.5 c 0,-9.5 0,-9.5 -3.5,-9.5 -2.44444,0 -3.5,-0.45238 -3.5,-1.5 0,-1.21569 1.61111,-1.5 8.5,-1.5 6.88889,0 8.5,0.28431 8.5,1.5 0,1.04762 -1.05556,1.5 -3.5,1.5 -3.5,0 -3.5,0 -3.5,9.5 0,7.77778 -0.27193,9.5 -1.5,9.5 -1.22807,0 -1.5,-1.72222 -1.5,-9.5 z M 268.5,672.71394 c -2.75,-0.008 2.74995,0.008 0,0 z"
       id="path14" />
    <path
       style="fill:#222b63"
       d="M 258.19611,671.01292 C 252.05253,669.55812 246,666.8418 246,665.53942 246,663.39197 248.95997,657 249.9544,657 c 0.51016,0 1.20196,0.44398 1.53734,0.98663 1.20502,1.94977 14.51982,5.27217 19.07223,4.75905 5.76469,-0.64976 9.43603,-3.08878 9.43603,-6.26873 0,-3.59933 -3.13015,-6.17894 -9.71062,-8.00269 -18.11645,-5.0209 -21.24288,-6.77332 -23.32169,-13.07217 -2.51893,-7.63241 1.3343,-15.87872 9.26663,-19.83156 4.26695,-2.12632 6.56196,-2.57053 13.28052,-2.57053 7.91124,0 17.80252,2.08646 18.98851,4.00541 0.58823,0.95179 -1.4294,8.99459 -2.2564,8.99459 -0.24006,0 -3.58316,-0.95578 -7.4291,-2.12395 C 267.64312,620.48184 258,623.14963 258,629.63536 c 0,3.67557 3.57293,6.01195 12.69104,8.29884 9.40926,2.35992 14.84791,4.79029 17.64778,7.88628 2.60471,2.88018 3.78175,8.9348 2.59941,13.37113 -1.18791,4.45717 -7.26797,9.99139 -12.79667,11.64783 -4.30123,1.28868 -14.84857,1.38042 -19.94545,0.17348 z m 54.74549,0.0871 C 304.44639,668.36192 303.61469,666.59673 303,650 c -0.5,-13.5 -0.5,-13.5 -4.25,-13.81037 -3.64624,-0.30177 -3.75,-0.41937 -3.75,-4.25 0,-3.83577 0.0923,-3.93963 3.5,-3.93963 3.5,0 3.5,0 3.5,-5.5 0,-5.5 0,-5.5 6,-5.5 6,0 6,0 6,5.5 0,5.5 0,5.5 6,5.5 6,0 6,0 6,4 0,4 0,4 -6,4 -6,0 -6,0 -6,11.06574 0,6.08616 0.43813,11.8844 0.97362,12.88497 1.24038,2.31766 5.1807,3.32131 8.33346,2.12264 2.22981,-0.84778 2.58242,-0.58233 3.99151,3.00487 1.43309,3.64828 1.41827,4.00295 -0.20351,4.87089 -2.60207,1.39259 -11.2276,2.09401 -14.15348,1.15096 z m 37.5584,-0.0351 c -16.41857,-3.99708 -23.14895,-24.28355 -12.19545,-36.75906 10.22399,-11.64462 31.47977,-9.80547 38.88978,3.36494 5.42471,9.64177 3.25934,22.83043 -4.75161,28.94068 -5.9018,4.50152 -14.54205,6.25512 -21.94272,4.45344 z m 13.40521,-11.63863 c 8.50338,-7.15511 4.95312,-21.69672 -5.64417,-23.11811 -8.46042,-1.13478 -13.82734,4.84949 -13.0251,14.52337 0.38327,4.62176 0.96472,5.95854 3.62604,8.33643 4.30561,3.84706 10.6488,3.95598 15.04323,0.25831 z M 404.5,671.1191 C 393.53759,668.25237 387,659.79952 387,648.49228 c 0,-14.90959 13.66223,-24.78019 29.69279,-21.45226 4.46635,0.92721 6.63967,2.05714 9.54515,4.96263 2.06913,2.06913 3.75835,4.1525 3.75381,4.6297 -0.005,0.47721 -1.90869,1.89982 -4.23146,3.16135 -3.44867,1.87304 -4.41001,2.04803 -5.24175,0.95411 -5.09477,-6.70068 -16.2579,-6.02009 -20.00161,1.21946 -1.72703,3.33969 -1.98209,9.67906 -0.54186,13.46717 1.25826,3.30946 6.61559,6.55705 10.82459,6.56182 3.65648,0.004 8.66563,-2.22686 9.90064,-4.4096 0.65689,-1.16099 1.56565,-0.96015 5.08889,1.12466 4.01208,2.37408 4.19898,2.67535 2.89306,4.66336 -3.83686,5.84087 -16.25438,9.8176 -24.18225,7.74442 z m 176.36885,-0.29369 c -7.5182,-2.00396 -12.08546,-11.35392 -8.66025,-17.72901 2.76503,-5.14637 6.03041,-6.45764 17.54835,-7.04684 C 600.5,645.5 600.5,645.5 600.28733,642.5 c -0.33774,-4.76436 -4.3045,-7.5 -10.87521,-7.5 -3.012,0 -7.11658,0.68533 -9.12129,1.52295 -3.88785,1.62445 -4.28803,1.44692 -6.03606,-2.6777 -1.08708,-2.56506 -0.95182,-2.72929 4.00373,-4.86111 6.53048,-2.80933 17.71908,-3.03768 23.12592,-0.47196 C 608.93491,632.09512 611,638.56477 611,658.63649 611,671 611,671 606,671 c -4.7445,0 -5,-0.13567 -5,-2.65499 0,-2.56135 -0.0682,-2.59326 -1.9338,-0.90492 -2.40296,2.17465 -8.73908,4.4918 -12.0662,4.41266 -1.375,-0.0327 -4.13402,-0.495 -6.13115,-1.02734 z m 14.12011,-7.3197 C 598.72341,661.57455 601,658.26887 601,654.77749 601,652.00715 600.9821,652 594.04705,652 c -10.52514,0 -14.14834,2.47597 -12.60743,8.61546 1.04886,4.17899 8.1344,5.69043 13.54934,2.89025 z M 633.5,671.35446 c -6.6221,-0.99743 -12.65008,-3.52098 -12.06328,-5.05016 0.3145,-0.81956 0.84367,-2.5733 1.17595,-3.8972 0.33228,-1.32391 0.66786,-2.40687 0.74574,-2.4066 0.0779,2.8e-4 2.50892,0.90028 5.40232,2 7.06049,2.68356 15.55545,2.68332 18.23927,-5e-4 1.1,-1.1 2,-2.45 2,-3 0,-2.47877 -4.16913,-4.82414 -10.55089,-5.93548 -9.44049,-1.64399 -13.03145,-3.35617 -14.99253,-7.14849 -3.28994,-6.36203 -0.31307,-13.83126 7.04342,-17.67255 5.86815,-3.06413 25.5,-1.2466 25.5,2.36081 0,1.19582 -1.40688,4.737 -2.42374,6.10066 -0.0841,0.11272 -1.9356,-0.43003 -4.11454,-1.20611 C 640.83778,632.42723 631,634.79921 631,639.95014 c 0,2.77543 2.14563,3.97932 10.01738,5.62062 10.03259,2.09186 13.59497,3.77893 15.4162,7.3008 3.22506,6.23657 0.76337,13.3835 -5.65963,16.43142 -3.71014,1.76057 -12.37405,2.78951 -17.27395,2.05148 z m 44.53463,-0.6609 c -1.98002,-0.68197 -4.44463,-2.64999 -5.75,-4.59144 C 670.17861,662.96987 670,661.6213 670,648.85212 670,635 670,635 666,635 c -4,0 -4,0 -4,-4 0,-3.89477 0.0909,-4 3.45469,-4 3.11963,0 3.5073,-0.3152 3.99723,-3.25 0.2984,-1.7875 0.43129,-4.15 0.29531,-5.25 -0.21246,-1.71874 0.42077,-2.04286 4.50277,-2.30479 4.75,-0.30479 4.75,-0.30479 4.75,5.25 C 679,627 679,627 685,627 c 4.12605,0 6.00426,0.39041 6.01365,1.25 0.008,0.6875 0.27907,2.23982 0.60346,3.4496 0.5568,2.07655 0.23437,2.2164 -5.76366,2.5 C 679.5,634.5 679.5,634.5 679.21995,646.6593 c -0.26794,11.63326 -0.17496,12.28148 2.14922,14.98349 2.28677,2.65854 2.66472,2.76135 6.44337,1.75277 3.75358,-1.00189 4.08464,-0.91664 5.10079,1.31356 1.79155,3.93204 1.27374,5.14492 -2.66333,6.2383 -4.74123,1.3167 -7.84252,1.25225 -12.21537,-0.25386 z M 718,671.11526 c -9.63383,-2.06105 -15.79515,-7.9244 -18.00443,-17.13373 -1.50866,-6.28881 -0.0237,-13.26215 4.00988,-18.83036 8.10882,-11.1939 28.19599,-11.3594 35.51962,-0.29265 2.01143,3.03948 4.43466,11.92717 4.46914,16.39148 0.003,0.4125 -7.89953,0.75 -17.5616,0.75 -17.56739,0 -17.56739,0 -16.88506,2.25 1.56522,5.1614 8.27203,9.75 14.25085,9.75 1.57446,0 5.01562,-1.08998 7.64704,-2.42217 4.78439,-2.42217 4.78439,-2.42217 7.08368,0.25 2.68248,3.11751 2.09431,4.30331 -3.56715,7.19157 -4.31401,2.20084 -12.02038,3.15306 -16.96197,2.09586 z m 17,-25.64738 c 0,-2.46241 -3.5009,-7.80286 -6.18982,-9.44225 -5.9933,-3.65401 -14.18772,-1.73531 -17.78455,4.16419 C 707.54018,645.90665 707.71651,646 722,646 c 7.15,0 13,-0.23945 13,-0.53212 z M 438,640.5 c 0,-30.5 0,-30.5 6,-30.5 6,0 6,0 6,18.0829 0,18.08289 0,18.08289 10.25,8.50771 10.25,-9.57518 10.25,-9.57518 16.72915,-9.58289 6.47915,-0.008 6.47915,-0.008 -2.38526,8.89795 -8.86441,8.90568 -8.86441,8.90568 -6.54452,12.25 1.96339,2.83039 13.03121,17.57698 16.20728,21.59433 0.7709,0.97509 -0.55254,1.25 -6.0176,1.25 -7.00584,0 -7.00584,0 -13.1518,-8.45913 -3.38028,-4.65252 -6.62164,-8.75311 -7.20301,-9.11242 -0.58138,-0.35931 -2.59317,0.83558 -4.47065,2.6553 C 450.30096,659.10064 450,659.90402 450,665.19617 450,671 450,671 444,671 c -6,0 -6,0 -6,-30.5 z m 57,1.4425 c 0,-29.0575 0,-29.0575 4.23438,-28.75 4.23437,0.3075 4.23437,0.3075 15.01205,18.8075 5.92773,10.175 11.11704,18.61493 11.53182,18.7554 0.41477,0.14046 5.81915,-8.29704 12.00974,-18.75 C 549.0436,613 549.0436,613 553.0218,613 557,613 557,613 557,642 c 0,29 0,29 -4.47929,29 -4.4793,0 -4.4793,0 -4.75,-20.25 C 547.5,630.5 547.5,630.5 538,647.21718 c -8.61691,15.1632 -9.75374,16.72023 -12.22968,16.75 -2.22412,0.0267 -3.12434,-0.7543 -4.86064,-4.21718 -1.17203,-2.3375 -5.34368,-9.63575 -9.27032,-16.21834 -7.13936,-11.96833 -7.13936,-11.96833 -7.4105,7.75 C 503.95772,671 503.95772,671 499.47886,671 495,671 495,671 495,641.9425 Z M 755,649 c 0,-22 0,-22 4.5,-22 4.36211,0 4.5,0.0947 4.5,3.08889 0,3.0889 0,3.0889 3.03105,0.53843 2.7552,-2.31834 8.55999,-4.60765 11.71895,-4.62174 0.81564,-0.004 1.25,1.55811 1.25,4.49442 0,4.43838 -0.0459,4.5 -3.35212,4.5 -4.54305,0 -9.87515,3.77743 -11.34144,8.03463 -0.65645,1.90595 -1.21895,8.97787 -1.25,15.71537 C 764,671 764,671 759.5,671 755,671 755,671 755,649 Z"
       id="path13" />
  </g>
</svg>
