<?xml version="1.0" encoding="UTF-8" standalone="no"?>
<!-- Created with Inkscape (http://www.inkscape.org/) -->

<svg
   width="67.691673mm"
   height="75.915901mm"
   viewBox="0 0 67.691673 75.915901"
   version="1.1"
   id="svg1"
   xml:space="preserve"
   xmlns="http://www.w3.org/2000/svg"
   xmlns:svg="http://www.w3.org/2000/svg"><defs
     id="defs1" /><g
     id="g1"
     transform="matrix(0.64387822,0,0,0.65922328,-33.736944,-39.306268)"><path
       style="display:inline;fill:#d8d8d8;fill-opacity:1"
       d="m 98.904557,158.56926 c 0.190996,-0.0764 0.419199,-0.067 0.507118,0.0209 0.08792,0.0879 -0.06835,0.15045 -0.347265,0.13896 -0.308225,-0.0127 -0.37092,-0.0754 -0.159853,-0.15985 z m 8.962723,-2.38449 c 0.097,-0.26261 0.43152,-0.8942 0.7434,-1.40352 0.86649,-1.41508 1.38334,-2.89828 1.59205,-4.56881 0.17085,-1.36741 0.14094,-1.51866 -0.30402,-1.5375 -0.27865,-0.0118 -0.34952,-0.079 -0.16277,-0.15434 0.1819,-0.0734 0.33073,-0.46167 0.33073,-0.86283 0,-1.0899 -0.95309,-4.6063 -1.56051,-5.75745 l -0.53277,-1.00969 -0.0117,2.57968 c -0.006,1.41883 -0.10076,2.57969 -0.20963,2.57969 -0.76497,0 -6.31585,-2.12787 -8.811852,-3.37792 l -3.02875,-1.51687 -0.05137,-2.11667 c -0.02826,-1.16416 -0.05802,-3.5104 -0.06615,-5.21385 l -0.01477,-3.09718 -1.918229,-1.10416 c -11.357874,-6.53774 -15.168451,-9.09567 -18.468872,-12.39759 -1.39025,-1.39089 -2.993288,-3.24226 -3.562308,-4.11417 -1.968447,-3.01625 -3.057905,-6.67586 -2.993757,-10.05638 0.03265,-1.72065 0.04828,-1.76759 0.220251,-0.66146 0.101808,0.65485 0.202988,0.986 0.224844,0.73591 0.0242,-0.27693 0.186911,-0.39824 0.416157,-0.31027 0.207029,0.0794 0.603078,-0.0822 0.880107,-0.35925 0.27703,-0.27703 0.729383,-0.59029 1.00523,-0.69615 0.370277,-0.14208 0.414087,-0.2465 0.167392,-0.39897 -0.233863,-0.14453 0.03947,-0.4976 0.910731,-1.17639 1.113213,-0.867297 1.647194,-1.101524 2.282517,-1.00121 0.109141,0.01723 0.198438,-0.08399 0.198438,-0.224947 0,-0.140954 0.155243,-0.196707 0.344984,-0.123897 0.189742,0.07281 0.844585,-0.342875 1.455209,-0.923747 0.610623,-0.580872 1.112047,-0.971603 1.114275,-0.868291 0.0022,0.103312 0.119468,0.0092 0.260532,-0.209036 0.227982,-0.352777 0.261346,-0.352777 0.30027,0 0.02408,0.218282 0.127088,-0.138906 0.228896,-0.79375 0.153953,-0.990245 0.191794,-0.799592 0.224845,1.132826 0.06911,4.040912 1.431146,7.031792 4.844285,10.637542 2.507925,2.64945 4.905812,4.31274 12.393369,8.59663 14.421066,8.25079 17.421136,10.46139 20.553746,15.14501 2.81142,4.20343 3.5474,8.42847 2.1865,12.55204 -0.16132,0.48881 -0.40141,0.82193 -0.53354,0.74027 -0.13213,-0.0817 -0.17345,0.0256 -0.0918,0.23827 0.0816,0.2127 -0.0364,0.74414 -0.26231,1.18098 -0.30714,0.59394 -0.54551,0.759 -0.94519,0.65448 -0.29395,-0.0769 -0.53446,-0.0197 -0.53446,0.12699 0,0.14672 -0.29766,0.34147 -0.66146,0.43278 -0.3638,0.0913 -0.66328,0.31257 -0.66551,0.4917 -0.003,0.21115 -0.0957,0.18612 -0.26458,-0.0712 -0.22673,-0.34538 -0.2926,-0.34702 -0.50766,-0.0126 -0.13592,0.21133 -0.18927,0.47786 -0.11855,0.59228 0.0707,0.11442 -0.032,0.14642 -0.2283,0.0711 -0.25215,-0.0968 -0.34383,0.0788 -0.31244,0.59834 0.0244,0.40441 0.075,0.73529 0.11232,0.73529 0.0373,0 0.0955,0.25868 0.1293,0.57485 0.0426,0.39868 -0.393,1.00681 -1.42139,1.98437 -0.83132,0.79024 -1.04706,0.93918 -0.49104,0.33899 0.77315,-0.83455 0.92156,-1.14075 0.67325,-1.38906 -0.44106,-0.44107 -0.82946,-0.39928 -0.64943,0.0699 0.082,0.21363 0.0168,0.47015 -0.14486,0.57005 -0.16751,0.10352 -0.22009,0.0622 -0.12226,-0.0961 0.0944,-0.15276 -0.002,-0.34455 -0.21523,-0.4262 -0.21278,-0.0817 -0.45404,-0.0398 -0.53612,0.093 -0.0821,0.13281 -0.34355,0.16691 -0.58104,0.0758 -0.28864,-0.11076 -0.36838,-0.0631 -0.2405,0.14385 0.10522,0.17025 0.0652,0.30955 -0.0889,0.30955 -0.46116,0 -0.3175,0.67797 0.25308,1.19434 l 0.53327,0.4826 -0.54552,0.58068 c -0.30003,0.31937 -1.07455,0.9606 -1.72114,1.42495 -0.88069,0.63246 -1.13138,0.72448 -0.99927,0.36678 z m 2.84232,-2.16729 c 0.0797,-0.12903 -0.0621,-0.39692 -0.31512,-0.59531 -0.40644,-0.31864 -0.4218,-0.31158 -0.13167,0.0605 0.18064,0.23167 0.25009,0.49956 0.15434,0.59531 -0.0958,0.0958 -0.10175,0.17409 -0.0133,0.17409 0.0884,0 0.22602,-0.10557 0.30577,-0.2346 z m 3.02464,-2.76401 c 0.21878,-0.26362 0.20468,-0.35278 -0.0558,-0.35278 -0.19172,0 -0.34858,0.15875 -0.34858,0.35278 0,0.19403 0.0251,0.35278 0.0558,0.35278 0.0307,0 0.18755,-0.15875 0.34858,-0.35278 z m -6.41018,-8.57437 c -0.22021,-0.42583 -0.58094,-0.77424 -0.80162,-0.77424 -0.44841,0 -0.33533,0.29097 0.45373,1.16753 0.69318,0.77005 0.85492,0.5872 0.34789,-0.39329 z m 0.36136,-1.34103 c 0,-0.26323 -0.17268,-0.70971 -0.38372,-0.99219 -0.36582,-0.48963 -0.37706,-0.48274 -0.24106,0.14787 0.21957,1.01807 0.33114,1.32292 0.48418,1.32292 0.0773,0 0.1406,-0.21537 0.1406,-0.4786 z m -6.35,-3.85463 c 0,-0.0549 -0.20836,-0.2633 -0.46302,-0.46302 -0.41965,-0.32911 -0.42901,-0.31975 -0.0999,0.0999 0.34564,0.44073 0.56292,0.58089 0.56292,0.36313 z m 3.175,-0.27234 c 0,-0.0592 -0.61961,-0.62476 -1.37691,-1.25677 -0.75729,-0.63202 -1.26513,-0.97053 -1.12853,-0.75225 0.13661,0.21828 0.2502,0.48618 0.25243,0.59532 0.002,0.10914 0.12311,0.21017 0.26863,0.22452 0.58441,0.0576 1.1947,0.54702 1.02486,0.82182 -0.10485,0.16965 -0.0601,0.21776 0.1066,0.1147 0.15795,-0.0976 0.36197,-0.0565 0.45337,0.0914 0.16648,0.26936 0.39955,0.36342 0.39955,0.16125 z M 75.803126,107.95 c 0.263389,-0.29104 0.419358,-0.52916 0.346598,-0.52916 -0.07276,0 -0.347792,0.23812 -0.611181,0.52916 -0.263389,0.29104 -0.419358,0.52917 -0.346598,0.52917 0.07276,0 0.347792,-0.23813 0.611181,-0.52917 z m 39.290624,42.20104 c 0.34177,-0.3638 0.68094,-0.66146 0.7537,-0.66146 0.0728,0 -0.14734,0.29766 -0.48912,0.66146 -0.34177,0.3638 -0.68094,0.66146 -0.7537,0.66146 -0.0728,0 0.14734,-0.29766 0.48912,-0.66146 z m 1.19062,-1.45521 c 0.26339,-0.29104 0.53842,-0.52916 0.61118,-0.52916 0.0728,0 -0.0832,0.23812 -0.34659,0.52916 -0.26339,0.29104 -0.53842,0.52917 -0.61118,0.52917 -0.0728,0 0.0832,-0.23813 0.34659,-0.52917 z m -8.64856,-0.44532 c 0.19099,-0.0764 0.4192,-0.067 0.50711,0.0209 0.0879,0.0879 -0.0684,0.15045 -0.34726,0.13896 -0.30823,-0.0127 -0.37092,-0.0754 -0.15985,-0.15985 z m 16.63016,-0.7894 c -0.097,-0.097 -0.17639,-7.89561 -0.17639,-17.33021 0,-9.4346 -0.0712,-17.15382 -0.15823,-17.15382 -0.087,0 -1.70208,1.07157 -3.58899,2.38125 -1.88691,1.30969 -3.4959,2.38125 -3.57554,2.38125 -0.0796,0 -2.1557,-2.05382 -4.61346,-4.56406 l -4.46866,-4.56406 0.72796,-0.59845 c 0.40038,-0.32914 2.15671,-1.60343 3.90296,-2.83173 14.85091,-10.446087 22.85732,-16.041683 23.47619,-16.407254 l 0.73319,-0.433107 -0.0232,8.018604 -0.0232,8.018607 -4.38881,2.91041 c -2.41385,1.60073 -5.1716,3.45814 -6.12833,4.12757 l -1.73951,1.21715 0.0699,17.38311 c 0.052,12.93137 0.14718,17.33536 0.37161,17.19666 0.18557,-0.11469 0.22903,-0.0689 0.11291,0.11901 -0.21905,0.35441 -0.27168,0.36773 -0.51034,0.12907 z m -22.1368,-30.27922 c -3.128701,-1.90081 -5.769892,-3.5352 -5.869316,-3.63197 -0.257839,-0.25097 -0.391932,-11.42134 -0.137102,-11.42102 0.116211,1.5e-4 2.824883,1.63001 6.019268,3.62192 l 5.80798,3.62166 v 5.63876 c 0,3.10132 -0.0298,5.63604 -0.0662,5.63271 -0.0364,-0.003 -2.62599,-1.56125 -5.75468,-3.46206 z m 4.66524,-11.02727 c -0.0707,-0.11434 0.0922,-0.20789 0.36184,-0.20789 0.26967,0 0.4325,0.0935 0.36183,0.20789 -0.0707,0.11433 -0.23349,0.20788 -0.36183,0.20788 -0.12834,0 -0.29117,-0.0935 -0.36184,-0.20788 z m 3.00767,-1.7441 c 0,-0.0549 0.20836,-0.2633 0.46302,-0.46302 0.41965,-0.3291 0.42901,-0.31975 0.0999,0.0999 -0.34565,0.44073 -0.56292,0.58088 -0.56292,0.36312 z m -40.72494,-4.02319 c 0.01269,-0.30823 0.07539,-0.37092 0.159852,-0.15985 0.07643,0.19099 0.06703,0.4192 -0.02089,0.50711 -0.08792,0.0879 -0.150453,-0.0683 -0.138964,-0.34726 z m 46.54578,-0.21014 c 0,-0.0549 0.20836,-0.263301 0.46302,-0.46302 0.41964,-0.329107 0.429,-0.319749 0.0999,0.0999 -0.34564,0.44073 -0.56291,0.58088 -0.56291,0.36312 z M 69.593521,98.821877 c 0,-0.145521 0.115416,-0.443177 0.25648,-0.661458 0.141065,-0.218281 0.256481,-0.277812 0.256481,-0.132292 0,0.145521 -0.115416,0.443177 -0.256481,0.661459 -0.141064,0.218281 -0.25648,0.277812 -0.25648,0.132291 z m 1.600285,-2.167197 c -0.03018,-0.455317 0.438046,-0.674035 0.663168,-0.30978 0.114113,0.184639 0.07719,0.239158 -0.09141,0.134959 -0.155576,-0.09615 -0.343166,-0.02525 -0.416867,0.157557 -0.09591,0.237898 -0.139939,0.242805 -0.15489,0.01726 z M 89.69375,95.779169 c -0.800364,-0.422832 -1.361953,-0.774402 -1.247975,-0.781267 0.281186,-0.01694 2.835475,1.286733 2.835475,1.447183 0,0.176752 0.0367,0.192146 -1.5875,-0.665916 z M 79.056392,94.125523 c -0.04996,-0.327421 -0.23683,-0.565546 -0.415277,-0.529166 -0.178446,0.03638 -0.324447,-0.09893 -0.324447,-0.300688 0,-0.372724 2.277443,-0.883501 2.581888,-0.579056 0.08368,0.08368 -0.110855,0.15214 -0.432292,0.15214 -0.807619,0 -1.284722,0.517363 -1.146053,1.242762 0.06406,0.335127 0.05135,0.609321 -0.02826,0.609321 -0.0796,0 -0.185607,-0.267891 -0.235564,-0.595313 z m 2.914833,-1.172928 c 0.190996,-0.07643 0.419199,-0.06703 0.507118,0.02089 0.08792,0.08792 -0.06835,0.150452 -0.347266,0.138964 -0.308224,-0.0127 -0.370919,-0.07539 -0.159852,-0.159854 z M 76.72444,89.363024 c 2.575991,-2.641819 2.915144,-2.964482 2.915144,-2.773398 0,0.03898 -1.279922,1.318902 -2.84427,2.844271 l -2.844271,2.773397 z m 14.771784,-6.200011 c 0.190996,-0.07643 0.4192,-0.06703 0.507118,0.02089 0.08792,0.08792 -0.06835,0.150452 -0.347265,0.138964 -0.308225,-0.0127 -0.370919,-0.07539 -0.159853,-0.159852 z m -5.556249,-0.264584 c 0.190996,-0.07643 0.419199,-0.06703 0.507118,0.02089 0.08792,0.08792 -0.06835,0.150453 -0.347266,0.138965 -0.308224,-0.0127 -0.370919,-0.07539 -0.159852,-0.159853 z m 4.233333,0 c 0.190996,-0.07643 0.419199,-0.06703 0.507118,0.02089 0.08792,0.08792 -0.06835,0.150453 -0.347266,0.138965 -0.308224,-0.0127 -0.370919,-0.07539 -0.159852,-0.159853 z"
       id="path2" /><path
       style="display:inline;fill:#ffffff;fill-opacity:1"
       d="m 98.954167,158.56879 c -1.833828,-0.30259 -5.486708,-1.6825 -8.707585,-3.28935 -3.033321,-1.51329 -19.449628,-11.03522 -21.038204,-12.20277 -0.483848,-0.35561 -0.33311,-0.61823 3.012751,-5.24894 1.937145,-2.68103 3.612057,-4.97491 3.722028,-5.09751 0.20773,-0.23158 1.905328,0.70551 11.89851,6.5681 12.029912,7.05747 14.807533,8.25452 21.525723,9.27683 l 1.02051,0.15529 -0.18733,1.4993 c -0.21099,1.68873 -0.73273,3.15903 -1.63671,4.6124 -0.33762,0.54281 -0.61386,1.09594 -0.61386,1.22919 0,0.41872 -2.45117,1.81998 -3.95063,2.25844 -1.339,0.39155 -3.5003,0.49394 -5.045203,0.23902 z m 11.400543,-4.49152 c 0.0216,-0.12213 0.0153,-0.28159 -0.0139,-0.35435 -0.23857,-0.59451 -0.24046,-1.5875 -0.003,-1.5875 0.15909,0 0.20316,-0.1393 0.0979,-0.30955 -0.12788,-0.20692 -0.0481,-0.25461 0.2405,-0.14385 0.23749,0.0911 0.49896,0.057 0.58104,-0.0758 0.0821,-0.13281 0.32334,-0.17467 0.53612,-0.093 0.21279,0.0816 0.30964,0.27344 0.21523,0.4262 -0.0978,0.15829 -0.0452,0.19961 0.12226,0.0961 0.16165,-0.0999 0.22684,-0.35642 0.14486,-0.57005 -0.16739,-0.43621 0.31379,-0.5368 0.5717,-0.1195 0.0914,0.1479 0.27896,0.1992 0.4168,0.11401 0.13784,-0.0852 0.1803,-0.26867 0.0944,-0.40774 -0.0859,-0.13908 -0.0581,-0.23581 0.0618,-0.21497 0.54966,0.0955 0.6513,-0.0611 0.31664,-0.4878 -0.3291,-0.41965 -0.31975,-0.429 0.0999,-0.0999 0.44659,0.35025 0.66916,0.0634 0.26458,-0.34098 -0.36425,-0.36408 -0.25192,-1.50372 0.13363,-1.35577 0.19628,0.0753 0.29902,0.0433 0.2283,-0.0711 -0.0707,-0.11442 -0.0174,-0.38095 0.11855,-0.59228 0.21506,-0.33439 0.28093,-0.33275 0.50766,0.0126 0.16891,0.25731 0.26195,0.28234 0.26458,0.0712 0.002,-0.17913 0.30171,-0.4004 0.66551,-0.4917 0.3638,-0.0913 0.66146,-0.25829 0.66146,-0.37106 0,-0.11277 0.2383,-0.26736 0.52955,-0.34352 0.51738,-0.1353 0.5189,-0.1196 0.0661,0.68318 -0.77251,1.36973 -7.05613,7.38544 -6.92224,6.6271 z m 13.99946,-23.88665 c 0,-9.46745 -0.0229,-17.30283 -0.0509,-17.41197 -0.0548,-0.2138 11.63679,-8.26823 12.00194,-8.26823 0.12087,0 0.21976,7.84067 0.21976,17.42372 v 17.42371 l -5.75469,3.82918 c -3.16508,2.10604 -5.90351,3.91645 -6.08542,4.02314 -0.26318,0.15436 -0.33072,-3.32167 -0.33072,-17.01955 z m -17.378,12.88177 c -0.78906,-0.87656 -0.90214,-1.16753 -0.45373,-1.16753 0.37904,0 1.32343,1.42705 1.09533,1.65514 -0.0587,0.0587 -0.34738,-0.16076 -0.6416,-0.48761 z m 0.32759,-1.58645 c -0.0553,-0.1819 -0.16466,-0.62839 -0.24312,-0.99219 -0.136,-0.63061 -0.12476,-0.6375 0.24106,-0.14787 0.21104,0.28248 0.38372,0.72896 0.38372,0.99219 0,0.54841 -0.23261,0.63853 -0.38166,0.14787 z m -6.53126,-4.36563 c -0.32911,-0.41964 -0.31975,-0.429 0.0999,-0.0999 0.44072,0.34564 0.58088,0.56291 0.36312,0.56291 -0.0549,0 -0.2633,-0.20836 -0.46302,-0.46302 z m 3.33837,-0.0705 c -0.0914,-0.14789 -0.29542,-0.18903 -0.45337,-0.0914 -0.16674,0.10306 -0.21145,0.0549 -0.1066,-0.1147 0.16984,-0.2748 -0.44045,-0.76419 -1.02486,-0.82182 -0.14552,-0.0144 -0.26641,-0.11538 -0.26863,-0.22452 -0.002,-0.10914 -0.11582,-0.37704 -0.25243,-0.59532 -0.1366,-0.21828 0.37124,0.12023 1.12853,0.75225 0.7573,0.63201 1.37691,1.19756 1.37691,1.25677 0,0.20217 -0.23307,0.10811 -0.39955,-0.16125 z M 75.538543,107.95 c 0.263389,-0.29104 0.53842,-0.52916 0.611181,-0.52916 0.07276,0 -0.08321,0.23812 -0.346598,0.52916 -0.263389,0.29104 -0.53842,0.52917 -0.611181,0.52917 -0.07276,0 0.08321,-0.23813 0.346598,-0.52917 z m 25.796877,-5.46139 C 90.966177,95.909741 87.232453,94.00438 82.946876,93.104731 c -2.539301,-0.533062 -4.630208,-0.453698 -4.630208,0.175747 0,0.201499 0.211975,0.310818 0.496456,0.256032 0.443945,-0.0855 0.472598,0.0071 0.270895,0.875088 -0.124058,0.533883 -0.230224,1.387415 -0.235924,1.896738 -0.0078,0.696601 -0.07391,0.82771 -0.266844,0.529166 -0.211182,-0.326781 -0.257196,-0.330675 -0.260532,-0.02205 -0.0022,0.206154 -0.07131,0.307569 -0.153511,0.225367 -0.0822,-0.0822 -0.641335,0.31845 -1.242515,0.890339 -0.601181,0.57189 -1.248299,0.980227 -1.438041,0.907416 -0.189741,-0.07281 -0.344984,-0.01706 -0.344984,0.123897 0,0.140954 -0.0893,0.24218 -0.198438,0.224947 -0.635323,-0.100314 -1.169304,0.133913 -2.282517,1.001212 -0.871262,0.67879 -1.144594,1.03186 -0.910731,1.17639 0.246695,0.15247 0.202885,0.25689 -0.167392,0.39897 -0.275847,0.10586 -0.7282,0.41912 -1.00523,0.69615 -0.277029,0.27703 -0.665618,0.44156 -0.863531,0.36561 -0.198152,-0.076 -0.412943,0.0634 -0.478018,0.31027 -0.065,0.2466 -0.129476,-0.14696 -0.143287,-0.87456 -0.02971,-1.56544 0.877592,-4.307396 2.13015,-6.437484 1.016518,-1.72868 8.355848,-9.374145 10.600154,-11.042303 1.658486,-1.232727 4.085154,-1.967089 6.500164,-1.967089 1.96076,0 6.106119,1.151062 8.883524,2.466731 4.528054,2.14496 21.776144,12.287099 21.421924,12.59642 -0.90333,0.788831 -11.25123,8.220205 -11.44618,8.220105 -0.0871,-4e-5 -2.71815,-1.6242 -5.84684,-3.60923 z M 71.765563,96.479859 c 0.168597,0.104199 0.205524,0.04968 0.09141,-0.134959 -0.225122,-0.364255 -0.69335,-0.145537 -0.663168,0.30978 0.01495,0.225541 0.05898,0.220634 0.15489,-0.01726 0.0737,-0.182807 0.261291,-0.253708 0.416867,-0.157557 z"
       id="path1" /></g></svg>
