<?xml version="1.0" encoding="UTF-8" standalone="no"?>
<!-- Created with Inkscape (http://www.inkscape.org/) -->

<svg
   version="1.1"
   id="svg1"
   width="257.33325"
   height="287.33347"
   viewBox="0 0 257.33325 287.33347"
   xmlns="http://www.w3.org/2000/svg"
   xmlns:svg="http://www.w3.org/2000/svg">
  <defs
     id="defs1" />
  <g
     id="g1623"
     transform="translate(-383.96076,-282.70588)"
     style="display:inline">
    <path
       style="display:inline;fill:#a2a6ab"
       d="m 497.29403,569.37239 0.66667,-0.66667 0.66666,0.66667 0.66667,0.66667 h -1.33333 -1.33334 z m 18,0 0.66667,-0.66667 0.66666,0.66667 0.66667,0.66667 h -1.33333 -1.33334 z m -22.33333,-0.83333 v -0.5 h 0.5 0.5 v 0.5 0.5 h -0.5 -0.5 z m 26,0 v -0.5 h 0.5 0.5 v 0.5 0.5 h -0.5 -0.5 z m -29,-1 v -0.5 h 0.5 0.5 v 0.5 0.5 h -0.5 -0.5 z m 32,0 v -0.5 h 0.5 0.5 v 0.5 0.5 h -0.5 -0.5 z m -35,-1 v -0.5 h 0.5 0.5 v 0.5 0.5 h -0.5 -0.5 z m 37,0 v -0.5 h 0.5 0.5 v 0.5 0.5 h -0.5 -0.5 z m -40,-1 v -0.5 h 0.5 0.5 v 0.5 0.5 h -0.5 -0.5 z m 42,0 v -0.5 h 0.5 0.5 v 0.5 0.5 h -0.5 -0.5 z m -45,-1 v -0.5 h 0.5 0.5 v 0.5 0.5 h -0.5 -0.5 z m -3,-1 v -0.5 h 0.5 0.5 v 0.5 0.5 h -0.5 -0.5 z m 51,0 v -0.5 h 0.5 0.5 v 0.5 0.5 h -0.5 -0.5 z m -53,-1 v -0.5 h 0.5 0.5 v 0.5 0.5 h -0.5 -0.5 z m 56,-1 v -0.5 h 0.5 0.5 v 0.5 0.5 h -0.5 -0.5 z m -61,-1 v -0.5 h 0.5 0.5 v 0.5 0.5 h -0.5 -0.5 z m 63.5,-0.5 0.61803,-1 h 0.5 0.5 l -0.61803,1 -0.61804,1 h -0.5 -0.5 z m -65.5,-0.5 v -0.5 h 0.5 0.5 v 0.5 0.5 h -0.5 -0.5 z m -2,-1 v -0.5 h 0.5 0.5 v 0.5 0.5 h -0.5 -0.5 z m -2,-1 v -0.5 h 0.5 0.5 v 0.5 0.5 h -0.5 -0.5 z m 73.5,-0.5 0.61803,-1 h 0.5 0.5 l -0.61803,1 -0.61804,1 h -0.5 -0.5 z m -80.5,-3.5 v -0.5 h 0.5 0.5 v 0.5 0.5 h -0.5 -0.5 z m -2,-1 v -0.5 h 0.5 0.5 v 0.5 0.5 h -0.5 -0.5 z m -2,-1 v -0.5 h 0.5 0.5 v 0.5 0.5 h -0.5 -0.5 z m 92.5,-1.5 1.80997,-2 h 0.5 0.5 l -1.80997,2 -1.80998,2 h -0.5 -0.5 z m -97.5,-1.5 v -0.5 h 0.5 0.5 v 0.5 0.5 h -0.5 -0.5 z m -2,-1 v -0.5 h 0.5 0.5 v 0.5 0.5 h -0.5 -0.5 z m -5,-3 v -0.5 h 0.5 0.5 v 0.5 0.5 h -0.5 -0.5 z m -2,-1 v -0.5 h 0.5 0.5 v 0.5 0.5 h -0.5 -0.5 z m -3,-2 v -0.5 h 0.5 0.5 v 0.5 0.5 h -0.5 -0.5 z m 122.5,-3.5 3.90589,-4 h 0.5 0.5 l -3.90589,4 -3.9059,4 h -0.5 -0.5 z m -124.5,2.5 v -0.5 h 0.5 0.5 v 0.5 0.5 h -0.5 -0.5 z m -5,-3 v -0.5 h 0.5 0.5 v 0.5 0.5 h -0.5 -0.5 z m -5,-3 v -0.5 h 0.5 0.5 v 0.5 0.5 h -0.5 -0.5 z m -5,-3 v -0.5 h 0.5 0.5 v 0.5 0.5 h -0.5 -0.5 z m -2,-1 v -0.5 h 0.5 0.5 v 0.5 0.5 h -0.5 -0.5 z m 115.33333,-0.16667 0.66667,-0.66667 0.66666,0.66667 0.66667,0.66667 h -1.33333 -1.33334 z m 7.66667,0.16667 v -0.5 h 0.5 0.5 v 0.5 0.5 h -0.5 -0.5 z m 25.5,-0.5 0.61803,-1 h 0.5 0.5 l -0.61803,1 -0.61804,1 h -0.5 -0.5 z m -39.16667,-0.66667 0.66667,-0.66667 0.66666,0.66667 0.66667,0.66667 h -1.33333 -1.33334 z M 414.9607,528.53922 v -0.5 h 0.5 0.5 v 0.5 0.5 h -0.5 -0.5 z m 108,0 v -0.5 h 0.5 0.5 v 0.5 0.5 h -0.5 -0.5 z m -110,-1 v -0.5 h 0.5 0.5 v 0.5 0.5 h -0.5 -0.5 z m 106,0 v -0.5 h 0.5 0.5 v 0.5 0.5 h -0.5 -0.5 z m 75.22987,-61.75 0.22987,-62.25 0.26799,22 0.268,22 0.25213,40.25034 0.25214,40.25035 -0.75,-3.5e-4 -0.75,-3.4e-4 z m -78.22987,60.75 v -0.5 h 0.5 0.5 v 0.5 0.5 h -0.5 -0.5 z m 53,0 v -0.5 h 0.5 0.5 v 0.5 0.5 h -0.5 -0.5 z m -159,-1 v -0.5 h 0.5 0.5 v 0.5 0.5 h -0.5 -0.5 z m 103,0 v -0.5 h 0.5 0.5 v 0.5 0.5 h -0.5 -0.5 z m 85,0 v -0.5 h 0.5 0.5 v 0.5 0.5 h -0.5 -0.5 z m -190,-1 v -0.5 h 0.5 0.5 v 0.5 0.5 h -0.5 -0.5 z m 102,0 v -0.5 h 0.5 0.5 v 0.5 0.5 h -0.5 -0.5 z m 30.07895,-1.08334 0.0789,-1.91666 0.52522,1.3125 0.52522,1.3125 -0.60417,0.60416 -0.60416,0.60417 z m 29.92105,1.08334 v -0.5 h 0.5 0.5 v 0.5 0.5 h -0.5 -0.5 z m -62,-1 v -0.5 h 0.5 0.5 v 0.5 0.5 h -0.5 -0.5 z m 93,0 v -0.5 h 0.5 0.5 v 0.5 0.5 h -0.5 -0.5 z m -196,-1 v -0.5 h 0.5 0.5 v 0.5 0.5 h -0.5 -0.5 z m 100,0 v -0.5 h 0.5 0.5 v 0.5 0.5 h -0.5 -0.5 z m 66,0 v -0.5 h 0.5 0.5 v 0.5 0.5 h -0.5 -0.5 z m -168,-1 v -0.5 h 0.5 0.5 v 0.5 0.5 h -0.5 -0.5 z m 100,0 v -0.5 h 0.5 0.5 v 0.5 0.5 h -0.5 -0.5 z m 27,0 v -0.5 h 0.5 0.5 v 0.5 0.5 h -0.5 -0.5 z m 74,0 v -0.5 h 0.5 0.5 v 0.5 0.5 h -0.5 -0.5 z m -103,-1 v -0.5 h 0.5 0.5 v 0.5 0.5 h -0.5 -0.5 z m 25.33333,-0.16667 0.66667,-0.66667 0.66666,0.66667 0.66667,0.66667 h -1.33333 -1.33334 z m 45.66667,0.16667 v -0.5 h 0.5 0.5 v 0.5 0.5 h -0.5 -0.5 z m -172,-1 v -0.5 h 0.5 0.5 v 0.5 0.5 h -0.5 -0.5 z m 99,0 v -0.5 h 0.5 0.5 v 0.5 0.5 h -0.5 -0.5 z m 24.33333,-0.16667 0.66667,-0.66667 0.66666,0.66667 0.66667,0.66667 h -1.33333 -1.33334 z m 83.66667,0.16667 v -0.5 h 0.5 0.5 v 0.5 0.5 h -0.5 -0.5 z m -209,-1 v -0.5 h 0.5 0.5 v 0.5 0.5 h -0.5 -0.5 z m 122.33333,-0.16667 0.66667,-0.66667 0.66666,0.66667 0.66667,0.66667 h -1.33333 -1.33334 z m 18.66667,-0.33333 v -1.33334 l 0.66666,0.66667 0.66667,0.66667 -0.66667,0.66666 -0.66666,0.66667 z m 34,0.5 v -0.5 h 0.5 0.5 v 0.5 0.5 h -0.5 -0.5 z m -55.66667,-1.16667 0.66667,-0.66667 0.66666,0.66667 0.66667,0.66667 h -1.33333 -1.33334 z m 92.66667,0.16667 v -0.5 h 0.5 0.5 v 0.5 0.5 h -0.5 -0.5 z m -117,-1 v -0.5 h 0.5 0.5 v 0.5 0.5 h -0.5 -0.5 z m 22,0 v -0.5 h 0.5 0.5 v 0.5 0.5 h -0.5 -0.5 z m -122,-1 v -0.5 h 0.5 0.5 v 0.5 0.5 h -0.5 -0.5 z m 98,0 v -0.5 h 0.5 0.5 v 0.5 0.5 h -0.5 -0.5 z m 21,0 v -0.5 h 0.5 0.5 v 0.5 0.5 h -0.5 -0.5 z m 62,0 v -0.5 h 0.5 0.5 v 0.5 0.5 h -0.5 -0.5 z m 39,0 v -0.5 h 0.5 0.5 v 0.5 0.5 h -0.5 -0.5 z m -222,-1 v -0.5 h 0.5 0.5 v 0.5 0.5 h -0.5 -0.5 z m 98,0 v -0.5 h 0.5 0.5 v 0.5 0.5 h -0.5 -0.5 z m 21,0 v -0.5 h 0.5 0.5 v 0.5 0.5 h -0.5 -0.5 z m 28,0 v -0.5 h 0.5 0.5 v 0.5 0.5 h -0.5 -0.5 z m 77.5,-0.5 0.61803,-1 h 0.5 0.5 l -0.61803,1 -0.61804,1 h -0.5 -0.5 z m -128.5,-0.5 v -0.5 h 0.5 0.5 v 0.5 0.5 h -0.5 -0.5 z m 20.33333,-0.16667 0.66667,-0.66667 0.66666,0.66667 0.66667,0.66667 h -1.33333 -1.33334 z M 387.9607,512.53922 v -0.5 h 0.5 0.5 v 0.5 0.5 h -0.5 -0.5 z m 97,0 v -0.5 h 0.5 0.5 v 0.5 0.5 h -0.5 -0.5 z m 20,0 v -0.5 h 0.5 0.5 v 0.5 0.5 h -0.5 -0.5 z m 70,0 v -0.5 h 0.5 0.5 v 0.5 0.5 h -0.5 -0.5 z m 43.5,-0.5 0.61803,-1 h 0.5 0.5 l -0.61803,1 -0.61804,1 h -0.5 -0.5 z m -232.5,-0.5 v -0.5 h 0.5 0.5 v 0.5 0.5 h -0.5 -0.5 z m 117,0 v -0.5 h 0.5 0.5 v 0.5 0.5 h -0.5 -0.5 z m 30.15789,-1.5 v -2.5 l 0.50439,1.25 0.50438,1.25 -0.50438,1.25 -0.50439,1.25 z m 3.84211,1.5 v -0.5 h 0.5 0.5 v 0.5 0.5 h -0.5 -0.5 z m -36,-1 v -0.5 h 0.5 0.5 v 0.5 0.5 h -0.5 -0.5 z m -5.25,-2.07198 -2.75,-1.4919 v -0.49374 -0.49374 l 3.25,1.65285 3.25,1.65286 0.41666,0.37282 0.41667,0.37283 -0.91667,-0.04 -0.91666,-0.04 z m 40.25,1.07198 v -0.5 h 0.5 0.5 v 0.5 0.5 h -0.5 -0.5 z m 86,0 v -0.5 h 0.5 0.5 v 0.5 0.5 h -0.5 -0.5 z m -144,-1 v -0.5 h 0.5 0.5 v 0.5 0.5 h -0.5 -0.5 z m 98,-0.5 v -1.33334 l 0.66666,0.66667 0.66667,0.66667 -0.66667,0.66666 -0.66666,0.66667 z m -191,-0.5 v -0.5 h 0.5 0.5 v 0.5 0.5 h -0.5 -0.5 z m 91,0 v -0.5 h 0.5 0.5 v 0.5 0.5 h -0.5 -0.5 z m 149,0 v -0.5 h 0.5 0.5 v 0.5 0.5 h -0.5 -0.5 z m -90,-1 v -0.5 h 0.5 0.5 v 0.5 0.5 h -0.5 -0.5 z m -44,-1 v -0.5 h 0.5 0.5 v 0.5 0.5 h -0.5 -0.5 z m 137,0 v -0.5 h 0.5 0.5 v 0.5 0.5 h -0.5 -0.5 z m -157,-1 v -0.5 h 0.5 0.5 v 0.5 0.5 h -0.5 -0.5 z m 18,0 v -0.5 h 0.5 0.5 v 0.5 0.5 h -0.5 -0.5 z m 43.45734,-2.58249 -1.59401,-3.08249 -7.68167,-8.05005 -7.68166,-8.05006 -13.5,-8.95286 -13.5,-8.95286 -0.53273,19.3354 -0.53274,19.33541 -0.21726,-19.66394 -0.21727,-19.66393 -6.75,-3.75192 -6.75,-3.75191 -16,-9.48876 -16,-9.48876 -10.5,-7.08682 -10.5,-7.08683 -8.81665,-8.46539 -8.81665,-8.46538 -3.49936,-4.76708 -3.49935,-4.76707 3.26401,-4.77611 3.264,-4.7761 5.2868,-5.19151 5.2868,-5.1915 4.54363,-3.1261 4.54364,-3.1261 5.22401,-2.31031 5.22402,-2.31031 5.49835,6.58392 5.49835,6.58392 7.22064,6.05213 7.22065,6.05212 10.27855,6.09214 10.27856,6.09214 23.63369,13.65756 23.63369,13.65756 7.86631,5.13381 7.86631,5.13382 7.34506,6.00027 7.34507,6.00027 5.15493,6.26917 5.15494,6.26918 1.89395,3.23689 1.89395,3.2369 -1.13729,-0.70289 -1.1373,-0.70289 0.19695,2.37965 0.19694,2.37964 -3.4536,4.14711 -3.4536,4.14712 -6.63666,5.21212 -6.63666,5.21213 -6.86334,4.2268 -6.86334,4.2268 0.25,1.08922 0.25,1.08922 h -0.47432 -0.47432 z m 31.54266,-24.41751 v -0.5 h -0.5 -0.5 v 0.5 0.5 h 0.5 0.5 z m 3.5,-2.5 0.61803,-1 h -0.5 -0.5 l -0.61803,1 -0.61804,1 h 0.5 0.5 z m -169.5,-78.5 v -0.5 h -0.5 -0.5 v 0.5 0.5 h 0.5 0.5 z m 9,-9 v -0.5 h -0.5 -0.5 v 0.5 0.5 h 0.5 0.5 z m 2,-2 v -0.5 h -0.5 -0.5 v 0.5 0.5 h 0.5 0.5 z m 2,-2 v -0.5 h -0.5 -0.5 v 0.5 0.5 h 0.5 0.5 z m 2,-2 v -0.5 h -0.5 -0.5 v 0.5 0.5 h 0.5 0.5 z m 3.5,-2.5 0.61803,-1 h -0.5 -0.5 l -0.61803,1 -0.61804,1 h 0.5 0.5 z m -28.5,124.5 v -0.5 h 0.5 0.5 v 0.5 0.5 h -0.5 -0.5 z m 81,0 v -0.5 h 0.5 0.5 v 0.5 0.5 h -0.5 -0.5 z m 162,0 v -0.5 h 0.5 0.5 v 0.5 0.5 h -0.5 -0.5 z m -53.72764,-4.5 v -4.5 l 0.43337,2.25 0.43337,2.25 -0.43337,2.25 -0.43337,2.25 z m -111.27236,2.5 v -0.5 h 0.5 0.5 v 0.5 0.5 h -0.5 -0.5 z m 168,0 v -0.5 h 0.5 0.5 v 0.5 0.5 h -0.5 -0.5 z m -244,-1 v -0.5 h 0.5 0.5 v 0.5 0.5 h -0.5 -0.5 z m 74,0 v -0.5 h 0.5 0.5 v 0.5 0.5 h -0.5 -0.5 z m 173,-1 v -0.5 h 0.5 0.5 v 0.5 0.5 h -0.5 -0.5 z m -178,-2 v -0.5 h 0.5 0.5 v 0.5 0.5 h -0.5 -0.5 z m 181,0 v -0.5 h 0.5 0.5 v 0.5 0.5 h -0.5 -0.5 z m -247,-1 v -0.5 h 0.5 0.5 v 0.5 0.5 h -0.5 -0.5 z m 64,0 v -0.5 h 0.5 0.5 v 0.5 0.5 h -0.5 -0.5 z m -3,-2 v -0.5 h 0.5 0.5 v 0.5 0.5 h -0.5 -0.5 z m -2,-1 v -0.5 h 0.5 0.5 v 0.5 0.5 h -0.5 -0.5 z m -56,-1 v -0.5 h 0.5 0.5 v 0.5 0.5 h -0.5 -0.5 z m 53,-1 v -0.5 h 0.5 0.5 v 0.5 0.5 h -0.5 -0.5 z m -2,-1 v -0.5 h 0.5 0.5 v 0.5 0.5 h -0.5 -0.5 z m 129.07895,-1.08334 0.0789,-1.91666 0.52522,1.3125 0.52522,1.3125 -0.60417,0.60416 -0.60416,0.60417 z m -177.57895,-0.41666 0.61803,-1 h 0.5 0.5 l -0.61803,1 -0.61804,1 h -0.5 -0.5 z m 45.5,-0.5 v -0.5 h 0.5 0.5 v 0.5 0.5 h -0.5 -0.5 z m -2,-1 v -0.5 h 0.5 0.5 v 0.5 0.5 h -0.5 -0.5 z m -41,-2 v -0.5 h 0.5 0.5 v 0.5 0.5 h -0.5 -0.5 z m 174,0 v -0.5 h 0.5 0.5 v 0.5 0.5 h -0.5 -0.5 z m -138,-1 v -0.5 h 0.5 0.5 v 0.5 0.5 h -0.5 -0.5 z m -2,-1 v -0.5 h 0.5 0.5 v 0.5 0.5 h -0.5 -0.5 z m 139,-1 v -0.5 h 0.5 0.5 v 0.5 0.5 h -0.5 -0.5 z m -170,-1 v -0.5 h 0.5 0.5 v 0.5 0.5 h -0.5 -0.5 z m 28,0 v -0.5 h 0.5 0.5 v 0.5 0.5 h -0.5 -0.5 z m -2,-1 v -0.5 h 0.5 0.5 v 0.5 0.5 h -0.5 -0.5 z m -2,-1 v -0.5 h 0.5 0.5 v 0.5 0.5 h -0.5 -0.5 z m 145,0 v -0.5 h 0.5 0.5 v 0.5 0.5 h -0.5 -0.5 z m -167,-1 v -0.5 h 0.5 0.5 v 0.5 0.5 h -0.5 -0.5 z m 19,-1 v -0.5 h 0.5 0.5 v 0.5 0.5 h -0.5 -0.5 z m 147,0 v -0.5 h 0.5 0.5 v 0.5 0.5 h -0.5 -0.5 z m -149,-1 v -0.5 h 0.5 0.5 v 0.5 0.5 h -0.5 -0.5 z m -14,-2 v -0.5 h 0.5 0.5 v 0.5 0.5 h -0.5 -0.5 z m 9,-1 v -0.5 h 0.5 0.5 v 0.5 0.5 h -0.5 -0.5 z m 152,0 v -0.5 h 0.5 0.5 v 0.5 0.5 h -0.5 -0.5 z m -154,-1 v -0.5 h 0.5 0.5 v 0.5 0.5 h -0.5 -0.5 z m -5,-1 v -0.5 h 0.5 0.5 v 0.5 0.5 h -0.5 -0.5 z m 3,0 v -0.5 h 0.5 0.5 v 0.5 0.5 h -0.5 -0.5 z m 118,-46 v -0.5 h 0.5 0.5 v 0.5 0.5 h -0.5 -0.5 z m -2,-1 v -0.5 h 0.5 0.5 v 0.5 0.5 h -0.5 -0.5 z m -3,-2 v -0.5 h 0.5 0.5 v 0.5 0.5 h -0.5 -0.5 z m -2,-1 v -0.5 h 0.5 0.5 v 0.5 0.5 h -0.5 -0.5 z m -2.59549,-1.65451 -0.71353,-1.15451 1.15451,0.71352 1.15451,0.71353 v 0.44098 0.44099 h -0.44098 -0.44099 z m -2.40451,-1.34549 v -0.5 h 0.5 0.5 v 0.5 0.5 h -0.5 -0.5 z m -2.59549,-1.65451 -0.71353,-1.15451 1.15451,0.71352 1.15451,0.71353 v 0.44098 0.44099 h -0.44098 -0.44099 z m -2.40451,-1.34549 v -0.5 h 0.5 0.5 v 0.5 0.5 h -0.5 -0.5 z m -2.59549,-1.65451 -0.71353,-1.15451 1.15451,0.71352 1.15451,0.71353 v 0.44098 0.44099 h -0.44098 -0.44099 z m 55.09549,0.15451 0.61803,-1 h 0.5 0.5 l -0.61803,1 -0.61804,1 h -0.5 -0.5 z m -57.5,-1.5 v -0.5 h 0.5 0.5 v 0.5 0.5 h -0.5 -0.5 z m 60.5,-0.5 0.61803,-1 h 0.5 0.5 l -0.61803,1 -0.61804,1 h -0.5 -0.5 z m -63.09549,-1.15451 -0.71353,-1.15451 1.15451,0.71352 1.15451,0.71353 v 0.44098 0.44099 h -0.44098 -0.44099 z m 66.09549,-0.84549 0.61803,-1 h 0.5 0.5 l -0.61803,1 -0.61804,1 h -0.5 -0.5 z m -69.09549,-1.15451 -0.71353,-1.15451 1.15451,0.71352 1.15451,0.71353 v 0.44098 0.44099 h -0.44098 -0.44099 z m 52.04844,-3.09549 -3.95295,-4.25 4.25,3.95294 4.25,3.95295 v 0.29705 0.29706 h -0.29705 -0.29706 z m 19.54705,2.87244 v -0.37755 l 1.75,-1.37245 1.75,-1.37244 -1.37245,1.75 -1.37244,1.75 h -0.37756 -0.37755 z m -74,-1.12244 v -0.5 h 0.5 0.5 v 0.5 0.5 h -0.5 -0.5 z m -2.59549,-1.65451 -0.71353,-1.15451 1.15451,0.71352 1.15451,0.71353 v 0.44098 0.44099 h -0.44098 -0.44099 z m 81.09549,-0.84549 0.61803,-1 h 0.5 0.5 l -0.61803,1 -0.61804,1 h -0.5 -0.5 z m -83.5,-0.5 v -0.5 h 0.5 0.5 v 0.5 0.5 h -0.5 -0.5 z m -2.59549,-1.65451 -0.71353,-1.15451 1.15451,0.71352 1.15451,0.71353 v 0.44098 0.44099 h -0.44098 -0.44099 z m 89.09549,0.15451 0.61803,-1 h 0.5 0.5 l -0.61803,1 -0.61804,1 h -0.5 -0.5 z m -91.5,-1.5 v -0.5 h 0.5 0.5 v 0.5 0.5 h -0.5 -0.5 z m 94.5,-0.5 0.61803,-1 h 0.5 0.5 l -0.61803,1 -0.61804,1 h -0.5 -0.5 z m -97.09549,-1.15451 -0.71353,-1.15451 1.15451,0.71352 1.15451,0.71353 v 0.44098 0.44099 h -0.44098 -0.44099 z m 100.09549,-0.84549 0.61803,-1 h 0.5 0.5 l -0.61803,1 -0.61804,1 h -0.5 -0.5 z m -102.27055,-21.75 -0.22945,-22.25 h 0.94098 0.94098 l 0.71353,1.1545 0.71353,1.15451 -1.13488,-0.70139 -1.13488,-0.70139 -0.29017,21.79688 -0.29018,21.79689 z m 105.27055,19.75 0.61803,-1 h 0.5 0.5 l -0.61803,1 -0.61804,1 h -0.5 -0.5 z m -198.5,-2.5 v -0.5 h 0.5 0.5 v 0.5 0.5 h -0.5 -0.5 z m -1,-2 v -0.5 h 0.5 0.5 v 0.5 0.5 h -0.5 -0.5 z m -1,-2 v -0.5 h 0.5 0.5 v 0.5 0.5 h -0.5 -0.5 z m -1,-2 v -0.5 h 0.5 0.5 v 0.5 0.5 h -0.5 -0.5 z m -1,-2 v -0.5 h 0.5 0.5 v 0.5 0.5 h -0.5 -0.5 z m 145.52134,-1.47642 -1.78864,-1.97642 -0.79725,0.49273 -0.79726,0.49273 -0.58338,-0.94394 -0.58339,-0.94394 2.26429,-2.37138 2.26429,-2.37138 -1.42058,1.81624 -1.42059,1.81624 2.85768,2.98277 2.85767,2.98277 h -0.5321 -0.53211 z m -2.52134,-2.52358 v -0.5 h -0.5 -0.5 v 0.5 0.5 h 0.5 0.5 z m -144,1.5 v -1.33334 l 0.66666,0.66667 0.66667,0.66667 -0.66667,0.66666 -0.66666,0.66667 z m -1,-2.5 v -0.5 h 0.5 0.5 v 0.5 0.5 h -0.5 -0.5 z m 139.44113,-1.05517 -1.94113,-1.55517 2.25,1.09035 2.25,1.09035 v 0.46482 0.46482 h -0.30887 -0.30887 z M 386.9607,378.03922 v -1.33334 l 0.66666,0.66667 0.66667,0.66667 -0.66667,0.66666 -0.66666,0.66667 z m 136.40451,-0.15451 -0.71353,-1.15451 1.15451,0.71352 1.15451,0.71353 v 0.44098 0.44099 h -0.44098 -0.44099 z m -3,-2 -0.71353,-1.15451 1.15451,0.71352 1.15451,0.71353 v 0.44098 0.44099 h -0.44098 -0.44099 z m 16.59549,0.77695 v -0.37755 l 1.75,-1.37245 1.75,-1.37244 -1.37245,1.75 -1.37244,1.75 h -0.37756 -0.37755 z m -151,-2.62244 v -1.33334 l 0.66666,0.66667 0.66667,0.66667 -0.66667,0.66666 -0.66666,0.66667 z m 132,0.5 v -0.5 h 0.5 0.5 v 0.5 0.5 h -0.5 -0.5 z m -2.59549,-1.65451 -0.71353,-1.15451 1.15451,0.71352 1.15451,0.71353 v 0.44098 0.44099 h -0.44098 -0.44099 z m 26.09549,0.15451 0.61803,-1 h 0.5 0.5 l -0.61803,1 -0.61804,1 h -0.5 -0.5 z m -29.09549,-2.15451 -0.71353,-1.15451 1.15451,0.71352 1.15451,0.71353 v 0.44098 0.44099 h -0.44098 -0.44099 z m 16.92882,0.48784 0.66667,-0.66667 0.66666,0.66667 0.66667,0.66667 h -1.33333 -1.33334 z m 15.66667,-0.83333 v -0.5 h 0.5 0.5 v 0.5 0.5 h -0.5 -0.5 z m -35,-1 v -0.5 h 0.5 0.5 v 0.5 0.5 h -0.5 -0.5 z m 16,0 v -0.5 h 0.5 0.5 v 0.5 0.5 h -0.5 -0.5 z m 7,0 v -0.5 h 0.5 0.5 v 0.5 0.5 h -0.5 -0.5 z m -147.84211,-2.5 v -2.5 l 0.50439,1.25 0.50438,1.25 -0.50438,1.25 -0.50439,1.25 z m 122.24662,0.84549 -0.71353,-1.15451 1.15451,0.71352 1.15451,0.71353 v 0.44098 0.44099 h -0.44098 -0.44099 z m 16.59549,0.65451 v -0.5 h 0.5 0.5 v 0.5 0.5 h -0.5 -0.5 z m 24.5,-0.5 0.61803,-1 h 0.5 0.5 l -0.61803,1 -0.61804,1 h -0.5 -0.5 z m -12,-1 0.61803,-1 h 0.5 0.5 l -0.61803,1 -0.61804,1 h -0.5 -0.5 z m -32.09549,-1.15451 -0.71353,-1.15451 1.15451,0.71352 1.15451,0.71353 v 0.44098 0.44099 h -0.44098 -0.44099 z m 16.59549,0.65451 v -0.5 h 0.5 0.5 v 0.5 0.5 h -0.5 -0.5 z m 30.5,-0.5 0.61803,-1 h 0.5 0.5 l -0.61803,1 -0.61804,1 h -0.5 -0.5 z m -120.5,-1.5 v -0.5 h 0.5 0.5 v 0.5 0.5 h -0.5 -0.5 z m 71,0 v -0.5 h 0.5 0.5 v 0.5 0.5 h -0.5 -0.5 z m 16,0 v -0.5 h 0.5 0.5 v 0.5 0.5 h -0.5 -0.5 z m 22,0 v -0.5 h 0.5 0.5 v 0.5 0.5 h -0.5 -0.5 z m 14.5,-0.5 0.61803,-1 h 0.5 0.5 l -0.61803,1 -0.61804,1 h -0.5 -0.5 z m -55.09549,-1.15451 -0.71353,-1.15451 1.15451,0.71352 1.15451,0.71353 v 0.44098 0.44099 h -0.44098 -0.44099 z m 140.59549,0.65451 v -0.5 h 0.5 0.5 v 0.5 0.5 h -0.5 -0.5 z m -210,-1 v -0.5 h 0.5 0.5 v 0.5 0.5 h -0.5 -0.5 z m 66.40451,-1.65451 -0.71353,-1.15451 1.15451,0.71352 1.15451,0.71353 v 0.44098 0.44099 h -0.44098 -0.44099 z m 16.59549,0.65451 v -0.5 h 0.5 0.5 v 0.5 0.5 h -0.5 -0.5 z m 31,0 v -0.5 h 0.5 0.5 v 0.5 0.5 h -0.5 -0.5 z m 14.5,-0.5 0.61803,-1 h 0.5 0.5 l -0.61803,1 -0.61804,1 h -0.5 -0.5 z m 81.73405,-27.30902 -0.23405,-28.80902 -1.25,0.70572 -1.25,0.70572 1.23333,-1.33003 1.23333,-1.33004 0.53226,0.53225 0.53225,0.53225 -0.28154,28.90108 -0.28153,28.90109 z M 428.9607,360.53922 v -0.5 h 0.5 0.5 v 0.5 0.5 h -0.5 -0.5 z m 65,-1 v -0.5 h 0.5 0.5 v 0.5 0.5 h -0.5 -0.5 z m 16,0 v -0.5 h 0.5 0.5 v 0.5 0.5 h -0.5 -0.5 z m 37,0 v -0.5 h 0.5 0.5 v 0.5 0.5 h -0.5 -0.5 z m 14.5,-0.5 0.61803,-1 h 0.5 0.5 l -0.61803,1 -0.61804,1 h -0.5 -0.5 z m -133.5,-0.5 v -0.5 h 0.5 0.5 v 0.5 0.5 h -0.5 -0.5 z m 63.40451,-0.65451 -0.71353,-1.15451 1.15451,0.71352 1.15451,0.71353 v 0.44098 0.44099 h -0.44098 -0.44099 z m 15.59549,-0.34549 v -0.5 h 0.5 0.5 v 0.5 0.5 h -0.5 -0.5 z m -80,-1 v -0.5 h 0.5 0.5 v 0.5 0.5 h -0.5 -0.5 z m 124,0 v -0.5 h 0.5 0.5 v 0.5 0.5 h -0.5 -0.5 z m 14.5,-0.5 0.61803,-1 h 0.5 0.5 l -0.61803,1 -0.61804,1 h -0.5 -0.5 z m -61.5,-0.5 v -0.5 h 0.5 0.5 v 0.5 0.5 h -0.5 -0.5 z m -78,-1 v -0.5 h 0.5 0.5 v 0.5 0.5 h -0.5 -0.5 z m 128.5,-0.5 0.61803,-1 h 0.5 0.5 l -0.61803,1 -0.61804,1 h -0.5 -0.5 z m -169.5,-1 v -1.33334 l 0.66666,0.66667 0.66667,0.66667 -0.66667,0.66666 -0.66666,0.66667 z m 116,0.5 v -0.5 h 0.5 0.5 v 0.5 0.5 h -0.5 -0.5 z m 68,0 v -0.5 h 0.5 0.5 v 0.5 0.5 h -0.5 -0.5 z m -70,-1 v -0.5 h 0.5 0.5 v 0.5 0.5 h -0.5 -0.5 z m -74,-1 v -0.5 h 0.5 0.5 v 0.5 0.5 h -0.5 -0.5 z m 133,0 v -0.5 h 0.5 0.5 v 0.5 0.5 h -0.5 -0.5 z m 14.5,-0.5 0.61803,-1 h 0.5 0.5 l -0.61803,1 -0.61804,1 h -0.5 -0.5 z m -76.5,-0.5 v -0.5 h 0.5 0.5 v 0.5 0.5 h -0.5 -0.5 z m 79.5,-1.5 0.61803,-1 h 0.5 0.5 l -0.61803,1 -0.61804,1 h -0.5 -0.5 z m -189.5,-1 v -1.33334 l 0.66666,0.66667 0.66667,0.66667 -0.66667,0.66666 -0.66666,0.66667 z m 107,0.5 v -0.5 h 0.5 0.5 v 0.5 0.5 h -0.5 -0.5 z m 69,0 v -0.5 h 0.5 0.5 v 0.5 0.5 h -0.5 -0.5 z m -138,-1 v -0.5 h 0.5 0.5 v 0.5 0.5 h -0.5 -0.5 z m 67,0 v -0.5 h 0.5 0.5 v 0.5 0.5 h -0.5 -0.5 z m 88.5,-1.5 0.61803,-1 h 0.5 0.5 l -0.61803,1 -0.61804,1 h -0.5 -0.5 z m -91.5,-0.5 v -0.5 h 0.5 0.5 v 0.5 0.5 h -0.5 -0.5 z m 78,0 v -0.5 h 0.5 0.5 v 0.5 0.5 h -0.5 -0.5 z m -179,-1 v -0.5 h 0.5 0.5 v 0.5 0.5 h -0.5 -0.5 z m 195.5,-0.5 0.61803,-1 h 0.5 0.5 l -0.61803,1 -0.61804,1 h -0.5 -0.5 z m -194.5,-1.5 v -0.5 h 0.5 0.5 v 0.5 0.5 h -0.5 -0.5 z m 35.28601,-4 0.0136,-5 0.41792,2.76375 0.41792,2.76375 -0.43157,2.23625 -0.43157,2.23625 z m 59.71399,4 v -0.5 h 0.5 0.5 v 0.5 0.5 h -0.5 -0.5 z m 87,0 v -0.5 h 0.5 0.5 v 0.5 0.5 h -0.5 -0.5 z m 15.5,-0.5 0.61803,-1 h 0.5 0.5 l -0.61803,1 -0.61804,1 h -0.5 -0.5 z m -12.5,-1.5 v -0.5 h 0.5 0.5 v 0.5 0.5 h -0.5 -0.5 z m -95,-1 v -0.5 h 0.5 0.5 v 0.5 0.5 h -0.5 -0.5 z m 111.5,-0.5 0.61803,-1 h 0.5 0.5 l -0.61803,1 -0.61804,1 h -0.5 -0.5 z m -113.5,-0.5 v -0.5 h 0.5 0.5 v 0.5 0.5 h -0.5 -0.5 z m 97,0 v -0.5 h 0.5 0.5 v 0.5 0.5 h -0.5 -0.5 z m -183,-1 v -0.5 h 0.5 0.5 v 0.5 0.5 h -0.5 -0.5 z m 180,-1 v -0.5 h 0.5 0.5 v 0.5 0.5 h -0.5 -0.5 z m 23,0 v -0.5 h 0.5 0.5 v 0.5 0.5 h -0.5 -0.5 z m -122,-1 v -0.5 h 0.5 0.5 v 0.5 0.5 h -0.5 -0.5 z m -79,-1 v -0.5 h 0.5 0.5 v 0.5 0.5 h -0.5 -0.5 z m 77,0 v -0.5 h 0.5 0.5 v 0.5 0.5 h -0.5 -0.5 z m 98,0 v -0.5 h 0.5 0.5 v 0.5 0.5 h -0.5 -0.5 z m 29.5,-0.5 0.61803,-1 h 0.5 0.5 l -0.61803,1 -0.61804,1 h -0.5 -0.5 z m -129.5,-0.5 v -0.5 h 0.5 0.5 v 0.5 0.5 h -0.5 -0.5 z m 98,0 v -0.5 h 0.5 0.5 v 0.5 0.5 h -0.5 -0.5 z m -172,-1 v -0.5 h 0.5 0.5 v 0.5 0.5 h -0.5 -0.5 z m 72,0 v -0.5 h 0.5 0.5 v 0.5 0.5 h -0.5 -0.5 z m 134.5,-0.5 0.61803,-1 h 0.5 0.5 l -0.61803,1 -0.61804,1 h -0.5 -0.5 z m -136.5,-0.5 v -0.5 h 0.5 0.5 v 0.5 0.5 h -0.5 -0.5 z m 99,0 v -0.5 h 0.5 0.5 v 0.5 0.5 h -0.5 -0.5 z m -101,-1 v -0.5 h 0.5 0.5 v 0.5 0.5 h -0.5 -0.5 z m 99,0 v -0.5 h 0.5 0.5 v 0.5 0.5 h -0.5 -0.5 z m 42.5,-0.5 0.61803,-1 h 0.5 0.5 l -0.61803,1 -0.61804,1 h -0.5 -0.5 z m -207.5,-0.5 v -0.5 h 0.5 0.5 v 0.5 0.5 h -0.5 -0.5 z m 64,0 v -0.5 h 0.5 0.5 v 0.5 0.5 h -0.5 -0.5 z m -34.92105,-2.08334 0.0789,-1.91666 0.52522,1.3125 0.52522,1.3125 -0.60417,0.60416 -0.60416,0.60417 z m 32.92105,1.08334 v -0.5 h 0.5 0.5 v 0.5 0.5 h -0.5 -0.5 z m 100,0 v -0.5 h 0.5 0.5 v 0.5 0.5 h -0.5 -0.5 z m -102,-1 v -0.5 h 0.5 0.5 v 0.5 0.5 h -0.5 -0.5 z m 100,0 v -0.5 h 0.5 0.5 v 0.5 0.5 h -0.5 -0.5 z m 51,0 v -0.5 h 0.5 0.5 v 0.5 0.5 h -0.5 -0.5 z m -154,-1 v -0.5 h 0.5 0.5 v 0.5 0.5 h -0.5 -0.5 z m -54,-1 v -0.5 h 0.5 0.5 v 0.5 0.5 h -0.5 -0.5 z m 52,0 v -0.5 h 0.5 0.5 v 0.5 0.5 h -0.5 -0.5 z m 159.5,-0.5 0.61803,-1 h 0.5 0.5 l -0.61803,1 -0.61804,1 h -0.5 -0.5 z m -162.5,-0.5 v -0.5 h 0.5 0.5 v 0.5 0.5 h -0.5 -0.5 z m 103,0 v -0.5 h 0.5 0.5 v 0.5 0.5 h -0.5 -0.5 z m -125,-1.5 v -1.33334 l 0.66666,0.66667 0.66667,0.66667 -0.66667,0.66666 -0.66666,0.66667 z m 18,0.5 v -0.5 h 0.5 0.5 v 0.5 0.5 h -0.5 -0.5 z m 105,0 v -0.5 h 0.5 0.5 v 0.5 0.5 h -0.5 -0.5 z m 64.5,-0.5 0.61803,-1 h 0.5 0.5 l -0.61803,1 -0.61804,1 h -0.5 -0.5 z m -173.16667,-0.66667 0.66667,-0.66667 0.66666,0.66667 0.66667,0.66667 h -1.33333 -1.33334 z m -6,-1 0.66667,-0.66667 0.66666,0.66667 0.66667,0.66667 h -1.33333 -1.33334 z m 111.66667,0.16667 v -0.5 h 0.5 0.5 v 0.5 0.5 h -0.5 -0.5 z m 70.5,-0.5 0.61803,-1 h 0.5 0.5 l -0.61803,1 -0.61804,1 h -0.5 -0.5 z m -72.5,-0.5 v -0.5 h 0.5 0.5 v 0.5 0.5 h -0.5 -0.5 z m -127.5,-13.5 12.97114,-13 h 0.5 0.5 l -12.97114,13 -12.97115,13 h -0.5 -0.5 z m 124.5,11.5 v -0.5 h 0.5 0.5 v 0.5 0.5 h -0.5 -0.5 z m 79.5,-0.5 0.61803,-1 h 0.5 0.5 l -0.61803,1 -0.61804,1 h -0.5 -0.5 z m -81.5,-0.5 v -0.5 h 0.5 0.5 v 0.5 0.5 h -0.5 -0.5 z m 84.5,-1.5 0.61803,-1 h 0.5 0.5 l -0.61803,1 -0.61804,1 h -0.5 -0.5 z m -89.5,-1.5 v -0.5 h 0.5 0.5 v 0.5 0.5 h -0.5 -0.5 z m 92.5,-0.5 0.61803,-1 h 0.5 0.5 l -0.61803,1 -0.61804,1 h -0.5 -0.5 z m -94.5,-0.5 v -0.5 h 0.5 0.5 v 0.5 0.5 h -0.5 -0.5 z m -3,-2 v -0.5 h 0.5 0.5 v 0.5 0.5 h -0.5 -0.5 z m 101,0 v -0.5 h 0.5 0.5 v 0.5 0.5 h -0.5 -0.5 z m -103,-1 v -0.5 h 0.5 0.5 v 0.5 0.5 h -0.5 -0.5 z m -2,-1 v -0.5 h 0.5 0.5 v 0.5 0.5 h -0.5 -0.5 z m 108,0 v -0.5 h 0.5 0.5 v 0.5 0.5 h -0.5 -0.5 z m -111,-2 v -0.5 h 0.5 0.5 v 0.5 0.5 h -0.5 -0.5 z m 114,0 v -0.5 h 0.5 0.5 v 0.5 0.5 h -0.5 -0.5 z m -116,-1 v -0.5 h 0.5 0.5 v 0.5 0.5 h -0.5 -0.5 z m -2,-1 v -0.5 h 0.5 0.5 v 0.5 0.5 h -0.5 -0.5 z m -3,-2 v -0.5 h 0.5 0.5 v 0.5 0.5 h -0.5 -0.5 z m -2,-1 v -0.5 h 0.5 0.5 v 0.5 0.5 h -0.5 -0.5 z m -5,-3 v -0.5 h 0.5 0.5 v 0.5 0.5 h -0.5 -0.5 z m -2,-1 v -0.5 h 0.5 0.5 v 0.5 0.5 h -0.5 -0.5 z m -2,-1 v -0.5 h 0.5 0.5 v 0.5 0.5 h -0.5 -0.5 z m -12,-6 v -0.5 h 0.5 0.5 v 0.5 0.5 h -0.5 -0.5 z m -57.5,-1.5 0.61803,-1 h 0.5 0.5 l -0.61803,1 -0.61804,1 h -0.5 -0.5 z m 55.5,0.5 v -0.5 h 0.5 0.5 v 0.5 0.5 h -0.5 -0.5 z m -2,-1 v -0.5 h 0.5 0.5 v 0.5 0.5 h -0.5 -0.5 z m -3,-1 v -0.5 h 0.5 0.5 v 0.5 0.5 h -0.5 -0.5 z m -47,-1 v -0.5 h 0.5 0.5 v 0.5 0.5 h -0.5 -0.5 z m 45,0 v -0.5 h 0.5 0.5 v 0.5 0.5 h -0.5 -0.5 z m -43,-1 v -0.5 h 0.5 0.5 v 0.5 0.5 h -0.5 -0.5 z m 40,0 v -0.5 h 0.5 0.5 v 0.5 0.5 h -0.5 -0.5 z m -3,-1 v -0.5 h 0.5 0.5 v 0.5 0.5 h -0.5 -0.5 z m -31,-1 v -0.5 h 0.5 0.5 v 0.5 0.5 h -0.5 -0.5 z m 27,0 v -0.5 h 0.5 0.5 v 0.5 0.5 h -0.5 -0.5 z m -23.66667,-1.16667 0.66667,-0.66667 0.66666,0.66667 0.66667,0.66667 h -1.33333 -1.33334 z m 19,0 0.66667,-0.66667 0.66666,0.66667 0.66667,0.66667 h -1.33333 -1.33334 z"
       id="path1628" />
    <path
       style="display:inline;fill:#5d646f;fill-opacity:1"
       d="m 498.96075,569.53913 v -0.5 h 0.5 0.5 v 0.5 0.5 h -0.5 -0.5 z m -5,-1 v -0.5 h 0.5 0.5 v 0.5 0.5 h -0.5 -0.5 z m -20,-7 v -0.5 h 0.5 0.5 v 0.5 0.5 h -0.5 -0.5 z m 66.5,-6.5 0.61803,-1 h 0.5 0.5 l -0.61803,1 -0.61804,1 h -0.5 -0.5 z m -80.5,-0.5 v -0.5 h 0.5 0.5 v 0.5 0.5 h -0.5 -0.5 z m -9,-5 v -0.5 h 0.5 0.5 v 0.5 0.5 h -0.5 -0.5 z m 98.5,-2.5 0.61803,-1 h 0.5 0.5 l -0.61803,1 -0.61804,1 h -0.5 -0.5 z m -105.5,-1.5 v -0.5 h 0.5 0.5 v 0.5 0.5 h -0.5 -0.5 z m -12,-7 v -0.5 h 0.5 0.5 v 0.5 0.5 h -0.5 -0.5 z m -5,-3 v -0.5 h 0.5 0.5 v 0.5 0.5 h -0.5 -0.5 z m -5,-3 v -0.5 h 0.5 0.5 v 0.5 0.5 h -0.5 -0.5 z m 143,-1 v -0.5 h 0.5 0.5 v 0.5 0.5 h -0.5 -0.5 z m -33,-1 v -0.5 h 0.5 0.5 v 0.5 0.5 h -0.5 -0.5 z m -115,-1 v -0.5 h 0.5 0.5 v 0.5 0.5 h -0.5 -0.5 z m 124,-0.5 v -1.33334 l 0.66666,0.66667 0.66667,0.66667 -0.66667,0.66666 -0.66666,0.66667 z m 27,-1.5 v -0.5 h 0.5 0.5 v 0.5 0.5 h -0.5 -0.5 z m -156,-1 v -0.5 h 0.5 0.5 v 0.5 0.5 h -0.5 -0.5 z m 117.83514,-5.17293 -1.66485,-0.44093 -0.53412,-1.39188 -0.53411,-1.39188 1.94897,-0.61858 1.94897,-0.61858 v -0.99163 -0.99163 l 1,0.61804 1,0.61803 v 2.94098 2.94099 l -0.75,-0.11601 -0.75,-0.116 z m 10.16486,0.17293 v -0.5 h 0.5 0.5 v 0.5 0.5 h -0.5 -0.5 z m -15,-2 v -0.5 h 0.5 0.5 v 0.5 0.5 h -0.5 -0.5 z m -3,-1 v -0.5 h 0.5 0.5 v 0.5 0.5 h -0.5 -0.5 z m -3,-1 v -0.5 h 0.5 0.5 v 0.5 0.5 h -0.5 -0.5 z m 54,0 v -0.5 h 0.5 0.5 v 0.5 0.5 h -0.5 -0.5 z m -178,-1 v -0.5 h 0.5 0.5 v 0.5 0.5 h -0.5 -0.5 z m 121,0 v -0.5 h 0.5 0.5 v 0.5 0.5 h -0.5 -0.5 z m 23,0 v -0.5 h 0.5 0.5 v 0.5 0.5 h -0.5 -0.5 z m -26,-1.55902 v -1.05902 l -1,0.61804 -1,0.61803 v -0.84621 -0.84622 l -2.16002,-0.16271 -2.16003,-0.1627 -0.58997,-0.95461 -0.58998,-0.9546 -0.75,-0.0955 -0.75,-0.0955 h -0.93261 -0.93262 l -0.7539,-2.25 -0.75391,-2.25 0.19674,-2.5 0.19675,-2.5 -1.39285,3 -1.39286,3 -0.99996,-2.5 -0.99996,-2.5 0.28663,-0.5 0.28663,-0.5 -2.40404,-0.14422 -2.40404,-0.14421 v 0.77758 0.77758 l -1.75,0.45563 -1.75,0.45564 -0.23565,-3.089 -0.23565,-3.089 0.58164,-10.24654 0.58165,-10.24653 5.83866,4.09559 5.83866,4.09558 1.81534,2.07284 1.81535,2.07284 -1.25706,-0.73527 -1.25707,-0.73528 -0.64082,1.81338 -0.64082,1.81339 -2.34201,3.17003 -2.34202,3.17003 1.2399,0.43025 1.2399,0.43025 3.87572,-1.35028 3.87573,-1.35028 1.12427,0.0153 1.12428,0.0153 -1.5,0.96938 -1.5,0.96937 1.67857,0.0153 1.67857,0.0153 1.58091,-1.58092 1.58092,-1.58091 2.89046,2.43217 2.89047,2.43216 3.19815,3.64249 3.19814,3.64249 -1.65557,0.6353 -1.65556,0.6353 0.52608,1.37096 0.52609,1.37096 -0.96862,0.125 -0.96861,0.125 -0.91667,0.125 -0.91667,0.125 -0.83333,0.91032 -0.83333,0.91033 1.5,-0.74711 1.5,-0.7471 -2.5,2.06454 -2.5,2.06454 -0.75,0.0222 -0.75,0.0222 z m -0.33334,-10.60765 -0.66666,-0.66667 -0.66667,0.66667 -0.66667,0.66667 h 1.33334 1.33333 z m 6.33334,0.16667 v -0.5 h -0.5 -0.5 v 0.5 0.5 h 0.5 0.5 z m -18,-5 v -0.5 h -0.5 -0.5 v 0.5 0.5 h 0.5 0.5 z m -4,-7 v -0.5 h -0.5 -0.5 v 0.5 0.5 h 0.5 0.5 z m 77,22 v -0.5 h 0.5 0.5 v 0.5 0.5 h -0.5 -0.5 z m -184,-1 v -0.5 h 0.5 0.5 v 0.5 0.5 h -0.5 -0.5 z m 131.33333,-0.16667 0.66667,-0.66667 0.66666,0.66667 0.66667,0.66667 h -1.33333 -1.33334 z m 16.66667,0.16667 v -0.5 h 0.5 0.5 v 0.5 0.5 h -0.5 -0.5 z m -55,-2 v -0.5 h 0.5 0.5 v 0.5 0.5 h -0.5 -0.5 z m 92,0 v -0.5 h 0.5 0.5 v 0.5 0.5 h -0.5 -0.5 z m -38,-1 v -0.5 h 0.5 0.5 v 0.5 0.5 h -0.5 -0.5 z m -153,-1 v -0.5 h 0.5 0.5 v 0.5 0.5 h -0.5 -0.5 z m 152,-1 v -0.5 h 0.5 0.5 v 0.5 0.5 h -0.5 -0.5 z m -62,-2 v -0.5 h 0.5 0.5 v 0.5 0.5 h -0.5 -0.5 z m 102,0 v -0.5 h 0.5 0.5 v 0.5 0.5 h -0.5 -0.5 z m -82,-1 v -0.5 h 0.5 0.5 v 0.5 0.5 h -0.5 -0.5 z m 41,0 v -0.5 h 0.5 0.5 v 0.5 0.5 h -0.5 -0.5 z m -45,-1 v -0.5 h 0.5 0.5 v 0.5 0.5 h -0.5 -0.5 z m 3,-1 v -0.5 h 0.5 0.5 v 0.5 0.5 h -0.5 -0.5 z m 39,-0.5 v -1.33334 l 0.66666,0.66667 0.66667,0.66667 -0.66667,0.66666 -0.66666,0.66667 z m 2,0.5 v -0.5 h 0.5 0.5 v 0.5 0.5 h -0.5 -0.5 z m 2,-2 v -0.5 h 0.5 0.5 v 0.5 0.5 h -0.5 -0.5 z m -5,-1 v -0.5 h 0.5 0.5 v 0.5 0.5 h -0.5 -0.5 z m 7,0 v -0.5 h 0.5 0.5 v 0.5 0.5 h -0.5 -0.5 z m -147,-1 v -0.5 h 0.5 0.5 v 0.5 0.5 h -0.5 -0.5 z m 71,0 v -0.5 h 0.5 0.5 v 0.5 0.5 h -0.5 -0.5 z m 36,-2.5 v -1.33334 l 0.66666,0.66667 0.66667,0.66667 -0.66667,0.66666 -0.66666,0.66667 z m 45,0.5 v -0.5 h 0.5 0.5 v 0.5 0.5 h -0.5 -0.5 z m -15.59549,-1.65451 -0.71353,-1.15451 1.15451,0.71352 1.15451,0.71353 v 0.44098 0.44099 h -0.44098 -0.44099 z m -27.40451,-0.34549 v -0.5 h 0.5 0.5 v 0.5 0.5 h -0.5 -0.5 z m 46,0 v -0.5 h 0.5 0.5 v 0.5 0.5 h -0.5 -0.5 z m 3,-2 v -0.5 h 0.5 0.5 v 0.5 0.5 h -0.5 -0.5 z m 27,-2 v -0.5 h 0.5 0.5 v 0.5 0.5 h -0.5 -0.5 z m -23,-1 v -0.5 h 0.5 0.5 v 0.5 0.5 h -0.5 -0.5 z m 4,-2.87756 v -0.37755 l 1.75,-1.37245 1.75,-1.37244 -1.37245,1.75 -1.37244,1.75 h -0.37756 -0.37755 z m -117,-1.12244 v -0.5 h 0.5 0.5 v 0.5 0.5 h -0.5 -0.5 z m 135,0 v -0.5 h 0.5 0.5 v 0.5 0.5 h -0.5 -0.5 z m -173,-2 v -0.5 h 0.5 0.5 v 0.5 0.5 h -0.5 -0.5 z m 112.87244,-1.25 -1.37244,-1.75 1.75,1.37244 1.75,1.37245 v 0.37755 0.37756 h -0.37756 -0.37755 z m 59.12756,0.25 v -0.5 h 0.5 0.5 v 0.5 0.5 h -0.5 -0.5 z m -11,-1.87756 v -0.37755 l 1.75,-1.37245 1.75,-1.37244 -1.37245,1.75 -1.37244,1.75 h -0.37756 -0.37755 z m -52.59549,-1.77695 -0.71353,-1.15451 1.15451,0.71352 1.15451,0.71353 v 0.44098 0.44099 h -0.44098 -0.44099 z m 62.59549,0.65451 v -0.5 h 0.5 0.5 v 0.5 0.5 h -0.5 -0.5 z m -166,-3 v -0.5 h 0.5 0.5 v 0.5 0.5 h -0.5 -0.5 z m 100,0 v -0.5 h 0.5 0.5 v 0.5 0.5 h -0.5 -0.5 z m 56,0 v -0.5 h 0.5 0.5 v 0.5 0.5 h -0.5 -0.5 z m -142,-2 v -0.5 h 0.5 0.5 v 0.5 0.5 h -0.5 -0.5 z m 83,0 v -0.5 h 0.5 0.5 v 0.5 0.5 h -0.5 -0.5 z m 63.42274,-2.1165 1.07726,-2.28316 1,1.07483 1,1.07483 -1.25623,0.46041 -1.25623,0.46041 0.46224,0.74792 0.46224,0.74792 h -1.28327 -1.28327 z m 3.57726,2.1165 v -0.5 h 0.5 0.5 v 0.5 0.5 h -0.5 -0.5 z m -70,-2 v -0.5 h 0.5 0.5 v 0.5 0.5 h -0.5 -0.5 z m -3,-2 v -0.5 h 0.5 0.5 v 0.5 0.5 h -0.5 -0.5 z m -3,-2 v -0.5 h 0.5 0.5 v 0.5 0.5 h -0.5 -0.5 z m -2,-1 v -0.5 h 0.5 0.5 v 0.5 0.5 h -0.5 -0.5 z m -3,-2 v -0.5 h 0.5 0.5 v 0.5 0.5 h -0.5 -0.5 z m -2,-1 v -0.5 h 0.5 0.5 v 0.5 0.5 h -0.5 -0.5 z m 38.47762,-43.69755 -4.97762,-3.07897 -0.33541,-0.86797 -0.33541,-0.86798 -0.90314,0.55817 -0.90313,0.55817 0.5923,-1.54351 0.5923,-1.54351 -1.60376,-0.61541 -1.60375,-0.61542 v -1.43685 -1.43685 l -1.72756,0.29384 -1.72756,0.29384 -0.0224,-1.41667 -0.0224,-1.41667 -1.15836,-0.38612 -1.15836,-0.38612 -0.65066,1.05279 -0.65066,1.05279 h -1 -1 l 0.70573,-1.25 0.70572,-1.25 -1.25053,1.15382 -1.25053,1.15382 -6.8289,-4.10817 -6.8289,-4.10816 0.47009,-0.76063 0.4701,-0.76063 -2.53432,-3.82961 -2.53432,-3.82962 -0.65107,-10.64095 -0.65108,-10.64095 1.26935,-3.06446 1.26934,-3.06446 h 1.48567 1.48567 l -0.50721,-1.32177 -0.50721,-1.32177 1.90022,-1.1867 1.90022,-1.18671 v 1.00847 1.00848 h 1.00543 1.00543 l 5.99535,3.74764 5.99536,3.74765 -0.36566,1.00235 -0.36566,1.00236 0.91505,1.778 0.91504,1.77801 0.96614,-0.5971 0.96614,-0.59711 -0.47232,-0.76424 -0.47232,-0.76423 h 1.41297 1.41298 l 0.49211,1.2824 0.4921,1.28241 -1.44907,-0.55606 -1.44907,-0.55606 v 0.5718 0.57181 l 2.06392,1.10458 2.06392,1.10457 1.18608,-0.92976 1.18608,-0.92976 6.75,4.40702 6.75,4.40703 -0.0153,19.20334 -0.0153,19.20335 -0.75706,1.19071 -0.75706,1.19071 z m -6.47762,-9.30245 v -0.5 h -0.5 -0.5 v 0.5 0.5 h 0.5 0.5 z m -3,-3 v -0.5 h -0.5 -0.5 v 0.5 0.5 h 0.5 0.5 z m 15,-5.5 v -4 h -0.75431 -0.7543 l -0.0962,4 -0.0962,4 h 0.8505 0.85051 z m -0.0703,-8.25 -0.0703,-3.25 -0.79133,2 -0.79133,2 0.4686,1.25 0.46861,1.25 h 0.39301 0.39301 z m -33.92971,-7.25 v -0.5 h -0.5 -0.5 v 0.5 0.5 h 0.5 0.5 z m 1.66666,-2.16667 -0.66666,-0.66667 v 1.33334 1.33333 l 0.66666,-0.66667 0.66667,-0.66666 z m 3.33334,1.16667 v -0.5 h -0.5 -0.5 v 0.5 0.5 h 0.5 0.5 z m -6,-1 v -0.5 h -0.5 -0.5 v 0.5 0.5 h 0.5 0.5 z m 5,-4 v -0.5 h -0.5 -0.5 v 0.5 0.5 h 0.5 0.5 z m 2,-1 v -0.5 h -0.5 -0.5 v 0.5 0.5 h 0.5 0.5 z m -3,-1 v -0.5 h -0.5 -0.5 v 0.5 0.5 h 0.5 0.5 z m 7,-1 v -0.5 h -0.5 -0.5 v 0.5 0.5 h 0.5 0.5 z m 6,35 v -0.5 h 0.5 0.5 v 0.5 0.5 h -0.5 -0.5 z m 48.81966,-2.33114 -2.31966,-2.60834 1.66097,1.26829 1.66097,1.2683 0.55821,-0.9032 0.55821,-0.90319 -2.49069,-2.33988 -2.49069,-2.33988 -1.66181,-0.24391 -1.66181,-0.2439 -12.01438,-12.01438 -12.01438,-12.01438 1.85269,-2.0472 1.85268,-2.04719 h 1.29533 1.29532 l 1.01928,-1.75 1.01928,-1.75 0.0526,1 0.0526,1 2.06454,-2.5 2.06454,-2.5 -0.66093,1.5 -0.66094,1.5 1.64474,-2 1.64474,-2 0.92942,0.25 0.92942,0.25 v -0.83379 -0.83378 l 5.70131,-3.91622 5.7013,-3.91621 0.7737,0.24166 0.77369,0.24167 3.73344,-3.73344 3.73344,-3.73345 -0.79522,1.49178 -0.79522,1.49178 1.83678,-2.10137 1.83678,-2.10136 8.75,-6.14059 8.75,-6.14059 0.0318,0.74195 0.0318,0.74196 1.50286,-1.98853 1.50285,-1.98853 1.71535,-0.0115 1.71534,-0.0115 -0.25,-1.25 -0.25,-1.25 0.75,0.11842 0.75,0.11842 1.30902,-0.11842 1.30901,-0.11842 -0.71352,-1.15451 -0.71353,-1.15451 1.18219,0.73063 1.18219,0.73063 3.15239,-3.32612 3.1524,-3.32612 -0.78472,1.32382 -0.78472,1.32382 2.03996,-1.27397 2.03996,-1.27398 -0.42957,-0.69506 -0.42957,-0.69506 1.74425,-0.76355 1.74426,-0.76354 0.75,0.15876 0.75,0.15876 v -0.83048 -0.83048 l 4.5,-3.23166 4.5,-3.23166 0.0318,0.81214 0.0318,0.81214 1.4682,-1.94113 1.4682,-1.94113 v 0.72631 0.72631 l 2.02801,-1.08535 2.028,-1.08536 -0.51724,-0.83692 -0.51725,-0.83692 1.73924,0.13709 1.73924,0.1371 -0.25,-1.25 -0.25,-1.25 0.75,0.11842 0.75,0.11842 1.30902,-0.11842 1.30901,-0.11842 -0.75097,-1.25 -0.75098,-1.25 1.51575,1.2262 1.51576,1.22621 1.1762,-1.17621 1.17621,-1.1762 v 3.65031 3.65031 l -1.75,1.12519 -1.75,1.1252 1.56818,-0.47435 1.56818,-0.47435 0.1514,2.64884 0.15141,2.64885 0.78041,20.90857 0.78042,20.90857 -3,2.32892 -3,2.32892 -19.5,13.31822 -19.5,13.31822 -10.25,7.14988 -10.25,7.14987 -0.0304,-0.70559 -0.0304,-0.70558 -1.03105,1.77103 -1.03105,1.77103 -0.93854,-0.58005 -0.93854,-0.58005 v 0.98578 0.98577 l -2.93034,1.46185 -2.93034,1.46184 z m 3.18034,1.39015 v -0.44098 l -1.15451,-0.71353 -1.15451,-0.71352 0.71353,1.15451 0.71352,1.15451 h 0.44099 0.44098 z m -14.93068,-17.98749 -3.10449,-3.20302 0.76758,-0.84458 0.76759,-0.84457 -1.1367,0.64931 -1.13669,0.64931 -1.36331,-1.68094 -1.3633,-1.68095 1.15649,0.69318 1.1565,0.69319 -1.15616,-2.44989 -1.15616,-2.44988 -1.74934,-0.45746 -1.74934,-0.45746 -0.57009,0.92243 -0.5701,0.92243 -1.1809,-0.6549 -1.1809,-0.65489 6.4162,6.58318 6.4162,6.58318 1.0838,-0.1946 1.0838,-0.19459 -0.27478,1.32433 -0.27478,1.32433 1.11169,-0.68706 1.11168,-0.68706 z m -2.19688,-0.32152 -1.37244,-1.75 1.75,1.37244 1.75,1.37245 v 0.37755 0.37756 h -0.37756 -0.37755 z m -6.54778,-6.908 0.65799,-0.65799 -1.24133,-1.59201 -1.24132,-1.592 1.73899,1.3633 1.73899,1.36331 -0.54801,0.88669 -0.54801,0.8867 h -0.60765 -0.60765 z m 8.67534,2.158 v -0.5 h -0.5 -0.5 v 0.5 0.5 h 0.5 0.5 z m 47,-1 v -0.5 h -0.5 -0.5 v 0.5 0.5 h 0.5 0.5 z m -5,-51 v -0.5 h -0.5 -0.5 v 0.5 0.5 h 0.5 0.5 z m 44,-20 v -0.5 h -0.5 -0.5 v 0.5 0.5 h 0.5 0.5 z m 0,-7 v -0.5 h -0.5 -0.5 v 0.5 0.5 h 0.5 0.5 z m -126,101 v -0.5 h 0.5 0.5 v 0.5 0.5 h -0.5 -0.5 z m -2,-1 v -0.5 h 0.5 0.5 v 0.5 0.5 h -0.5 -0.5 z m 2.33333,-2.16667 0.66667,-0.66667 0.66666,0.66667 0.66667,0.66667 h -1.33333 -1.33334 z m 48.53911,-2.08333 -1.37244,-1.75 1.75,1.37244 1.75,1.37245 v 0.37755 0.37756 h -0.37756 -0.37755 z m 34.35956,-6.25 v -3.5 l 0.45732,1.75 0.45733,1.75 -0.45733,1.75 -0.45732,1.75 z m -103.232,-0.5 v -0.5 h 0.5 0.5 v 0.5 0.5 h -0.5 -0.5 z m -94.83385,-4.37615 -1.33384,-0.84553 1.41718,-0.54382 1.41717,-0.54382 v 1.40466 1.40466 l -0.0833,-0.0153 -0.0833,-0.0153 z m -2.16615,-2.62385 v -0.5 h 0.5 0.5 v 0.5 0.5 h -0.5 -0.5 z m 4.5,-1.5 0.61803,-1 h 0.5 0.5 l -0.61803,1 -0.61804,1 h -0.5 -0.5 z m 2.5,-3.37756 v -0.37755 l 1.75,-1.37245 1.75,-1.37244 -1.37245,1.75 -1.37244,1.75 h -0.37756 -0.37755 z m 5,-1.12244 v -0.5 h 0.5 0.5 v 0.5 0.5 h -0.5 -0.5 z m -16,-2 v -0.5 h 0.5 0.5 v 0.5 0.5 h -0.5 -0.5 z m 18,0 v -0.5 h 0.5 0.5 v 0.5 0.5 h -0.5 -0.5 z m 2,-2 v -0.5 h 0.5 0.5 v 0.5 0.5 h -0.5 -0.5 z m 2,-2 v -0.5 h 0.5 0.5 v 0.5 0.5 h -0.5 -0.5 z m -24,-1 v -0.5 h 0.5 0.5 v 0.5 0.5 h -0.5 -0.5 z m 22.5,-1.5 0.61803,-1 h 0.5 0.5 l -0.61803,1 -0.61804,1 h -0.5 -0.5 z m 5,0 0.61803,-1 h 0.5 0.5 l -0.61803,1 -0.61804,1 h -0.5 -0.5 z m -28.5,-2.5 v -0.5 h 0.5 0.5 v 0.5 0.5 h -0.5 -0.5 z m 130,-1.5 v -1.33334 l 0.66666,0.66667 0.66667,0.66667 -0.66667,0.66666 -0.66666,0.66667 z m -101,-0.5 v -0.5 h 0.5 0.5 v 0.5 0.5 h -0.5 -0.5 z m -30,-2 v -0.5 h 0.5 0.5 v 0.5 0.5 h -0.5 -0.5 z m 33,0 v -0.5 h 0.5 0.5 v 0.5 0.5 h -0.5 -0.5 z m 92,-2 v -0.5 h 0.5 0.5 v 0.5 0.5 h -0.5 -0.5 z m -82,-3 v -0.5 h 0.5 0.5 v 0.5 0.5 h -0.5 -0.5 z m 94,0 v -0.5 h 0.5 0.5 v 0.5 0.5 h -0.5 -0.5 z m -92,-1 v -0.5 h 0.5 0.5 v 0.5 0.5 h -0.5 -0.5 z m -46,-2.5 v -1.33334 l 0.66666,0.66667 0.66667,0.66667 -0.66667,0.66666 -0.66666,0.66667 z m 156,-0.5 v -0.5 h 0.5 0.5 v 0.5 0.5 h -0.5 -0.5 z m -26,-1 v -0.5 h 0.5 0.5 v 0.5 0.5 h -0.5 -0.5 z m -86,-1 v -0.5 h 0.5 0.5 v 0.5 0.5 h -0.5 -0.5 z m 64,-1.5 v -1.33334 l 0.66666,0.66667 0.66667,0.66667 -0.66667,0.66666 -0.66666,0.66667 z m 19,0.5 v -0.5 h 0.5 0.5 v 0.5 0.5 h -0.5 -0.5 z m -84,-1 v -0.5 h 0.5 0.5 v 0.5 0.5 h -0.5 -0.5 z m 62,-1.5 v -1.33334 l 0.66666,0.66667 0.66667,0.66667 -0.66667,0.66666 -0.66666,0.66667 z m 58,0.5 v -0.5 h 0.5 0.5 v 0.5 0.5 h -0.5 -0.5 z m -121,-1 v -0.5 h 0.5 0.5 v 0.5 0.5 h -0.5 -0.5 z m 137,0 v -0.5 h 0.5 0.5 v 0.5 0.5 h -0.5 -0.5 z m -179,-2.5 v -1.33334 l 0.66666,0.66667 0.66667,0.66667 -0.66667,0.66666 -0.66666,0.66667 z m 40,-2.5 v -0.5 h 0.5 0.5 v 0.5 0.5 h -0.5 -0.5 z m 73,-1 v -0.5 h 0.5 0.5 v 0.5 0.5 h -0.5 -0.5 z m 61,-1 v -0.5 h 0.5 0.5 v 0.5 0.5 h -0.5 -0.5 z m -173,-1 v -0.5 h 0.5 0.5 v 0.5 0.5 h -0.5 -0.5 z m 38,-1 v -0.5 h 0.5 0.5 v 0.5 0.5 h -0.5 -0.5 z m 139,-1 v -0.5 h 0.5 0.5 v 0.5 0.5 h -0.5 -0.5 z m -73,-1 v -0.5 h 0.5 0.5 v 0.5 0.5 h -0.5 -0.5 z m -103,-1 v -0.5 h 0.5 0.5 v 0.5 0.5 h -0.5 -0.5 z m 36,-2 v -0.5 h 0.5 0.5 v 0.5 0.5 h -0.5 -0.5 z m 62,0 v -0.5 h 0.5 0.5 v 0.5 0.5 h -0.5 -0.5 z m -96,-3 v -0.5 h 0.5 0.5 v 0.5 0.5 h -0.5 -0.5 z m 91,0 v -0.5 h 0.5 0.5 v 0.5 0.5 h -0.5 -0.5 z m -89,-4 v -0.5 h 0.5 0.5 v 0.5 0.5 h -0.5 -0.5 z m 82,0 v -0.5 h 0.5 0.5 v 0.5 0.5 h -0.5 -0.5 z m 95,-1 v -0.5 h 0.5 0.5 v 0.5 0.5 h -0.5 -0.5 z m -145,-2.5 v -1.33334 l 0.66666,0.66667 0.66667,0.66667 -0.66667,0.66666 -0.66666,0.66667 z m 140,-0.5 v -0.5 h 0.5 0.5 v 0.5 0.5 h -0.5 -0.5 z m 38,-1 v -0.5 h 0.5 0.5 v 0.5 0.5 h -0.5 -0.5 z m -43,-2 v -0.5 h 0.5 0.5 v 0.5 0.5 h -0.5 -0.5 z m -5,-3 v -0.5 h 0.5 0.5 v 0.5 0.5 h -0.5 -0.5 z m -129,-1 v -0.5 h 0.5 0.5 v 0.5 0.5 h -0.5 -0.5 z m -25,-1 v -0.5 h 0.5 0.5 v 0.5 0.5 h -0.5 -0.5 z m 45,-1 v -0.5 h 0.5 0.5 v 0.5 0.5 h -0.5 -0.5 z m -9,-2 v -0.5 h 0.5 0.5 v 0.5 0.5 h -0.5 -0.5 z m -8,-1 v -0.5 h 0.5 0.5 v 0.5 0.5 h -0.5 -0.5 z m 114,-1 v -0.5 h 0.5 0.5 v 0.5 0.5 h -0.5 -0.5 z m -5,-3 v -0.5 h 0.5 0.5 v 0.5 0.5 h -0.5 -0.5 z m -7,-4 v -0.5 h 0.5 0.5 v 0.5 0.5 h -0.5 -0.5 z m 108,-6 v -0.5 h 0.5 0.5 v 0.5 0.5 h -0.5 -0.5 z m -127,-5 v -0.5 h 0.5 0.5 v 0.5 0.5 h -0.5 -0.5 z m -9,-5 v -0.5 h 0.5 0.5 v 0.5 0.5 h -0.5 -0.5 z m -2,-1 v -0.5 h 0.5 0.5 v 0.5 0.5 h -0.5 -0.5 z m -2,-1 v -0.5 h 0.5 0.5 v 0.5 0.5 h -0.5 -0.5 z m -2,-1 v -0.5 h 0.5 0.5 v 0.5 0.5 h -0.5 -0.5 z m -2,-1 v -0.5 h 0.5 0.5 v 0.5 0.5 h -0.5 -0.5 z m -51,-7 v -0.5 h 0.5 0.5 v 0.5 0.5 h -0.5 -0.5 z m 33,0 v -0.5 h 0.5 0.5 v 0.5 0.5 h -0.5 -0.5 z m -4,-1 v -0.5 h 0.5 0.5 v 0.5 0.5 h -0.5 -0.5 z m -21,-1 v -0.5 h 0.5 0.5 v 0.5 0.5 h -0.5 -0.5 z m 16,0 v -0.5 h 0.5 0.5 v 0.5 0.5 h -0.5 -0.5 z"
       id="path1627" />
    <path
       style="display:inline;fill:#5d646f;fill-opacity:1"
       d="m 513.9607,569.53922 v -0.5 h 0.5 0.5 v 0.5 0.5 h -0.5 -0.5 z m 13,-5 v -0.5 h 0.5 0.5 v 0.5 0.5 h -0.5 -0.5 z m -48,-1 v -0.5 h 0.5 0.5 v 0.5 0.5 h -0.5 -0.5 z m 51,-1 v -0.5 h 0.5 0.5 v 0.5 0.5 h -0.5 -0.5 z m -58,-2 v -0.5 h 0.5 0.5 v 0.5 0.5 h -0.5 -0.5 z m 64,-2 v -0.5 h 0.5 0.5 v 0.5 0.5 h -0.5 -0.5 z m -72,-2 v -0.5 h 0.5 0.5 v 0.5 0.5 h -0.5 -0.5 z m -2,-1 v -0.5 h 0.5 0.5 v 0.5 0.5 h -0.5 -0.5 z m 80,-2 v -0.5 h 0.5 0.5 v 0.5 0.5 h -0.5 -0.5 z m -89,-3 v -0.5 h 0.5 0.5 v 0.5 0.5 h -0.5 -0.5 z m -7,-4 v -0.5 h 0.5 0.5 v 0.5 0.5 h -0.5 -0.5 z m 105.5,-1.5 0.61803,-1 h 0.5 0.5 l -0.61803,1 -0.61804,1 h -0.5 -0.5 z m -112.5,-2.5 v -0.5 h 0.5 0.5 v 0.5 0.5 h -0.5 -0.5 z m -5,-3 v -0.5 h 0.5 0.5 v 0.5 0.5 h -0.5 -0.5 z m -5,-3 v -0.5 h 0.5 0.5 v 0.5 0.5 h -0.5 -0.5 z m 111,-5 v -0.5 h 0.5 0.5 v 0.5 0.5 h -0.5 -0.5 z m -9,-1 v -0.5 h 0.5 0.5 v 0.5 0.5 h -0.5 -0.5 z m -5,-1 v -0.5 h 0.5 0.5 v 0.5 0.5 h -0.5 -0.5 z m -4,-1 v -0.5 h 0.5 0.5 v 0.5 0.5 h -0.5 -0.5 z m 19,-1.5 v -1.33334 l 0.66666,0.66667 0.66667,0.66667 -0.66667,0.66666 -0.66666,0.66667 z m -26,-0.5 v -0.5 h 0.5 0.5 v 0.5 0.5 h -0.5 -0.5 z m 81,0 v -0.5 h 0.5 0.5 v 0.5 0.5 h -0.5 -0.5 z m -27,-1 v -0.5 h 0.5 0.5 v 0.5 0.5 h -0.5 -0.5 z m -162,-2 v -0.5 h 0.5 0.5 v 0.5 0.5 h -0.5 -0.5 z m 100,0 v -0.5 h 0.5 0.5 v 0.5 0.5 h -0.5 -0.5 z m 95,-1 v -0.5 h 0.5 0.5 v 0.5 0.5 h -0.5 -0.5 z m -200,-2 v -0.5 h 0.5 0.5 v 0.5 0.5 h -0.5 -0.5 z m 98,0 v -0.5 h 0.5 0.5 v 0.5 0.5 h -0.5 -0.5 z m 40,0 v -0.5 h 0.5 0.5 v 0.5 0.5 h -0.5 -0.5 z m -42,-1 v -0.5 h 0.5 0.5 v 0.5 0.5 h -0.5 -0.5 z m 22.60072,-1.71205 -5.89929,-2.05414 2.39929,-1.95369 2.39928,-1.95368 -1.5,0.7471 -1.5,0.74711 0.83333,-0.91033 0.83333,-0.91032 0.91667,-0.125 0.91667,-0.125 0.96861,-0.125 0.96862,-0.125 -0.52609,-1.37096 -0.52608,-1.37096 1.71625,-0.65859 1.71626,-0.65859 -2.40879,-2.76234 -2.40878,-2.76235 6.12761,6.52904 6.12761,6.52904 -0.46999,1.22479 -0.46999,1.22478 -1.92214,0.61007 -1.92214,0.61006 0.57353,0.928 0.57354,0.92801 -0.80901,-0.0789 -0.80902,-0.079 z m 2.06594,-4.45462 -0.66666,-0.66667 -0.66667,0.66667 -0.66667,0.66667 h 1.33334 1.33333 z m 49.33334,6.16667 v -0.5 h 0.5 0.5 v 0.5 0.5 h -0.5 -0.5 z m -76,-1 v -0.5 h 0.5 0.5 v 0.5 0.5 h -0.5 -0.5 z m -99,-1 v -0.5 h 0.5 0.5 v 0.5 0.5 h -0.5 -0.5 z m 97,0 v -0.5 h 0.5 0.5 v 0.5 0.5 h -0.5 -0.5 z m -2,-1 v -0.5 h 0.5 0.5 v 0.5 0.5 h -0.5 -0.5 z m 47.4345,-1 -0.75087,-2 -1.84182,-4.78702 -1.84181,-4.78702 v -0.96298 -0.96298 l 0.75,0.19812 0.75,0.19813 2.26452,-0.77013 2.26452,-0.77012 -0.66903,-1.08251 -0.66903,-1.08251 1.13202,0.69962 1.13201,0.69963 5.57029,-3.56327 5.57029,-3.56327 -0.51993,-0.84128 -0.51994,-0.84127 2.39616,0.26303 2.39615,0.26303 -0.37174,-1.93031 -0.37174,-1.93031 0.98541,0.60902 0.98542,0.60902 4.01964,-3.6315 4.01964,-3.63151 1.94267,0.61658 1.94267,0.61658 v -1.036 -1.036 l 1.46193,0.56099 1.46193,0.561 0.67285,2.15762 0.67285,2.15762 1.11522,0.73468 1.11522,0.73469 -1.35841,0.0153 -1.35841,0.0153 0.62746,2.5 0.62746,2.5 h -1.01905 -1.01905 v -0.91152 -0.91152 l -1.61239,0.23665 -1.61239,0.23665 -0.94907,1.6959 -0.94907,1.6959 -0.68854,-0.36455 -0.68854,-0.36455 -5.5,5.67736 -5.5,5.67736 v 0.7196 0.7196 l -4,2.19656 -4,2.19656 -0.33334,0.75 -0.33333,0.75 h -1.79469 -1.7947 l -1.52928,2.25 -1.52929,2.25 z m 20.5655,-16 v -0.5 h -0.5 -0.5 v 0.5 0.5 h 0.5 0.5 z m 5,-5 v -0.5 h -0.5 -0.5 v 0.5 0.5 h 0.5 0.5 z m -53,20 v -0.5 h 0.5 0.5 v 0.5 0.5 h -0.5 -0.5 z m -2,-1 v -0.5 h 0.5 0.5 v 0.5 0.5 h -0.5 -0.5 z m -5,-2 v -0.5 h 0.5 0.5 v 0.5 0.5 h -0.5 -0.5 z m -120,-1 v -0.5 h 0.5 0.5 v 0.5 0.5 h -0.5 -0.5 z m 96,0 v -0.5 h 0.5 0.5 v 0.5 0.5 h -0.5 -0.5 z m 94,0 v -0.5 h 0.5 0.5 v 0.5 0.5 h -0.5 -0.5 z m -96,-1 v -0.5 h 0.5 0.5 v 0.5 0.5 h -0.5 -0.5 z m 18.212,-1.33725 -3.28801,-1.75342 0.78801,-0.86499 0.788,-0.86499 -1.22176,0.70188 -1.22175,0.70189 -2.52825,-1.65657 -2.52824,-1.65657 0.116,-1.63499 0.116,-1.63499 0.45732,1.75 0.45733,1.75 h 1.42667 1.42668 v -0.89422 -0.89421 l 2.40404,0.14421 2.40404,0.14422 -0.28663,0.5 -0.28663,0.5 0.99996,2.5 0.99996,2.5 1.35615,-3 1.35615,-3 -0.16936,3.02861 -0.16936,3.02862 0.75486,1.22138 0.75485,1.22139 -0.80901,-0.0419 -0.80902,-0.0419 z m -3.212,-4.66275 v -0.5 h -0.5 -0.5 v 0.5 0.5 h 0.5 0.5 z m -108,3 v -0.5 h 0.5 0.5 v 0.5 0.5 h -0.5 -0.5 z m 240,0 v -0.5 h 0.5 0.5 v 0.5 0.5 h -0.5 -0.5 z m -154,-1 v -0.5 h 0.5 0.5 v 0.5 0.5 h -0.5 -0.5 z m 104,0 v -0.5 h 0.5 0.5 v 0.5 0.5 h -0.5 -0.5 z m -64.66667,-1.16667 0.66667,-0.66667 0.66666,0.66667 0.66667,0.66667 h -1.33333 -1.33334 z m 6.66667,0.16667 v -0.5 h 0.5 0.5 v 0.5 0.5 h -0.5 -0.5 z m 14,0 v -0.5 h 0.5 0.5 v 0.5 0.5 h -0.5 -0.5 z m 97,0 v -0.5 h 0.5 0.5 v 0.5 0.5 h -0.5 -0.5 z m -240,-2 v -0.5 h 0.5 0.5 v 0.5 0.5 h -0.5 -0.5 z m 78,0 v -0.5 h 0.5 0.5 v 0.5 0.5 h -0.5 -0.5 z m 165,0 v -0.5 h 0.5 0.5 v 0.5 0.5 h -0.5 -0.5 z m 3,-2 v -0.5 h 0.5 0.5 v 0.5 0.5 h -0.5 -0.5 z m -135,-1 v -0.5 h 0.5 0.5 v 0.5 0.5 h -0.5 -0.5 z m 30,0 v -0.5 h 0.5 0.5 v 0.5 0.5 h -0.5 -0.5 z m -32.7399,-1.22969 -1.2399,-0.43025 2.34202,-3.17003 2.34201,-3.17003 0.80664,-2 0.80665,-2 -0.20182,-0.87917 -0.20181,-0.87917 5.04305,4.22229 5.04306,4.22228 v 0.33546 0.33545 l -1.57143,1.57143 -1.57143,1.57143 -1.67857,-0.0153 -1.67857,-0.0153 1.5,-0.96937 1.5,-0.96938 -1.12428,-0.0153 -1.12427,-0.0153 -3.87573,1.35028 -3.87572,1.35028 z m 1.40656,-1.93698 -0.66666,-0.66667 v 1.33334 1.33333 l 0.66666,-0.66667 0.66667,-0.66666 z m 2.33334,-0.83333 v -0.5 h -0.5 -0.5 v 0.5 0.5 h 0.5 0.5 z m 3,-7 v -0.5 h -0.5 -0.5 v 0.5 0.5 h 0.5 0.5 z m 10.40499,8.25 -1.90499,-2.25 2.25,1.90498 2.25,1.90499 v 0.34501 0.34502 h -0.34501 -0.34502 z m 123.59501,1.75 v -0.5 h 0.5 0.5 v 0.5 0.5 h -0.5 -0.5 z m -244,-3 v -0.5 h 0.5 0.5 v 0.5 0.5 h -0.5 -0.5 z m 61,0 v -0.5 h 0.5 0.5 v 0.5 0.5 h -0.5 -0.5 z m 70.40451,-1.65451 -0.71353,-1.15451 1.15451,0.71352 1.15451,0.71353 v 0.44098 0.44099 h -0.44098 -0.44099 z m 50.67444,-0.42883 0.0789,-1.91666 0.52522,1.3125 0.52522,1.3125 -0.60417,0.60416 -0.60416,0.60417 z M 449.9607,492.53922 v -0.5 h 0.5 0.5 v 0.5 0.5 h -0.5 -0.5 z m 46,0 v -0.5 h 0.5 0.5 v 0.5 0.5 h -0.5 -0.5 z m -99,-1 v -0.5 h 0.5 0.5 v 0.5 0.5 h -0.5 -0.5 z m 48,-2 v -0.5 h 0.5 0.5 v 0.5 0.5 h -0.5 -0.5 z m -45,-2 v -0.5 h 0.5 0.5 v 0.5 0.5 h -0.5 -0.5 z m 88.30987,-6 0.0102,-6 0.40466,3.2679 0.40466,3.26791 -0.41487,2.73209 -0.41486,2.7321 z m -50.30987,4 v -0.5 h 0.5 0.5 v 0.5 0.5 h -0.5 -0.5 z m 79,0 v -0.5 h 0.5 0.5 v 0.5 0.5 h -0.5 -0.5 z m -19.59549,-2.65451 -0.71353,-1.15451 1.15451,0.71352 1.15451,0.71353 v 0.44098 0.44099 h -0.44098 -0.44099 z m -64.40451,-0.34549 v -0.5 h 0.5 0.5 v 0.5 0.5 h -0.5 -0.5 z m -28,-2 v -0.5 h 0.5 0.5 v 0.5 0.5 h -0.5 -0.5 z m 89,0 v -0.5 h 0.5 0.5 v 0.5 0.5 h -0.5 -0.5 z m 75.33333,-1.16667 0.66667,-0.66667 0.66666,0.66667 0.66667,0.66667 h -1.33333 -1.33334 z M 425.9607,478.53922 v -0.5 h 0.5 0.5 v 0.5 0.5 h -0.5 -0.5 z m 65,0 v -0.5 h 0.5 0.5 v 0.5 0.5 h -0.5 -0.5 z m 17,0 v -0.5 h 0.5 0.5 v 0.5 0.5 h -0.5 -0.5 z m 58,0 v -0.5 h 0.5 0.5 v 0.5 0.5 h -0.5 -0.5 z m 6,0 v -0.5 h 0.5 0.5 v 0.5 0.5 h -0.5 -0.5 z m -153,-4 v -0.5 h 0.5 0.5 v 0.5 0.5 h -0.5 -0.5 z m 150,0 v -0.5 h 0.5 0.5 v 0.5 0.5 h -0.5 -0.5 z m -159,-1 v -0.5 h 0.5 0.5 v 0.5 0.5 h -0.5 -0.5 z m 81,-6 v -0.5 h 0.5 0.5 v 0.5 0.5 h -0.5 -0.5 z m 41,-43.5 v -1.33334 l 0.66666,0.66667 0.66667,0.66667 -0.66667,0.66666 -0.66666,0.66667 z m -18,-9.99923 -6.5,-3.99811 v -0.418 -0.418 l 0.91032,-0.83333 0.91033,-0.83333 -0.71934,1.25 -0.71935,1.25 h 1 1 l 0.65066,-1.05279 0.65066,-1.05279 1.15836,0.38612 1.15836,0.38612 0.0224,1.41667 0.0224,1.41667 1.72756,-0.29384 1.72756,-0.29384 v 1.54384 1.54384 h 0.96481 0.96482 l 1.07037,2 1.07037,2 -0.28519,-5.7e-4 -0.28518,-5.6e-4 z m -1.33334,-4.66744 -0.66666,-0.66667 -0.66667,0.66667 -0.66667,0.66667 h 1.33334 1.33333 z m 48.89932,0.73366 -4.85883,-4.93301 1.62492,0.23849 1.62491,0.23849 2.49069,2.33988 2.49069,2.33988 -0.45817,0.74133 -0.45817,0.74133 1.331,1.10463 1.331,1.10463 0.81831,-0.74132 0.81832,-0.74132 -0.71934,1.25 -0.71935,1.25 h -0.22857 -0.22858 z m 0.43402,-1.44455 v -0.37755 l -1.75,-1.37245 -1.75,-1.37244 1.37244,1.75 1.37245,1.75 h 0.37755 0.37756 z m -43,3.87756 v -0.5 h 0.5 0.5 v 0.5 0.5 h -0.5 -0.5 z m 52,-2 v -0.5 h 0.5 0.5 v 0.5 0.5 h -0.5 -0.5 z m -55,-1 v -0.5 h 0.5 0.5 v 0.5 0.5 h -0.5 -0.5 z m 58,-1 v -0.5 h 0.5 0.5 v 0.5 0.5 h -0.5 -0.5 z m -43.60481,-4.5 0.0962,-4 h 0.7543 0.75431 v 4 4 h -0.85051 -0.8505 z m -40.14519,-4.2205 -2.25,-1.08513 0.13361,-7.09719 0.13361,-7.09718 0.63726,4.52384 0.63726,4.52385 2.22913,3.13053 2.22913,3.13052 v 0.59563 0.59563 l -0.75,-0.0677 -0.75,-0.0677 z m 61.97522,-0.95517 0.27478,-1.32433 -1.0838,0.19459 -1.0838,0.1946 -6.4162,-6.58318 -6.4162,-6.58318 1.1809,0.65489 1.1809,0.6549 0.5701,-0.92243 0.57009,-0.92243 1.74934,0.45746 1.74934,0.45746 1.15616,2.44988 1.15616,2.44989 -1.1565,-0.69319 -1.15649,-0.69318 1.3633,1.68095 1.36331,1.68094 1.13669,-0.64931 1.1367,-0.64931 -0.76759,0.84457 -0.76758,0.84458 3.10449,3.20302 3.10449,3.20302 -1.11168,0.68706 -1.11169,0.68706 z m -1.22522,-2.20189 v -0.37755 l -1.75,-1.37245 -1.75,-1.37244 1.37244,1.75 1.37245,1.75 h 0.37755 0.37756 z m -7.57003,-8.50914 0.54801,-0.88669 -1.73899,-1.36331 -1.73899,-1.3633 1.24132,1.592 1.24133,1.59201 -0.65799,0.65799 -0.658,0.658 h 0.60765 0.60765 z m -12.6846,9.6367 -0.4686,-1.25 0.79133,-2 0.79133,-2 0.0703,3.25 0.0703,3.25 h -0.39301 -0.39301 z m 63.25463,-0.25 v -0.5 h 0.5 0.5 v 0.5 0.5 h -0.5 -0.5 z m 0,-2 v -0.5 h 0.5 0.5 v 0.5 0.5 h -0.5 -0.5 z m -197,-2 v -0.5 h 0.5 0.5 v 0.5 0.5 h -0.5 -0.5 z m 201,-1 v -0.5 h 0.5 0.5 v 0.5 0.5 h -0.5 -0.5 z m -205,-1 v -0.5 h 0.5 0.5 v 0.5 0.5 h -0.5 -0.5 z m 157,-1 v -0.5 h 0.5 0.5 v 0.5 0.5 h -0.5 -0.5 z m 51,0 v -0.5 h 0.5 0.5 v 0.5 0.5 h -0.5 -0.5 z m -201,-1 v -0.5 h 0.5 0.5 v 0.5 0.5 h -0.5 -0.5 z m 197,0 v -0.5 h 0.5 0.5 v 0.5 0.5 h -0.5 -0.5 z m -198.884,-1.57569 -0.116,-1.57569 2.46918,-2.31967 2.46918,-2.31967 -0.62951,-1.10464 -0.6295,-1.10464 0.81831,0.74132 0.81832,0.74132 1.25298,-1.03988 1.25298,-1.03988 0.66336,1.07333 0.66336,1.07334 -0.82433,-0.27478 -0.82433,-0.27477 v 0.66943 0.66944 l -2.39536,2.54974 -2.39536,2.54975 -0.77896,-0.48143 -0.77896,-0.48142 -0.45968,1.76224 -0.45968,1.76225 z m 5.884,-5.42431 v -0.5 h -0.5 -0.5 v 0.5 0.5 h 0.5 0.5 z m 93,6 v -0.5 h 0.5 0.5 v 0.5 0.5 h -0.5 -0.5 z m 107,0 v -0.5 h 0.5 0.5 v 0.5 0.5 h -0.5 -0.5 z m -213,-1 v -0.5 h 0.5 0.5 v 0.5 0.5 h -0.5 -0.5 z m 108,-0.5 v -1.33334 l 0.66666,0.66667 0.66667,0.66667 -0.66667,0.66666 -0.66666,0.66667 z m 3,0.5 v -0.5 h 0.5 0.5 v 0.5 0.5 h -0.5 -0.5 z m -6,-1 v -0.5 h 0.5 0.5 v 0.5 0.5 h -0.5 -0.5 z m 111,0 v -0.5 h 0.5 0.5 v 0.5 0.5 h -0.5 -0.5 z m 3,-2 v -0.5 h 0.5 0.5 v 0.5 0.5 h -0.5 -0.5 z m -221,-2 v -0.5 h 0.5 0.5 v 0.5 0.5 h -0.5 -0.5 z m 112,0 v -0.5 h 0.5 0.5 v 0.5 0.5 h -0.5 -0.5 z m 2,-1 v -0.5 h 0.5 0.5 v 0.5 0.5 h -0.5 -0.5 z m 111,0 v -0.5 h 0.5 0.5 v 0.5 0.5 h -0.5 -0.5 z m -214,-1 v -0.5 h 0.5 0.5 v 0.5 0.5 h -0.5 -0.5 z m 100,0 v -0.5 h 0.5 0.5 v 0.5 0.5 h -0.5 -0.5 z m -112,-1 v -0.5 h 0.5 0.5 v 0.5 0.5 h -0.5 -0.5 z m 119,0 v -0.5 h 0.5 0.5 v 0.5 0.5 h -0.5 -0.5 z m 110,0 v -0.5 h 0.5 0.5 v 0.5 0.5 h -0.5 -0.5 z m -215,-1 v -0.5 h 0.5 0.5 v 0.5 0.5 h -0.5 -0.5 z m 10,-1 v -0.5 h 0.5 0.5 v 0.5 0.5 h -0.5 -0.5 z m 208,0 v -0.5 h 0.5 0.5 v 0.5 0.5 h -0.5 -0.5 z m -105.64613,-1.9647 -2.09115,-1.46469 -0.55034,0.55034 -0.55034,0.55034 -1.08373,-2.02496 -1.08372,-2.02496 0.85538,-0.52865 0.85538,-0.52866 1.89733,1.54213 1.89732,1.54212 -1.40451,-0.72867 -1.40451,-0.72866 0.75566,1.22268 0.75566,1.22268 1.4367,-0.55131 1.43671,-0.55132 0.56693,1.4774 0.56693,1.4774 1.04972,-0.64877 1.04973,-0.64876 -0.71353,1.15451 -0.71353,1.15451 h -0.71847 -0.71848 z m 1.64613,-1.0353 v -0.5 h -0.5 -0.5 v 0.5 0.5 h 0.5 0.5 z m 22.5,1.5 0.61803,-1 h 0.5 0.5 l -0.61803,1 -0.61804,1 h -0.5 -0.5 z m 84.5,-0.5 v -0.5 h 0.5 0.5 v 0.5 0.5 h -0.5 -0.5 z m -81.5,-1.5 0.61803,-1 h 0.5 0.5 l -0.61803,1 -0.61804,1 h -0.5 -0.5 z m 84.5,-0.5 v -0.5 h 0.5 0.5 v 0.5 0.5 h -0.5 -0.5 z m -211.08334,-0.75 -0.0833,-0.25 -0.247,-2.2155 -0.24701,-2.2155 0.65383,-1.05793 0.65384,-1.05793 2.1765,-0.41915 2.17651,-0.41916 v 0.94258 0.94259 h 1.43785 1.43785 l -0.14544,1.93072 -0.14543,1.93072 -0.83639,-0.51692 -0.83639,-0.51692 -2.42084,1.5862 -2.42085,1.5862 h -0.53518 -0.53518 z m 129.58334,-0.75 0.61803,-1 h 0.5 0.5 l -0.61803,1 -0.61804,1 h -0.5 -0.5 z m -158.5,-0.5 v -0.5 h 0.5 0.5 v 0.5 0.5 h -0.5 -0.5 z m 142,-1 v -0.5 h 0.5 0.5 v 0.5 0.5 h -0.5 -0.5 z m -104,-1 v -0.5 h 0.5 0.5 v 0.5 0.5 h -0.5 -0.5 z m 124,0 v -0.5 h 0.5 0.5 v 0.5 0.5 h -0.5 -0.5 z m -122,-1 v -0.5 h 0.5 0.5 v 0.5 0.5 h -0.5 -0.5 z m 62.09948,-6 -0.0359,-7 1.31708,1.73445 1.31707,1.73446 0.62759,-0.62759 0.62758,-0.62758 0.62832,1.63738 0.62833,1.63739 1.14521,-0.56842 1.14522,-0.56841 -1.58777,1.32416 -1.58777,1.32416 0.4211,1.25 0.4211,1.25 h -1.43051 -1.43052 l -1.08514,2.25 -1.08513,2.25 z m 45.90052,6 v -0.5 h 0.5 0.5 v 0.5 0.5 h -0.5 -0.5 z m -109.68182,-1.95456 0.31819,-0.95455 3.2631,-1.33148 3.26311,-1.33149 -0.58752,0.95063 -0.58752,0.95063 1.25623,0.50646 1.25623,0.50646 -2.30902,0.0789 -2.30902,0.079 0.46353,0.75 0.46353,0.75 h -2.40451 -2.40451 z m 214.68182,-2.04544 v -0.5 h 0.5 0.5 v 0.5 0.5 h -0.5 -0.5 z m -253.74782,-5 0.0202,-4 0.4349,2.26165 0.4349,2.26166 -0.45508,1.73834 -0.45508,1.73835 z m 110.74782,2 v -0.5 h 0.5 0.5 v 0.5 0.5 h -0.5 -0.5 z m 49,-1 v -0.5 h 0.5 0.5 v 0.5 0.5 h -0.5 -0.5 z m 16,0.13618 v -0.5 l 3,-2.13618 3,-2.13619 v 0.5 0.5 l -3,2.13619 -3,2.13618 z m -52,-2.13618 v -0.5 h 0.5 0.5 v 0.5 0.5 h -0.5 -0.5 z m -3,-2 v -0.5 h 0.5 0.5 v 0.5 0.5 h -0.5 -0.5 z m -80,-1 v -0.5 h 0.5 0.5 v 0.5 0.5 h -0.5 -0.5 z m 126,0 v -0.5 h 0.5 0.5 v 0.5 0.5 h -0.5 -0.5 z m 16.5,-0.5 0.61803,-1 h 0.5 0.5 l -0.61803,1 -0.61804,1 h -0.5 -0.5 z m -144.5,-5.5 v -0.5 h 0.5 0.5 v 0.5 0.5 h -0.5 -0.5 z m -1,-5 v -0.5 h 0.5 0.5 v 0.5 0.5 h -0.5 -0.5 z m 144,0 v -0.5 h 0.5 0.5 v 0.5 0.5 h -0.5 -0.5 z m -85,-3 v -0.5 h 0.5 0.5 v 0.5 0.5 h -0.5 -0.5 z m 89,0 v -0.5 h 0.5 0.5 v 0.5 0.5 h -0.5 -0.5 z m 18.5,-1.5 0.61803,-1 h 0.5 0.5 l -0.61803,1 -0.61804,1 h -0.5 -0.5 z m -199.5,-1.5 v -0.5 h 0.5 0.5 v 0.5 0.5 h -0.5 -0.5 z m 202,0.0963 v -0.52175 l 6,-4.07452 6,-4.07453 v 0.44346 0.44346 l -4.75,3.39566 -4.75,3.39566 -1.25,0.75716 -1.25,0.75716 z m -117,-1.09627 v -0.5 h 0.5 0.5 v 0.5 0.5 h -0.5 -0.5 z m 96,0 v -0.5 h 0.5 0.5 v 0.5 0.5 h -0.5 -0.5 z m -177,-6 v -0.5 h 0.5 0.5 v 0.5 0.5 h -0.5 -0.5 z m 29,0 v -0.5 h 0.5 0.5 v 0.5 0.5 h -0.5 -0.5 z m 183.22619,-3.07873 1.72619,-1.80223 0.47833,0.47833 0.47833,0.47834 -2.20452,1.32389 -2.20452,1.3239 z m 32.65297,-3.17127 -0.12083,-4.75 -0.0202,-2.16448 -0.0203,-2.16447 -1.60892,0.48998 -1.60891,0.48998 1.75,-1.1252 1.75,-1.12519 v -3.50933 -3.50933 l -1.25,0.7809 -1.25,0.7809 -1.18897,0.18067 -1.18897,0.18068 -3.31103,2.44991 -3.31103,2.44991 -1.25,0.70655 -1.25,0.70655 v -0.52854 -0.52855 l 7.5,-5.06094 7.5,-5.06095 v 12.53047 12.53048 h -0.5 -0.5 z m -242.87916,3.25 v -0.5 h 0.5 0.5 v 0.5 0.5 h -0.5 -0.5 z m 57,-2 v -0.5 h 0.5 0.5 v 0.5 0.5 h -0.5 -0.5 z m 98,-1 v -0.5 h 0.5 0.5 v 0.5 0.5 h -0.5 -0.5 z m 61,-1 v -0.5 h 0.5 0.5 v 0.5 0.5 h -0.5 -0.5 z m -66,-2 v -0.5 h 0.5 0.5 v 0.5 0.5 h -0.5 -0.5 z m -120.5,-1.5 0.61803,-1 h 0.5 0.5 l -0.61803,1 -0.61804,1 h -0.5 -0.5 z m 10.5,0.5 v -0.5 h 0.5 0.5 v 0.5 0.5 h -0.5 -0.5 z m -7.66667,-1.16667 0.66667,-0.66667 0.66666,0.66667 0.66667,0.66667 h -1.33333 -1.33334 z m 207.66667,-1.83333 v -0.5 h 0.5 0.5 v 0.5 0.5 h -0.5 -0.5 z m -13.5,-1.5 0.61803,-1 h 0.5 0.5 l -0.61803,1 -0.61804,1 h -0.5 -0.5 z m -88.5,-1.5 v -0.5 h 0.5 0.5 v 0.5 0.5 h -0.5 -0.5 z m 102,-4 v -0.5 h 0.5 0.5 v 0.5 0.5 h -0.5 -0.5 z m -114,-3 v -0.5 h 0.5 0.5 v 0.5 0.5 h -0.5 -0.5 z m -7,-4 v -0.5 h 0.5 0.5 v 0.5 0.5 h -0.5 -0.5 z m -7,-4 v -0.5 h 0.5 0.5 v 0.5 0.5 h -0.5 -0.5 z m -22,-11 v -0.5 h 0.5 0.5 v 0.5 0.5 h -0.5 -0.5 z m -50,-1 v -0.5 h 0.5 0.5 v 0.5 0.5 h -0.5 -0.5 z m 45,-1 v -0.5 h 0.5 0.5 v 0.5 0.5 h -0.5 -0.5 z m -3,-1 v -0.5 h 0.5 0.5 v 0.5 0.5 h -0.5 -0.5 z m -13,-3 v -0.5 h 0.5 0.5 v 0.5 0.5 h -0.5 -0.5 z"
       id="path1626" />
    <path
       style="display:inline;fill:#5d646f"
       d="m 500.29403,569.37255 0.66667,-0.66667 0.66666,0.66667 0.66667,0.66667 h -1.33333 -1.33334 z m 12.66667,0.16667 v -0.5 h 0.5 0.5 v 0.5 0.5 h -0.5 -0.5 z m -18,-1 v -0.5 h 0.5 0.5 v 0.5 0.5 h -0.5 -0.5 z m 23,0 v -0.5 h 0.5 0.5 v 0.5 0.5 h -0.5 -0.5 z m -27,-1 v -0.5 h 0.5 0.5 v 0.5 0.5 h -0.5 -0.5 z m 30,0 v -0.5 h 0.5 0.5 v 0.5 0.5 h -0.5 -0.5 z m -33,-1 v -0.5 h 0.5 0.5 v 0.5 0.5 h -0.5 -0.5 z m 35,0 v -0.5 h 0.5 0.5 v 0.5 0.5 h -0.5 -0.5 z m -38,-1 v -0.5 h 0.5 0.5 v 0.5 0.5 h -0.5 -0.5 z m 40,0 v -0.5 h 0.5 0.5 v 0.5 0.5 h -0.5 -0.5 z m -43,-1 v -0.5 h 0.5 0.5 v 0.5 0.5 h -0.5 -0.5 z m -5,-2 v -0.5 h 0.5 0.5 v 0.5 0.5 h -0.5 -0.5 z m 54,-1.03154 v -0.60191 l 2.47,-3.23833 2.46999,-3.23833 2.096,-4.73835 2.09599,-4.73835 0.88505,-8.57827 0.88505,-8.57828 -0.93614,-4.93625 -0.93614,-4.93624 1.60011,-2.44208 1.60011,-2.44207 h 1.80165 1.80166 l 0.33333,-0.75 0.33334,-0.75 4,-2.19656 4,-2.19656 v -0.7196 -0.7196 l 5.5,-5.67736 5.5,-5.67736 0.68854,0.36455 0.68854,0.36455 0.94907,-1.6959 0.94907,-1.6959 1.61239,-0.23665 1.61239,-0.23665 v 0.91152 0.91152 h 1.01905 1.01905 l -0.62746,-2.5 -0.62746,-2.5 h 1.02309 1.02309 l 0.67241,7.25 0.67242,7.25 -1.6157,6.93538 -1.6157,6.93539 -3.19671,6.56461 -3.19672,6.56462 -8.52468,8.5414 -8.52468,8.54141 -8,6.80059 -8,6.80059 -1.75,0.94318 -1.75,0.94319 z m -61,-1.96846 v -0.5 h 0.5 0.5 v 0.5 0.5 h -0.5 -0.5 z m -2,-1 v -0.5 h 0.5 0.5 v 0.5 0.5 h -0.5 -0.5 z m -2,-1 v -0.5 h 0.5 0.5 v 0.5 0.5 h -0.5 -0.5 z m -9,-5 v -0.5 h 0.5 0.5 v 0.5 0.5 h -0.5 -0.5 z m -2,-1 v -0.5 h 0.5 0.5 v 0.5 0.5 h -0.5 -0.5 z m -7,-4 v -0.5 h 0.5 0.5 v 0.5 0.5 h -0.5 -0.5 z m -7,-4 v -0.5 h 0.5 0.5 v 0.5 0.5 h -0.5 -0.5 z m -5,-3 v -0.5 h 0.5 0.5 v 0.5 0.5 h -0.5 -0.5 z m -5,-3 v -0.5 h 0.5 0.5 v 0.5 0.5 h -0.5 -0.5 z m -7,-4 v -0.5 h 0.5 0.5 v 0.5 0.5 h -0.5 -0.5 z m 114.33333,-2.16667 0.66667,-0.66667 0.66666,0.66667 0.66667,0.66667 h -1.33333 -1.33334 z M 418.9607,530.53922 v -0.5 h 0.5 0.5 v 0.5 0.5 h -0.5 -0.5 z m 111,0 v -0.5 h 0.5 0.5 v 0.5 0.5 h -0.5 -0.5 z m -5,-1 v -0.5 h 0.5 0.5 v 0.5 0.5 h -0.5 -0.5 z m -4,-1 v -0.5 h 0.5 0.5 v 0.5 0.5 h -0.5 -0.5 z m -107,-1 v -0.5 h 0.5 0.5 v 0.5 0.5 h -0.5 -0.5 z m 104,0 v -0.5 h 0.5 0.5 v 0.5 0.5 h -0.5 -0.5 z m -6,-2 v -0.5 h 0.5 0.5 v 0.5 0.5 h -0.5 -0.5 z m -103,-1 v -0.5 h 0.5 0.5 v 0.5 0.5 h -0.5 -0.5 z m 100,0 v -0.5 h 0.5 0.5 v 0.5 0.5 h -0.5 -0.5 z m 90,0 v -0.5 h 0.5 0.5 v 0.5 0.5 h -0.5 -0.5 z m -95,-2 v -0.5 h 0.5 0.5 v 0.5 0.5 h -0.5 -0.5 z m -100,-1 v -0.5 h 0.5 0.5 v 0.5 0.5 h -0.5 -0.5 z m 98,0 v -0.5 h 0.5 0.5 v 0.5 0.5 h -0.5 -0.5 z m 103,-1 v -0.5 h 0.5 0.5 v 0.5 0.5 h -0.5 -0.5 z m -206,-2 v -0.5 h 0.5 0.5 v 0.5 0.5 h -0.5 -0.5 z m 209,0 v -0.5 h 0.5 0.5 v 0.5 0.5 h -0.5 -0.5 z m 3,-2 v -0.5 h 0.5 0.5 v 0.5 0.5 h -0.5 -0.5 z m -121,-1 v -0.5 h 0.5 0.5 v 0.5 0.5 h -0.5 -0.5 z m 35.16287,-8.26342 -7.33712,-8.26725 -10.16288,-8.30864 -10.16287,-8.30865 -4.75,-3.22406 -4.75,-3.22407 v -4.95195 -4.95196 h 0.45599 0.456 l 5.294,3.10691 5.29401,3.10691 6.5,4.58921 6.5,4.58921 4.34651,3.55388 4.3465,3.55388 5.36851,6.42526 5.3685,6.42527 0.61502,4.10123 0.61501,4.10123 -0.33002,2.97542 -0.33003,2.97542 z m -133.16287,7.26342 v -0.5 h 0.5 0.5 v 0.5 0.5 h -0.5 -0.5 z m 96,0 v -0.5 h 0.5 0.5 v 0.5 0.5 h -0.5 -0.5 z m 126,0 v -0.5 h 0.5 0.5 v 0.5 0.5 h -0.5 -0.5 z m -128,-1 v -0.5 h 0.5 0.5 v 0.5 0.5 h -0.5 -0.5 z m 131,-1 v -0.5 h 0.5 0.5 v 0.5 0.5 h -0.5 -0.5 z m -230,-1 v -0.5 h 0.5 0.5 v 0.5 0.5 h -0.5 -0.5 z m 233,-1 v -0.5 h 0.5 0.5 v 0.5 0.5 h -0.5 -0.5 z m -143,-2 v -0.5 h 0.5 0.5 v 0.5 0.5 h -0.5 -0.5 z m 146,0 v -0.5 h 0.5 0.5 v 0.5 0.5 h -0.5 -0.5 z m -236,-3 v -0.5 h 0.5 0.5 v 0.5 0.5 h -0.5 -0.5 z m 83,-1 v -0.5 h 0.5 0.5 v 0.5 0.5 h -0.5 -0.5 z m 66,-1.7131 0.5,-0.56444 10.67553,-7.11839 10.67553,-7.11839 6.43211,-7.04749 6.4321,-7.04749 2.27647,6.08721 2.27646,6.08721 -0.514,0.51401 -0.51401,0.51401 -0.61146,-2.43627 -0.61147,-2.43627 -1.50863,-0.57892 -1.50863,-0.57891 v 1.036 1.036 l -1.89853,-0.60257 -1.89853,-0.60257 -4.85147,4.21176 -4.85147,4.21176 0.27477,0.89775 0.27478,0.89776 -0.87413,-0.54025 -0.87412,-0.54024 -3.90065,2.84039 -3.90065,2.84039 -6,3.3012 -6,3.30119 z m 34.66666,-23.45357 -0.66666,-0.66667 -0.66667,0.66667 -0.66667,0.66667 h 1.33334 1.33333 z M 464.9607,501.53922 v -0.5 h 0.5 0.5 v 0.5 0.5 h -0.5 -0.5 z m 94,-2 v -0.5 h 0.5 0.5 v 0.5 0.5 h -0.5 -0.5 z m -167,-1 v -0.5 h 0.5 0.5 v 0.5 0.5 h -0.5 -0.5 z m 68,0 v -0.5 h 0.5 0.5 v 0.5 0.5 h -0.5 -0.5 z m -2,-1 v -0.5 h 0.5 0.5 v 0.5 0.5 h -0.5 -0.5 z m -63,-3 v -0.5 h 0.5 0.5 v 0.5 0.5 h -0.5 -0.5 z m 58,0 v -0.5 h 0.5 0.5 v 0.5 0.5 h -0.5 -0.5 z m 111,0 v -0.5 h 0.5 0.5 v 0.5 0.5 h -0.5 -0.5 z m -116,-3 v -0.5 h 0.5 0.5 v 0.5 0.5 h -0.5 -0.5 z m -5,-3 v -0.5 h 0.5 0.5 v 0.5 0.5 h -0.5 -0.5 z m -7,-4 v -0.5 h 0.5 0.5 v 0.5 0.5 h -0.5 -0.5 z m -33,-1 v -0.5 h 0.5 0.5 v 0.5 0.5 h -0.5 -0.5 z m 28,-2 v -0.5 h 0.5 0.5 v 0.5 0.5 h -0.5 -0.5 z m -2,-1 v -0.5 h 0.5 0.5 v 0.5 0.5 h -0.5 -0.5 z m -5,-3 v -0.5 h 0.5 0.5 v 0.5 0.5 h -0.5 -0.5 z m -16,-1 v -0.5 h 0.5 0.5 v 0.5 0.5 h -0.5 -0.5 z m 9,-3 v -0.5 h 0.5 0.5 v 0.5 0.5 h -0.5 -0.5 z m -6,-1 v -0.5 h 0.5 0.5 v 0.5 0.5 h -0.5 -0.5 z m 4,0 v -0.5 h 0.5 0.5 v 0.5 0.5 h -0.5 -0.5 z m 225.07895,-25.08334 0.0789,-1.91666 0.52522,1.3125 0.52522,1.3125 -0.60417,0.60416 -0.60416,0.60417 z m 0.35974,-47.41666 v -27.5 l 0.30887,13.75 0.30888,13.75 -0.30888,13.75 -0.30887,13.75 z m -46.43869,-3.5 v -0.5 h 0.5 0.5 v 0.5 0.5 h -0.5 -0.5 z m -201.20826,-6.75 -2.53279,-5.25 -1.87948,-5.5 -1.87947,-5.5 v -13 -13 l 2.68598,-5.73102 2.68599,-5.73102 4.31401,-4.10712 4.31402,-4.10712 6,-2.86051 6,-2.86052 6.53951,-0.85227 6.53951,-0.85228 -1.26867,6.05093 -1.26867,6.05093 -0.0208,5.5399 -0.0208,5.5399 1.49167,5.7269 1.49166,5.7269 2.50951,4.95226 2.5095,4.95226 -1.42303,-0.54606 -1.42303,-0.54607 -2.07814,1.11219 -2.07814,1.11218 v 0.94007 0.94006 l 2.5651,-0.97525 2.5651,-0.97524 1.1849,0.022 1.1849,0.022 -4.39626,1.99463 -4.39626,1.99462 -6.21566,4.43541 -6.21566,4.4354 -6.63808,7.16974 -6.63808,7.16974 v 0.87827 0.87827 h -0.83774 -0.83774 z m 7.13858,-3.29307 0.77896,0.48143 2.39536,-2.54975 2.39536,-2.54974 v -0.66944 -0.66943 l 0.82433,0.27477 0.82433,0.27478 -0.66336,-1.07334 -0.66336,-1.07333 -1.25298,1.03988 -1.25298,1.03988 -0.81832,-0.74132 -0.81831,-0.74132 0.6295,1.10464 0.62951,1.10464 -2.46918,2.31967 -2.46918,2.31967 0.116,1.57569 0.116,1.57569 0.45968,-1.76225 0.45968,-1.76224 z m 3.06968,-3.95693 v -0.5 h 0.5 0.5 v 0.5 0.5 h -0.5 -0.5 z m -2,-2 v -0.5 h -0.5 -0.5 v 0.5 0.5 h 0.5 0.5 z m 2,-2 v -0.5 h -0.5 -0.5 v 0.5 0.5 h 0.5 0.5 z m 16.44284,-7.59878 3.55716,-2.09878 v -0.90122 -0.90122 h -1.5 -1.5 v -0.94259 -0.94258 l -2.17651,0.41916 -2.1765,0.41915 -0.65384,1.05793 -0.65383,1.05793 0.24701,2.2155 0.247,2.2155 0.0833,0.25 0.0833,0.25 h 0.44284 0.44284 z m 177.05716,23.09878 0.61803,-1 h 0.5 0.5 l -0.61803,1 -0.61804,1 h -0.5 -0.5 z m 3.5,-2.5 v -0.5 h 0.5 0.5 v 0.5 0.5 h -0.5 -0.5 z m 3,-2 v -0.5 h 0.5 0.5 v 0.5 0.5 h -0.5 -0.5 z m 3,-2 v -0.5 h 0.5 0.5 v 0.5 0.5 h -0.5 -0.5 z m 3,-2 v -0.5 h 0.5 0.5 v 0.5 0.5 h -0.5 -0.5 z m 3.5,-2.5 0.61803,-1 h 0.5 0.5 l -0.61803,1 -0.61804,1 h -0.5 -0.5 z m 3,-2 0.61803,-1 h 0.5 0.5 l -0.61803,1 -0.61804,1 h -0.5 -0.5 z m 3.5,-2.5 v -0.5 h 0.5 0.5 v 0.5 0.5 h -0.5 -0.5 z m 3,-2 v -0.5 h 0.5 0.5 v 0.5 0.5 h -0.5 -0.5 z m 3,-2 v -0.5 h 0.5 0.5 v 0.5 0.5 h -0.5 -0.5 z m 3.5,-2.5 0.61803,-1 h 0.5 0.5 l -0.61803,1 -0.61804,1 h -0.5 -0.5 z m -97.5,-1.5 v -0.5 h 0.5 0.5 v 0.5 0.5 h -0.5 -0.5 z m 100.5,-0.5 0.61803,-1 h 0.5 0.5 l -0.61803,1 -0.61804,1 h -0.5 -0.5 z m -106.5,-1.5 v -0.5 h 0.5 0.5 v 0.5 0.5 h -0.5 -0.5 z m 109.5,-0.5 0.61803,-1 h 0.5 0.5 l -0.61803,1 -0.61804,1 h -0.5 -0.5 z m -99.5,-0.5 v -0.5 h 0.5 0.5 v 0.5 0.5 h -0.5 -0.5 z m 102.5,-1.5 0.61803,-1 h 0.5 0.5 l -0.61803,1 -0.61804,1 h -0.5 -0.5 z m -117.5,-0.5 v -0.5 h 0.5 0.5 v 0.5 0.5 h -0.5 -0.5 z m 18,0 v -0.5 h 0.5 0.5 v 0.5 0.5 h -0.5 -0.5 z m 102,-0.5 v -1.33334 l 0.66666,0.66667 0.66667,0.66667 -0.66667,0.66666 -0.66666,0.66667 z m -123,-1.5 v -0.5 h 0.5 0.5 v 0.5 0.5 h -0.5 -0.5 z m 25,-1 v -0.5 h 0.5 0.5 v 0.5 0.5 h -0.5 -0.5 z m -28,-1 v -0.5 h 0.5 0.5 v 0.5 0.5 h -0.5 -0.5 z m 32,-2 v -0.5 h 0.5 0.5 v 0.5 0.5 h -0.5 -0.5 z m 3,-2 v -0.5 h 0.5 0.5 v 0.5 0.5 h -0.5 -0.5 z m -46,-3 v -0.5 h 0.5 0.5 v 0.5 0.5 h -0.5 -0.5 z m -3,-2 v -0.5 h 0.5 0.5 v 0.5 0.5 h -0.5 -0.5 z m 56,0 v -0.5 h 0.5 0.5 v 0.5 0.5 h -0.5 -0.5 z m -61,-3 v -0.5 h 0.5 0.5 v 0.5 0.5 h -0.5 -0.5 z m 65,0 v -0.5 h 0.5 0.5 v 0.5 0.5 h -0.5 -0.5 z m -68,-2 v -0.5 h 0.5 0.5 v 0.5 0.5 h -0.5 -0.5 z m 72,-1 v -0.5 h 0.5 0.5 v 0.5 0.5 h -0.5 -0.5 z m -77,-2 v -0.5 h 0.5 0.5 v 0.5 0.5 h -0.5 -0.5 z m 81,-1 v -0.5 h 0.5 0.5 v 0.5 0.5 h -0.5 -0.5 z m -84,-1 v -0.5 h 0.5 0.5 v 0.5 0.5 h -0.5 -0.5 z m -5,-3 v -0.5 h 0.5 0.5 v 0.5 0.5 h -0.5 -0.5 z m -2,-1 v -0.5 h 0.5 0.5 v 0.5 0.5 h -0.5 -0.5 z m -7,-4 v -0.5 h 0.5 0.5 v 0.5 0.5 h -0.5 -0.5 z m 96,0 v -0.5 h 0.5 0.5 v 0.5 0.5 h -0.5 -0.5 z m -173,-1 v -0.5 h 0.5 0.5 v 0.5 0.5 h -0.5 -0.5 z m 75,0 v -0.5 h 0.5 0.5 v 0.5 0.5 h -0.5 -0.5 z m 96,0 v -0.5 h 0.5 0.5 v 0.5 0.5 h -0.5 -0.5 z m -98,-1 v -0.5 h 0.5 0.5 v 0.5 0.5 h -0.5 -0.5 z m -2,-1 v -0.5 h 0.5 0.5 v 0.5 0.5 h -0.5 -0.5 z m 97,0 v -0.5 h 0.5 0.5 v 0.5 0.5 h -0.5 -0.5 z m -99,-1 v -0.5 h 0.5 0.5 v 0.5 0.5 h -0.5 -0.5 z m -2,-1 v -0.5 h 0.5 0.5 v 0.5 0.5 h -0.5 -0.5 z m -2,-1 v -0.5 h 0.5 0.5 v 0.5 0.5 h -0.5 -0.5 z m 98,0 v -0.5 h 0.5 0.5 v 0.5 0.5 h -0.5 -0.5 z m -100,-1 v -0.5 h 0.5 0.5 v 0.5 0.5 h -0.5 -0.5 z m 98,0 v -0.5 h 0.5 0.5 v 0.5 0.5 h -0.5 -0.5 z m -103,-2 v -0.5 h 0.5 0.5 v 0.5 0.5 h -0.5 -0.5 z m -3,-1 v -0.5 h 0.5 0.5 v 0.5 0.5 h -0.5 -0.5 z m 101,0 v -0.5 h 0.5 0.5 v 0.5 0.5 h -0.5 -0.5 z m -148.5,-1.5 0.61803,-1 h 0.5 0.5 l -0.61803,1 -0.61804,1 h -0.5 -0.5 z m 44.5,0.5 v -0.5 h 0.5 0.5 v 0.5 0.5 h -0.5 -0.5 z m -4,-1 v -0.5 h 0.5 0.5 v 0.5 0.5 h -0.5 -0.5 z m -4,-1 v -0.5 h 0.5 0.5 v 0.5 0.5 h -0.5 -0.5 z m 107,0 v -0.5 h 0.5 0.5 v 0.5 0.5 h -0.5 -0.5 z m -113.66667,-1.16667 0.66667,-0.66667 0.66666,0.66667 0.66667,0.66667 h -1.33333 -1.33334 z m 108.66667,-1.83333 v -0.5 h 0.5 0.5 v 0.5 0.5 h -0.5 -0.5 z m -2,-1 v -0.5 h 0.5 0.5 v 0.5 0.5 h -0.5 -0.5 z m -5,-3 v -0.5 h 0.5 0.5 v 0.5 0.5 h -0.5 -0.5 z m -5,-3 v -0.5 h 0.5 0.5 v 0.5 0.5 h -0.5 -0.5 z m -2,-1 v -0.5 h 0.5 0.5 v 0.5 0.5 h -0.5 -0.5 z m -5,-3 v -0.5 h 0.5 0.5 v 0.5 0.5 h -0.5 -0.5 z m -2,-1 v -0.5 h 0.5 0.5 v 0.5 0.5 h -0.5 -0.5 z m -5,-3 v -0.5 h 0.5 0.5 v 0.5 0.5 h -0.5 -0.5 z m -7,-4 v -0.5 h 0.5 0.5 v 0.5 0.5 h -0.5 -0.5 z m -2,-1 v -0.5 h 0.5 0.5 v 0.5 0.5 h -0.5 -0.5 z m -72.5,-6.5 0.61803,-1 h 0.5 0.5 l -0.61803,1 -0.61804,1 h -0.5 -0.5 z m 56.5,-1.5 v -0.5 h 0.5 0.5 v 0.5 0.5 h -0.5 -0.5 z m -5,-2 v -0.5 h 0.5 0.5 v 0.5 0.5 h -0.5 -0.5 z m -45,-1 v -0.5 h 0.5 0.5 v 0.5 0.5 h -0.5 -0.5 z m 2,-1 v -0.5 h 0.5 0.5 v 0.5 0.5 h -0.5 -0.5 z m 37,0 v -0.5 h 0.5 0.5 v 0.5 0.5 h -0.5 -0.5 z m -3,-1 v -0.5 h 0.5 0.5 v 0.5 0.5 h -0.5 -0.5 z m -28,-1 v -0.5 h 0.5 0.5 v 0.5 0.5 h -0.5 -0.5 z m 24,0 v -0.5 h 0.5 0.5 v 0.5 0.5 h -0.5 -0.5 z m -18.66667,-1.16667 0.66667,-0.66667 0.66666,0.66667 0.66667,0.66667 h -1.33333 -1.33334 z m 12.66667,0.16667 v -0.5 h 0.5 0.5 v 0.5 0.5 h -0.5 -0.5 z"
       id="path1625" />
    <path
       style="display:inline;fill:#182263"
       d="m 502.29403,569.37269 0.66667,-0.66667 0.66666,0.66667 0.66667,0.66667 h -1.33333 -1.33334 z m 9,0 0.66667,-0.66667 0.66666,0.66667 0.66667,0.66667 h -1.33333 -1.33334 z m -25.33333,-3.90937 -10.5,-3.52791 -12.11889,-6.36895 -12.11889,-6.36895 -24.88111,-14.74904 -24.88111,-14.74904 -7.71576,-4.51962 -7.71576,-4.51961 -0.38538,-1.06042 -0.38538,-1.06042 12.43183,-17 12.43183,-17 1.29863,-1.80023 1.29864,-1.80022 13.37068,7.70061 13.37067,7.7006 19.5,11.51863 19.5,11.51863 14,7.21888 14,7.21888 10,3.05185 10,3.05185 2.75,0.57931 2.75,0.57931 v 0.85264 0.85265 l -4.87136,7.3783 -4.87136,7.37831 -7.01292,7.5338 -7.01291,7.5338 -3.86573,2.61616 -3.86572,2.61615 -2,0.57598 -2,0.57597 z m 31,3.07604 v -0.5 h 0.5 0.5 v 0.5 0.5 h -0.5 -0.5 z m 3,-1 v -0.5 h 0.5 0.5 v 0.5 0.5 h -0.5 -0.5 z m 8,-3.87756 v -0.37755 l 1.75,-1.37245 1.75,-1.37244 -1.37245,1.75 -1.37244,1.75 h -0.37756 -0.37755 z m 5,-6.12244 v -0.5 h 0.5 0.5 v 0.5 0.5 h -0.5 -0.5 z m 1.5,-2.5 0.61803,-1 h 0.5 0.5 l -0.61803,1 -0.61804,1 h -0.5 -0.5 z m 1.5,-2.5 v -0.5 h 0.5 0.5 v 0.5 0.5 h -0.5 -0.5 z m 1,-2 v -0.5 h 0.5 0.5 v 0.5 0.5 h -0.5 -0.5 z m 1,-2.5 v -1.33334 l 0.66666,0.66667 0.66667,0.66667 -0.66667,0.66666 -0.66666,0.66667 z m 1,-3 v -1.33334 l 0.66666,0.66667 0.66667,0.66667 -0.66667,0.66666 -0.66666,0.66667 z m 1,-4 v -1.33334 l 0.66666,0.66667 0.66667,0.66667 -0.66667,0.66666 -0.66666,0.66667 z m -3.66667,-9.66667 0.66667,-0.66667 0.66666,0.66667 0.66667,0.66667 h -1.33333 -1.33334 z M 594.9607,461.39002 V 395.5108 l 22.05431,-14.98579 22.0543,-14.98579 h 0.4503 0.45031 l 0.55498,65.55063 0.55499,65.55063 -20.3096,13.52391 -20.30959,13.5239 -2.75,1.79047 -2.75,1.79048 z m -88.5,-105.01333 -23,-14.66631 -11.5,-6.34651 -11.5,-6.34651 -7.5,-2.90084 -7.5,-2.90084 -7.99741,-1.64804 -7.9974,-1.64805 -5.0026,0.50483 -5.00259,0.50483 2.63782,-0.69502 2.63783,-0.69501 3.94698,-5 3.94699,-5 5.11671,-5.58717 5.11672,-5.58717 7.51996,-5.08032 7.51996,-5.08031 5.44285,-2.03643 5.44285,-2.03643 6.33566,1.83994 6.33567,1.83995 5.5,2.17927 5.5,2.17927 8.5,4.56854 8.5,4.56855 15.5,9.00324 15.5,9.00323 16.81181,9.96778 16.8118,9.96777 -0.3118,0.2905 -0.31181,0.2905 -8,5.9082 -8,5.90821 -12.89076,9.28184 -12.89076,9.28184 -1.10924,0.41648 -1.10924,0.41649 z m -113,-22.33747 0.61803,-1 h 0.5 0.5 l -0.61803,1 -0.61804,1 h -0.5 -0.5 z m 1.89869,-3.25 -0.71934,-1.25 0.81831,0.74132 0.81832,0.74132 1.59201,-1.24132 1.59201,-1.24132 -1.37245,1.75 -1.37244,1.75 h -0.31854 -0.31854 z m 1.60131,-3.25 v -0.5 h 0.5 0.5 v 0.5 0.5 h -0.5 -0.5 z m 5,-1 v -0.5 h 0.5 0.5 v 0.5 0.5 h -0.5 -0.5 z m 2,-1 v -0.5 h 0.5 0.5 v 0.5 0.5 h -0.5 -0.5 z m 2,-1 v -0.5 h 0.5 0.5 v 0.5 0.5 h -0.5 -0.5 z m 2,-1 v -0.5 h 0.5 0.5 v 0.5 0.5 h -0.5 -0.5 z m 3,-1 v -0.5 h 0.5 0.5 v 0.5 0.5 h -0.5 -0.5 z m -8.5,-1.5 0.61803,-1 h 0.5 0.5 l -0.61803,1 -0.61804,1 h -0.5 -0.5 z m 12.83333,0.33333 0.66667,-0.66667 0.66666,0.66667 0.66667,0.66667 h -1.33333 -1.33334 z m 12.66667,-25.71089 v -0.37755 l 1.75,-1.37245 1.75,-1.37244 -1.37245,1.75 -1.37244,1.75 h -0.37756 -0.37755 z m 7,-6.12244 v -0.5 h 0.5 0.5 v 0.5 0.5 h -0.5 -0.5 z m 8,-4 v -0.5 h 0.5 0.5 v 0.5 0.5 h -0.5 -0.5 z m 4,-1 v -0.5 h 0.5 0.5 v 0.5 0.5 h -0.5 -0.5 z m 6.8125,-1.18312 1.3125,-0.52522 0.60416,0.60417 0.60417,0.60417 -1.91667,-0.079 -1.91666,-0.0789 z m 6.45653,-0.01 1.76903,-0.46098 1.23097,0.49804 1.23097,0.49804 -3,-0.0371 -3,-0.0371 z"
       id="path1624" />
    <path
       style="display:inline;fill:#182263;fill-opacity:1"
       d="m 500.9607,569.17672 -3.5,-0.69866 2.92134,-0.78148 2.92135,-0.78148 9.35368,-9.44534 9.35367,-9.44535 4.89209,-7.49393 4.89209,-7.49393 0.34928,-1.04784 0.34928,-1.04784 4.23361,0.67698 4.23361,0.67698 v 3.19069 3.19069 l -1.58546,5.4315 -1.58547,5.43151 -2.54487,4.5 -2.54488,4.5 -3.06818,3.25242 -3.06818,3.25243 -5.16501,1.93248 -5.165,1.93247 -5.88648,0.48318 -5.88647,0.48318 z m -116,-59.6375 v -0.5 h 0.5 0.5 v 0.5 0.5 h -0.5 -0.5 z m 11.9494,-181.00629 3.38085,-4.99371 16.60627,-16.56461 16.60627,-16.56461 5.47861,-2.66596 5.4786,-2.66596 6.5,-0.8423 6.5,-0.84229 5.3692,0.42741 5.3692,0.42742 -5.80138,2.35786 -5.80139,2.35786 -6.94512,4.78759 -6.94512,4.78759 -5.03789,5.5 -5.03788,5.5 -3.96034,5 -3.96034,5 -7.78498,1.67804 -7.78499,1.67804 -3.33948,1.69649 -3.33949,1.69648 -4.46573,3.61919 -4.46572,3.61919 z"
       id="path1623" />
    <path
       style="display:inline;fill:#5d646f"
       d="m 500.29403,569.37255 0.66667,-0.66667 0.66666,0.66667 0.66667,0.66667 h -1.33333 -1.33334 z m 12.66667,0.16667 v -0.5 h 0.5 0.5 v 0.5 0.5 h -0.5 -0.5 z m -18,-1 v -0.5 h 0.5 0.5 v 0.5 0.5 h -0.5 -0.5 z m 23,0 v -0.5 h 0.5 0.5 v 0.5 0.5 h -0.5 -0.5 z m -27,-1 v -0.5 h 0.5 0.5 v 0.5 0.5 h -0.5 -0.5 z m 30,0 v -0.5 h 0.5 0.5 v 0.5 0.5 h -0.5 -0.5 z m -33,-1 v -0.5 h 0.5 0.5 v 0.5 0.5 h -0.5 -0.5 z m 35,0 v -0.5 h 0.5 0.5 v 0.5 0.5 h -0.5 -0.5 z m -38,-1 v -0.5 h 0.5 0.5 v 0.5 0.5 h -0.5 -0.5 z m 40,0 v -0.5 h 0.5 0.5 v 0.5 0.5 h -0.5 -0.5 z m -43,-1 v -0.5 h 0.5 0.5 v 0.5 0.5 h -0.5 -0.5 z m -5,-2 v -0.5 h 0.5 0.5 v 0.5 0.5 h -0.5 -0.5 z m 54,-1.03154 v -0.60191 l 2.47,-3.23833 2.46999,-3.23833 2.096,-4.73835 2.09599,-4.73835 0.88505,-8.57827 0.88505,-8.57828 -0.93614,-4.93625 -0.93614,-4.93624 1.60011,-2.44208 1.60011,-2.44207 h 1.80165 1.80166 l 0.33333,-0.75 0.33334,-0.75 4,-2.19656 4,-2.19656 v -0.7196 -0.7196 l 5.5,-5.67736 5.5,-5.67736 0.68854,0.36455 0.68854,0.36455 0.94907,-1.6959 0.94907,-1.6959 1.61239,-0.23665 1.61239,-0.23665 v 0.91152 0.91152 h 1.01905 1.01905 l -0.62746,-2.5 -0.62746,-2.5 h 1.02309 1.02309 l 0.67241,7.25 0.67242,7.25 -1.6157,6.93538 -1.6157,6.93539 -3.19671,6.56461 -3.19672,6.56462 -8.52468,8.5414 -8.52468,8.54141 -8,6.80059 -8,6.80059 -1.75,0.94318 -1.75,0.94319 z m -61,-1.96846 v -0.5 h 0.5 0.5 v 0.5 0.5 h -0.5 -0.5 z m -2,-1 v -0.5 h 0.5 0.5 v 0.5 0.5 h -0.5 -0.5 z m -2,-1 v -0.5 h 0.5 0.5 v 0.5 0.5 h -0.5 -0.5 z m -9,-5 v -0.5 h 0.5 0.5 v 0.5 0.5 h -0.5 -0.5 z m -2,-1 v -0.5 h 0.5 0.5 v 0.5 0.5 h -0.5 -0.5 z m -7,-4 v -0.5 h 0.5 0.5 v 0.5 0.5 h -0.5 -0.5 z m -7,-4 v -0.5 h 0.5 0.5 v 0.5 0.5 h -0.5 -0.5 z m -5,-3 v -0.5 h 0.5 0.5 v 0.5 0.5 h -0.5 -0.5 z m -5,-3 v -0.5 h 0.5 0.5 v 0.5 0.5 h -0.5 -0.5 z m -7,-4 v -0.5 h 0.5 0.5 v 0.5 0.5 h -0.5 -0.5 z m 114.33333,-2.16667 0.66667,-0.66667 0.66666,0.66667 0.66667,0.66667 h -1.33333 -1.33334 z M 418.9607,530.53922 v -0.5 h 0.5 0.5 v 0.5 0.5 h -0.5 -0.5 z m 111,0 v -0.5 h 0.5 0.5 v 0.5 0.5 h -0.5 -0.5 z m -5,-1 v -0.5 h 0.5 0.5 v 0.5 0.5 h -0.5 -0.5 z m -4,-1 v -0.5 h 0.5 0.5 v 0.5 0.5 h -0.5 -0.5 z m -107,-1 v -0.5 h 0.5 0.5 v 0.5 0.5 h -0.5 -0.5 z m 104,0 v -0.5 h 0.5 0.5 v 0.5 0.5 h -0.5 -0.5 z m -6,-2 v -0.5 h 0.5 0.5 v 0.5 0.5 h -0.5 -0.5 z m -103,-1 v -0.5 h 0.5 0.5 v 0.5 0.5 h -0.5 -0.5 z m 100,0 v -0.5 h 0.5 0.5 v 0.5 0.5 h -0.5 -0.5 z m 90,0 v -0.5 h 0.5 0.5 v 0.5 0.5 h -0.5 -0.5 z m -95,-2 v -0.5 h 0.5 0.5 v 0.5 0.5 h -0.5 -0.5 z m -100,-1 v -0.5 h 0.5 0.5 v 0.5 0.5 h -0.5 -0.5 z m 98,0 v -0.5 h 0.5 0.5 v 0.5 0.5 h -0.5 -0.5 z m 103,-1 v -0.5 h 0.5 0.5 v 0.5 0.5 h -0.5 -0.5 z m -206,-2 v -0.5 h 0.5 0.5 v 0.5 0.5 h -0.5 -0.5 z m 209,0 v -0.5 h 0.5 0.5 v 0.5 0.5 h -0.5 -0.5 z m 3,-2 v -0.5 h 0.5 0.5 v 0.5 0.5 h -0.5 -0.5 z m -121,-1 v -0.5 h 0.5 0.5 v 0.5 0.5 h -0.5 -0.5 z m 35.16287,-8.26342 -7.33712,-8.26725 -10.16288,-8.30864 -10.16287,-8.30865 -4.75,-3.22406 -4.75,-3.22407 v -4.95195 -4.95196 h 0.45599 0.456 l 5.294,3.10691 5.29401,3.10691 6.5,4.58921 6.5,4.58921 4.34651,3.55388 4.3465,3.55388 5.36851,6.42526 5.3685,6.42527 0.61502,4.10123 0.61501,4.10123 -0.33002,2.97542 -0.33003,2.97542 z m -133.16287,7.26342 v -0.5 h 0.5 0.5 v 0.5 0.5 h -0.5 -0.5 z m 96,0 v -0.5 h 0.5 0.5 v 0.5 0.5 h -0.5 -0.5 z m 126,0 v -0.5 h 0.5 0.5 v 0.5 0.5 h -0.5 -0.5 z m -128,-1 v -0.5 h 0.5 0.5 v 0.5 0.5 h -0.5 -0.5 z m 131,-1 v -0.5 h 0.5 0.5 v 0.5 0.5 h -0.5 -0.5 z m -230,-1 v -0.5 h 0.5 0.5 v 0.5 0.5 h -0.5 -0.5 z m 233,-1 v -0.5 h 0.5 0.5 v 0.5 0.5 h -0.5 -0.5 z m -143,-2 v -0.5 h 0.5 0.5 v 0.5 0.5 h -0.5 -0.5 z m 146,0 v -0.5 h 0.5 0.5 v 0.5 0.5 h -0.5 -0.5 z m -236,-3 v -0.5 h 0.5 0.5 v 0.5 0.5 h -0.5 -0.5 z m 83,-1 v -0.5 h 0.5 0.5 v 0.5 0.5 h -0.5 -0.5 z m 66,-1.7131 0.5,-0.56444 10.67553,-7.11839 10.67553,-7.11839 6.43211,-7.04749 6.4321,-7.04749 2.27647,6.08721 2.27646,6.08721 -0.514,0.51401 -0.51401,0.51401 -0.61146,-2.43627 -0.61147,-2.43627 -1.50863,-0.57892 -1.50863,-0.57891 v 1.036 1.036 l -1.89853,-0.60257 -1.89853,-0.60257 -4.85147,4.21176 -4.85147,4.21176 0.27477,0.89775 0.27478,0.89776 -0.87413,-0.54025 -0.87412,-0.54024 -3.90065,2.84039 -3.90065,2.84039 -6,3.3012 -6,3.30119 z m 34.66666,-23.45357 -0.66666,-0.66667 -0.66667,0.66667 -0.66667,0.66667 h 1.33334 1.33333 z M 464.9607,501.53922 v -0.5 h 0.5 0.5 v 0.5 0.5 h -0.5 -0.5 z m 94,-2 v -0.5 h 0.5 0.5 v 0.5 0.5 h -0.5 -0.5 z m -167,-1 v -0.5 h 0.5 0.5 v 0.5 0.5 h -0.5 -0.5 z m 68,0 v -0.5 h 0.5 0.5 v 0.5 0.5 h -0.5 -0.5 z m -2,-1 v -0.5 h 0.5 0.5 v 0.5 0.5 h -0.5 -0.5 z m -63,-3 v -0.5 h 0.5 0.5 v 0.5 0.5 h -0.5 -0.5 z m 58,0 v -0.5 h 0.5 0.5 v 0.5 0.5 h -0.5 -0.5 z m 111,0 v -0.5 h 0.5 0.5 v 0.5 0.5 h -0.5 -0.5 z m -116,-3 v -0.5 h 0.5 0.5 v 0.5 0.5 h -0.5 -0.5 z m -5,-3 v -0.5 h 0.5 0.5 v 0.5 0.5 h -0.5 -0.5 z m -7,-4 v -0.5 h 0.5 0.5 v 0.5 0.5 h -0.5 -0.5 z m -33,-1 v -0.5 h 0.5 0.5 v 0.5 0.5 h -0.5 -0.5 z m 28,-2 v -0.5 h 0.5 0.5 v 0.5 0.5 h -0.5 -0.5 z m -2,-1 v -0.5 h 0.5 0.5 v 0.5 0.5 h -0.5 -0.5 z m -5,-3 v -0.5 h 0.5 0.5 v 0.5 0.5 h -0.5 -0.5 z m -16,-1 v -0.5 h 0.5 0.5 v 0.5 0.5 h -0.5 -0.5 z m 9,-3 v -0.5 h 0.5 0.5 v 0.5 0.5 h -0.5 -0.5 z m -6,-1 v -0.5 h 0.5 0.5 v 0.5 0.5 h -0.5 -0.5 z m 4,0 v -0.5 h 0.5 0.5 v 0.5 0.5 h -0.5 -0.5 z m 225.07895,-25.08334 0.0789,-1.91666 0.52522,1.3125 0.52522,1.3125 -0.60417,0.60416 -0.60416,0.60417 z m 0.35974,-47.41666 v -27.5 l 0.30887,13.75 0.30888,13.75 -0.30888,13.75 -0.30887,13.75 z m -46.43869,-3.5 v -0.5 h 0.5 0.5 v 0.5 0.5 h -0.5 -0.5 z m -201.20826,-6.75 -2.53279,-5.25 -1.87948,-5.5 -1.87947,-5.5 v -13 -13 l 2.68598,-5.73102 2.68599,-5.73102 4.31401,-4.10712 4.31402,-4.10712 6,-2.86051 6,-2.86052 6.53951,-0.85227 6.53951,-0.85228 -1.26867,6.05093 -1.26867,6.05093 -0.0208,5.5399 -0.0208,5.5399 1.49167,5.7269 1.49166,5.7269 2.50951,4.95226 2.5095,4.95226 -1.42303,-0.54606 -1.42303,-0.54607 -2.07814,1.11219 -2.07814,1.11218 v 0.94007 0.94006 l 2.5651,-0.97525 2.5651,-0.97524 1.1849,0.022 1.1849,0.022 -4.39626,1.99463 -4.39626,1.99462 -6.21566,4.43541 -6.21566,4.4354 -6.63808,7.16974 -6.63808,7.16974 v 0.87827 0.87827 h -0.83774 -0.83774 z m 7.13858,-3.29307 0.77896,0.48143 2.39536,-2.54975 2.39536,-2.54974 v -0.66944 -0.66943 l 0.82433,0.27477 0.82433,0.27478 -0.66336,-1.07334 -0.66336,-1.07333 -1.25298,1.03988 -1.25298,1.03988 -0.81832,-0.74132 -0.81831,-0.74132 0.6295,1.10464 0.62951,1.10464 -2.46918,2.31967 -2.46918,2.31967 0.116,1.57569 0.116,1.57569 0.45968,-1.76225 0.45968,-1.76224 z m 3.06968,-3.95693 v -0.5 h 0.5 0.5 v 0.5 0.5 h -0.5 -0.5 z m -2,-2 v -0.5 h -0.5 -0.5 v 0.5 0.5 h 0.5 0.5 z m 2,-2 v -0.5 h -0.5 -0.5 v 0.5 0.5 h 0.5 0.5 z m 16.44284,-7.59878 3.55716,-2.09878 v -0.90122 -0.90122 h -1.5 -1.5 v -0.94259 -0.94258 l -2.17651,0.41916 -2.1765,0.41915 -0.65384,1.05793 -0.65383,1.05793 0.24701,2.2155 0.247,2.2155 0.0833,0.25 0.0833,0.25 h 0.44284 0.44284 z m 177.05716,23.09878 0.61803,-1 h 0.5 0.5 l -0.61803,1 -0.61804,1 h -0.5 -0.5 z m 3.5,-2.5 v -0.5 h 0.5 0.5 v 0.5 0.5 h -0.5 -0.5 z m 3,-2 v -0.5 h 0.5 0.5 v 0.5 0.5 h -0.5 -0.5 z m 3,-2 v -0.5 h 0.5 0.5 v 0.5 0.5 h -0.5 -0.5 z m 3,-2 v -0.5 h 0.5 0.5 v 0.5 0.5 h -0.5 -0.5 z m 3.5,-2.5 0.61803,-1 h 0.5 0.5 l -0.61803,1 -0.61804,1 h -0.5 -0.5 z m 3,-2 0.61803,-1 h 0.5 0.5 l -0.61803,1 -0.61804,1 h -0.5 -0.5 z m 3.5,-2.5 v -0.5 h 0.5 0.5 v 0.5 0.5 h -0.5 -0.5 z m 3,-2 v -0.5 h 0.5 0.5 v 0.5 0.5 h -0.5 -0.5 z m 3,-2 v -0.5 h 0.5 0.5 v 0.5 0.5 h -0.5 -0.5 z m 3.5,-2.5 0.61803,-1 h 0.5 0.5 l -0.61803,1 -0.61804,1 h -0.5 -0.5 z m -97.5,-1.5 v -0.5 h 0.5 0.5 v 0.5 0.5 h -0.5 -0.5 z m 100.5,-0.5 0.61803,-1 h 0.5 0.5 l -0.61803,1 -0.61804,1 h -0.5 -0.5 z m -106.5,-1.5 v -0.5 h 0.5 0.5 v 0.5 0.5 h -0.5 -0.5 z m 109.5,-0.5 0.61803,-1 h 0.5 0.5 l -0.61803,1 -0.61804,1 h -0.5 -0.5 z m -99.5,-0.5 v -0.5 h 0.5 0.5 v 0.5 0.5 h -0.5 -0.5 z m 102.5,-1.5 0.61803,-1 h 0.5 0.5 l -0.61803,1 -0.61804,1 h -0.5 -0.5 z m -117.5,-0.5 v -0.5 h 0.5 0.5 v 0.5 0.5 h -0.5 -0.5 z m 18,0 v -0.5 h 0.5 0.5 v 0.5 0.5 h -0.5 -0.5 z m 102,-0.5 v -1.33334 l 0.66666,0.66667 0.66667,0.66667 -0.66667,0.66666 -0.66666,0.66667 z m -123,-1.5 v -0.5 h 0.5 0.5 v 0.5 0.5 h -0.5 -0.5 z m 25,-1 v -0.5 h 0.5 0.5 v 0.5 0.5 h -0.5 -0.5 z m -28,-1 v -0.5 h 0.5 0.5 v 0.5 0.5 h -0.5 -0.5 z m 32,-2 v -0.5 h 0.5 0.5 v 0.5 0.5 h -0.5 -0.5 z m 3,-2 v -0.5 h 0.5 0.5 v 0.5 0.5 h -0.5 -0.5 z m -46,-3 v -0.5 h 0.5 0.5 v 0.5 0.5 h -0.5 -0.5 z m -3,-2 v -0.5 h 0.5 0.5 v 0.5 0.5 h -0.5 -0.5 z m 56,0 v -0.5 h 0.5 0.5 v 0.5 0.5 h -0.5 -0.5 z m -61,-3 v -0.5 h 0.5 0.5 v 0.5 0.5 h -0.5 -0.5 z m 65,0 v -0.5 h 0.5 0.5 v 0.5 0.5 h -0.5 -0.5 z m -68,-2 v -0.5 h 0.5 0.5 v 0.5 0.5 h -0.5 -0.5 z m 72,-1 v -0.5 h 0.5 0.5 v 0.5 0.5 h -0.5 -0.5 z m -77,-2 v -0.5 h 0.5 0.5 v 0.5 0.5 h -0.5 -0.5 z m 81,-1 v -0.5 h 0.5 0.5 v 0.5 0.5 h -0.5 -0.5 z m -84,-1 v -0.5 h 0.5 0.5 v 0.5 0.5 h -0.5 -0.5 z m -5,-3 v -0.5 h 0.5 0.5 v 0.5 0.5 h -0.5 -0.5 z m -2,-1 v -0.5 h 0.5 0.5 v 0.5 0.5 h -0.5 -0.5 z m -7,-4 v -0.5 h 0.5 0.5 v 0.5 0.5 h -0.5 -0.5 z m 96,0 v -0.5 h 0.5 0.5 v 0.5 0.5 h -0.5 -0.5 z m -173,-1 v -0.5 h 0.5 0.5 v 0.5 0.5 h -0.5 -0.5 z m 75,0 v -0.5 h 0.5 0.5 v 0.5 0.5 h -0.5 -0.5 z m 96,0 v -0.5 h 0.5 0.5 v 0.5 0.5 h -0.5 -0.5 z m -98,-1 v -0.5 h 0.5 0.5 v 0.5 0.5 h -0.5 -0.5 z m -2,-1 v -0.5 h 0.5 0.5 v 0.5 0.5 h -0.5 -0.5 z m 97,0 v -0.5 h 0.5 0.5 v 0.5 0.5 h -0.5 -0.5 z m -99,-1 v -0.5 h 0.5 0.5 v 0.5 0.5 h -0.5 -0.5 z m -2,-1 v -0.5 h 0.5 0.5 v 0.5 0.5 h -0.5 -0.5 z m -2,-1 v -0.5 h 0.5 0.5 v 0.5 0.5 h -0.5 -0.5 z m 98,0 v -0.5 h 0.5 0.5 v 0.5 0.5 h -0.5 -0.5 z m -100,-1 v -0.5 h 0.5 0.5 v 0.5 0.5 h -0.5 -0.5 z m 98,0 v -0.5 h 0.5 0.5 v 0.5 0.5 h -0.5 -0.5 z m -103,-2 v -0.5 h 0.5 0.5 v 0.5 0.5 h -0.5 -0.5 z m -3,-1 v -0.5 h 0.5 0.5 v 0.5 0.5 h -0.5 -0.5 z m 101,0 v -0.5 h 0.5 0.5 v 0.5 0.5 h -0.5 -0.5 z m -148.5,-1.5 0.61803,-1 h 0.5 0.5 l -0.61803,1 -0.61804,1 h -0.5 -0.5 z m 44.5,0.5 v -0.5 h 0.5 0.5 v 0.5 0.5 h -0.5 -0.5 z m -4,-1 v -0.5 h 0.5 0.5 v 0.5 0.5 h -0.5 -0.5 z m -4,-1 v -0.5 h 0.5 0.5 v 0.5 0.5 h -0.5 -0.5 z m 107,0 v -0.5 h 0.5 0.5 v 0.5 0.5 h -0.5 -0.5 z m -113.66667,-1.16667 0.66667,-0.66667 0.66666,0.66667 0.66667,0.66667 h -1.33333 -1.33334 z m 108.66667,-1.83333 v -0.5 h 0.5 0.5 v 0.5 0.5 h -0.5 -0.5 z m -2,-1 v -0.5 h 0.5 0.5 v 0.5 0.5 h -0.5 -0.5 z m -5,-3 v -0.5 h 0.5 0.5 v 0.5 0.5 h -0.5 -0.5 z m -5,-3 v -0.5 h 0.5 0.5 v 0.5 0.5 h -0.5 -0.5 z m -2,-1 v -0.5 h 0.5 0.5 v 0.5 0.5 h -0.5 -0.5 z m -5,-3 v -0.5 h 0.5 0.5 v 0.5 0.5 h -0.5 -0.5 z m -2,-1 v -0.5 h 0.5 0.5 v 0.5 0.5 h -0.5 -0.5 z m -5,-3 v -0.5 h 0.5 0.5 v 0.5 0.5 h -0.5 -0.5 z m -7,-4 v -0.5 h 0.5 0.5 v 0.5 0.5 h -0.5 -0.5 z m -2,-1 v -0.5 h 0.5 0.5 v 0.5 0.5 h -0.5 -0.5 z m -72.5,-6.5 0.61803,-1 h 0.5 0.5 l -0.61803,1 -0.61804,1 h -0.5 -0.5 z m 56.5,-1.5 v -0.5 h 0.5 0.5 v 0.5 0.5 h -0.5 -0.5 z m -5,-2 v -0.5 h 0.5 0.5 v 0.5 0.5 h -0.5 -0.5 z m -45,-1 v -0.5 h 0.5 0.5 v 0.5 0.5 h -0.5 -0.5 z m 2,-1 v -0.5 h 0.5 0.5 v 0.5 0.5 h -0.5 -0.5 z m 37,0 v -0.5 h 0.5 0.5 v 0.5 0.5 h -0.5 -0.5 z m -3,-1 v -0.5 h 0.5 0.5 v 0.5 0.5 h -0.5 -0.5 z m -28,-1 v -0.5 h 0.5 0.5 v 0.5 0.5 h -0.5 -0.5 z m 24,0 v -0.5 h 0.5 0.5 v 0.5 0.5 h -0.5 -0.5 z m -18.66667,-1.16667 0.66667,-0.66667 0.66666,0.66667 0.66667,0.66667 h -1.33333 -1.33334 z m 12.66667,0.16667 v -0.5 h 0.5 0.5 v 0.5 0.5 h -0.5 -0.5 z"
       id="path1630" />
  </g>
</svg>
